{
.appVersion = "1270";
DisplayStrings = (

glyphs = (
{
glyphname = A;
lastChange = "2020-03-10 21:49:07 +0000";
layers = (
{
guideLines = (
{
position = "{3924, 713}";
},
{
position = "{-39, 713}";
},
{
position = "{10, 483}";
},
{
position = "{-22, 495}";
},
{
position = "{-39, 725}";
},
{
position = "{-153, 0}";
},
{
position = "{-39, -12}";
},
{
position = "{-39, 771}";
},
{
position = "{-39, 943}";
},
{
position = "{-39, -230}";
},
{
position = "{-25, -242}";
}
);
layerId = "1C9972D2-AAA2-4EE5-9F28-188B121D2056";
paths = (
{
closed = 1;
nodes = (
"0 0 LINE",
"308 714 LINE",
"390 714 LINE",
"90 0 LINE"
);
},
{
closed = 1;
nodes = (
"615 0 LINE",
"308 714 LINE",
"391 714 LINE",
"707 0 LINE"
);
},
{
closed = 1;
nodes = (
"152 199 LINE",
"172 268 LINE",
"529 268 LINE",
"551 199 LINE"
);
}
);
width = 707;
},
{
layerId = "033ADDEA-23CB-49AC-A4FC-FA912A776280";
paths = (
{
closed = 1;
nodes = (
"-40 0 LINE",
"386 714 LINE",
"468 714 LINE",
"50 0 LINE"
);
},
{
closed = 1;
nodes = (
"575 0 LINE",
"386 714 LINE",
"469 714 LINE",
"667 0 LINE"
);
},
{
closed = 1;
nodes = (
"145 199 LINE",
"176 268 LINE",
"533 268 LINE",
"544 199 LINE"
);
}
);
width = 707;
}
);
leftKerningGroup = A;
note = A;
rightKerningGroup = A;
unicode = 0041;
},
{
glyphname = AE;
lastChange = "2020-03-10 21:49:07 +0000";
layers = (
{
guideLines = (
{
position = "{0, 713}";
},
{
position = "{49.408, 483}";
},
{
position = "{16.594, 495}";
},
{
position = "{0, 725}";
},
{
position = "{0, 0}";
},
{
position = "{0, -12}";
},
{
position = "{0, 771}";
},
{
position = "{0, 943}";
},
{
position = "{0, -230}";
},
{
position = "{14.371, -242}";
}
);
hints = (
{
horizontal = 1;
place = "{80.776, 172.507}";
type = Stem;
},
{
horizontal = 1;
place = "{333.787, 23.001}";
type = Stem;
},
{
horizontal = 1;
place = "{713.302, 80.503}";
type = Stem;
},
{
place = "{0.032, 977.54}";
type = Stem;
}
);
layerId = "1C9972D2-AAA2-4EE5-9F28-188B121D2056";
paths = (
{
closed = 1;
nodes = (
"98.52 -0.25 LINE",
"266.852 252.985 LINE",
"494.959 252.985 LINE",
"494.959 -0.25 LINE",
"978.407 -0.25 LINE",
"978.407 80.325 LINE",
"581.289 80.325 LINE",
"581.289 299.028 LINE",
"943.875 299.028 LINE",
"943.875 379.602 LINE",
"581.289 379.602 LINE",
"581.289 632.837 LINE",
"978.407 632.837 LINE",
"978.407 713.412 LINE",
"474.389 713.412 LINE",
"0 -0.25 LINE"
);
},
{
closed = 1;
nodes = (
"494.959 596.153 LINE",
"494.959 333.56 LINE",
"320.411 333.56 LINE"
);
}
);
width = 1008;
},
{
layerId = "033ADDEA-23CB-49AC-A4FC-FA912A776280";
paths = (
{
closed = 1;
nodes = (
"58 0 LINE",
"269 253 LINE",
"497 253 LINE",
"455 0 LINE",
"938 0 LINE",
"952 80 LINE",
"555 80 LINE",
"591 299 LINE",
"953 299 LINE",
"967 380 LINE",
"604 380 LINE",
"646 633 LINE",
"1043 633 LINE",
"1057 713 LINE",
"552 713 LINE",
"-40 0 LINE"
);
},
{
closed = 1;
nodes = (
"554 596 LINE",
"510 334 LINE",
"336 334 LINE"
);
}
);
width = 1009;
}
);
leftKerningGroup = A;
leftMetricsKey = A;
rightKerningGroup = A;
rightMetricsKey = E;
unicode = 00C6;
},
{
glyphname = B;
lastChange = "2020-03-10 21:49:07 +0000";
layers = (
{
guideLines = (
{
position = "{34, 713}";
},
{
position = "{-44, 483}";
},
{
position = "{-43, 495}";
},
{
position = "{34, 725}";
},
{
position = "{34, 0}";
},
{
position = "{34, -12}";
},
{
position = "{34, 771}";
},
{
position = "{34, 943}";
},
{
position = "{34, -230}";
},
{
position = "{48, -242}";
}
);
layerId = "1C9972D2-AAA2-4EE5-9F28-188B121D2056";
paths = (
{
closed = 1;
nodes = (
"85 -2 LINE",
"85 713 LINE",
"167 713 LINE",
"167 -2 LINE"
);
},
{
closed = 1;
nodes = (
"617 65 OFFCURVE",
"517 -2 OFFCURVE",
"381 -2 CURVE SMOOTH",
"121 -2 LINE",
"121 74 LINE",
"377 74 LINE SMOOTH",
"465 74 OFFCURVE",
"531 113 OFFCURVE",
"531 199 CURVE SMOOTH",
"531 281 OFFCURVE",
"473 330 OFFCURVE",
"376 330 CURVE SMOOTH",
"125 330 LINE",
"125 406 LINE",
"365 406 LINE SMOOTH",
"444 406 OFFCURVE",
"496 450 OFFCURVE",
"496 525 CURVE SMOOTH",
"496 596 OFFCURVE",
"446 637 OFFCURVE",
"360 637 CURVE SMOOTH",
"125 637 LINE",
"125 713 LINE",
"365 713 LINE SMOOTH",
"486 713 OFFCURVE",
"583 651 OFFCURVE",
"583 530 CURVE SMOOTH",
"583 427 OFFCURVE",
"516 363 OFFCURVE",
"401 352 CURVE",
"407 389 LINE",
"533 382 OFFCURVE",
"617 318 OFFCURVE",
"617 199 CURVE SMOOTH"
);
}
);
width = 662;
},
{
layerId = "033ADDEA-23CB-49AC-A4FC-FA912A776280";
paths = (
{
closed = 1;
nodes = (
"45 -2 LINE",
"163 713 LINE",
"245 713 LINE",
"127 -2 LINE"
);
},
{
closed = 1;
nodes = (
"588 65 OFFCURVE",
"477 -2 OFFCURVE",
"341 -2 CURVE SMOOTH",
"81 -2 LINE",
"93 74 LINE",
"349 74 LINE SMOOTH",
"437 74 OFFCURVE",
"510 113 OFFCURVE",
"524 199 CURVE SMOOTH",
"538 281 OFFCURVE",
"488 330 OFFCURVE",
"391 330 CURVE SMOOTH",
"140 330 LINE",
"152 406 LINE",
"392 406 LINE SMOOTH",
"471 406 OFFCURVE",
"530 450 OFFCURVE",
"543 525 CURVE SMOOTH",
"555 596 OFFCURVE",
"511 637 OFFCURVE",
"425 637 CURVE SMOOTH",
"190 637 LINE",
"203 713 LINE",
"443 713 LINE SMOOTH",
"564 713 OFFCURVE",
"651 651 OFFCURVE",
"631 530 CURVE SMOOTH",
"614 427 OFFCURVE",
"536 363 OFFCURVE",
"419 352 CURVE",
"431 389 LINE",
"556 382 OFFCURVE",
"630 318 OFFCURVE",
"610 199 CURVE SMOOTH"
);
}
);
width = 662;
}
);
leftMetricsKey = H;
unicode = 0042;
},
{
glyphname = C;
lastChange = "2020-03-10 21:49:07 +0000";
layers = (
{
guideLines = (
{
position = "{2, 713}";
},
{
position = "{51, 483}";
},
{
position = "{19, 495}";
},
{
position = "{2, 725}";
},
{
position = "{2, 0}";
},
{
position = "{2, -12}";
},
{
position = "{2, 771}";
},
{
position = "{2, 943}";
},
{
position = "{2, -230}";
},
{
position = "{16, -242}";
}
);
layerId = "1C9972D2-AAA2-4EE5-9F28-188B121D2056";
paths = (
{
closed = 1;
nodes = (
"531 -12 OFFCURVE",
"624 59 OFFCURVE",
"671 125 CURVE",
"686 148 LINE",
"619 194 LINE",
"606 174 LINE",
"566 118 OFFCURVE",
"497 64 OFFCURVE",
"388 64 CURVE",
"211 64 OFFCURVE",
"124 207 OFFCURVE",
"124 357 CURVE",
"124 521 OFFCURVE",
"223 647 OFFCURVE",
"376 648 CURVE",
"514 648 OFFCURVE",
"564 600 OFFCURVE",
"611 534 CURVE",
"621 522 LINE",
"684 568 LINE",
"670 587 LINE",
"616 660 OFFCURVE",
"531 725 OFFCURVE",
"376 724 CURVE",
"173 725 OFFCURVE",
"40 567 OFFCURVE",
"40 356 CURVE",
"40 153 OFFCURVE",
"173 -12 OFFCURVE",
"388 -12 CURVE"
);
}
);
width = 726;
},
{
layerId = "033ADDEA-23CB-49AC-A4FC-FA912A776280";
paths = (
{
closed = 1;
nodes = (
"494 -12 OFFCURVE",
"599 59 OFFCURVE",
"657 125 CURVE",
"676 148 LINE",
"616 194 LINE",
"600 174 LINE",
"551 118 OFFCURVE",
"473 64 OFFCURVE",
"364 64 CURVE",
"187 64 OFFCURVE",
"123 207 OFFCURVE",
"148 357 CURVE",
"175 521 OFFCURVE",
"295 647 OFFCURVE",
"448 648 CURVE",
"586 648 OFFCURVE",
"628 600 OFFCURVE",
"664 534 CURVE",
"672 522 LINE",
"743 568 LINE",
"732 587 LINE",
"690 660 OFFCURVE",
"616 725 OFFCURVE",
"461 724 CURVE",
"258 725 OFFCURVE",
"99 567 OFFCURVE",
"64 356 CURVE",
"30 153 OFFCURVE",
"136 -12 OFFCURVE",
"351 -12 CURVE"
);
}
);
width = 736;
}
);
leftMetricsKey = O;
rightMetricsKey = O;
unicode = 0043;
},
{
glyphname = D;
lastChange = "2020-03-10 21:49:07 +0000";
layers = (
{
guideLines = (
{
position = "{32, 713}";
},
{
position = "{81, 483}";
},
{
position = "{49, 495}";
},
{
position = "{32, 725}";
},
{
position = "{32, 0}";
},
{
position = "{32, -12}";
},
{
position = "{32, 771}";
},
{
position = "{32, 943}";
},
{
position = "{32, -230}";
},
{
position = "{46, -242}";
}
);
layerId = "1C9972D2-AAA2-4EE5-9F28-188B121D2056";
paths = (
{
closed = 1;
nodes = (
"307 0 LINE",
"504 0 OFFCURVE",
"660 133 OFFCURVE",
"660 354 CURVE",
"660 572 OFFCURVE",
"504 713 OFFCURVE",
"307 713 CURVE",
"85 712 LINE",
"85 0 LINE"
);
},
{
closed = 1;
nodes = (
"167 637 LINE",
"308 638 LINE",
"457 638 OFFCURVE",
"575 521 OFFCURVE",
"575 354 CURVE",
"575 183 OFFCURVE",
"457 74 OFFCURVE",
"308 74 CURVE",
"167 75 LINE"
);
}
);
width = 700;
},
{
layerId = "033ADDEA-23CB-49AC-A4FC-FA912A776280";
paths = (
{
closed = 1;
nodes = (
"267 0 LINE",
"464 0 OFFCURVE",
"642 133 OFFCURVE",
"679 354 CURVE",
"715 572 OFFCURVE",
"582 713 OFFCURVE",
"385 713 CURVE",
"163 712 LINE",
"45 0 LINE"
);
},
{
closed = 1;
nodes = (
"232 637 LINE",
"374 638 LINE",
"523 638 OFFCURVE",
"621 521 OFFCURVE",
"594 354 CURVE",
"565 183 OFFCURVE",
"429 74 OFFCURVE",
"280 74 CURVE",
"139 75 LINE"
);
}
);
width = 705;
}
);
leftMetricsKey = B;
rightMetricsKey = O;
unicode = 0044;
},
{
glyphname = E;
lastChange = "2020-03-10 21:49:07 +0000";
layers = (
{
guideLines = (
{
position = "{7, 713}";
},
{
position = "{56, 483}";
},
{
position = "{24, 495}";
},
{
position = "{7, 725}";
},
{
position = "{7, 0}";
},
{
position = "{7, -12}";
},
{
position = "{7, 771}";
},
{
position = "{7, 943}";
},
{
position = "{7, -230}";
},
{
position = "{21, -242}";
},
{
position = "{167, 617}";
}
);
layerId = "1C9972D2-AAA2-4EE5-9F28-188B121D2056";
paths = (
{
closed = 1;
nodes = (
"586 0 LINE",
"586 76 LINE",
"167 76 LINE",
"167 335 LINE",
"477 335 LINE",
"477 411 LINE",
"167 411 LINE",
"167 637 LINE",
"577 637 LINE",
"577 713 LINE",
"85 713 LINE",
"85 0 LINE"
);
}
);
width = 616;
},
{
layerId = "033ADDEA-23CB-49AC-A4FC-FA912A776280";
paths = (
{
closed = 1;
nodes = (
"546 0 LINE",
"559 76 LINE",
"140 76 LINE",
"182 335 LINE",
"492 335 LINE",
"505 411 LINE",
"195 411 LINE",
"232 637 LINE",
"642 637 LINE",
"655 713 LINE",
"163 713 LINE",
"45 0 LINE"
);
}
);
width = 616;
}
);
leftMetricsKey = B;
unicode = 0045;
},
{
glyphname = F;
lastChange = "2020-03-10 21:49:07 +0000";
layers = (
{
guideLines = (
{
position = "{1, 713}";
},
{
position = "{50, 483}";
},
{
position = "{18, 495}";
},
{
position = "{1, 725}";
},
{
position = "{1, 0}";
},
{
position = "{1, -12}";
},
{
position = "{1, 771}";
},
{
position = "{1, 943}";
},
{
position = "{1, -230}";
},
{
position = "{15, -242}";
}
);
layerId = "1C9972D2-AAA2-4EE5-9F28-188B121D2056";
paths = (
{
closed = 1;
nodes = (
"167 0 LINE",
"167 321 LINE",
"479 321 LINE",
"479 394 LINE",
"167 394 LINE",
"167 637 LINE",
"580 637 LINE",
"580 713 LINE",
"85 713 LINE",
"85 0 LINE"
);
}
);
width = 610;
},
{
layerId = "033ADDEA-23CB-49AC-A4FC-FA912A776280";
paths = (
{
closed = 1;
nodes = (
"127 0 LINE",
"180 321 LINE",
"492 321 LINE",
"504 394 LINE",
"192 394 LINE",
"232 637 LINE",
"645 637 LINE",
"658 713 LINE",
"163 713 LINE",
"45 0 LINE"
);
}
);
width = 540;
}
);
leftMetricsKey = B;
unicode = 0046;
},
{
glyphname = G;
lastChange = "2020-03-10 21:49:07 +0000";
layers = (
{
guideLines = (
{
position = "{0, 713}";
},
{
position = "{49, 483}";
},
{
position = "{17, 495}";
},
{
position = "{0, 725}";
},
{
position = "{0, 0}";
},
{
position = "{0, -12}";
},
{
position = "{0, 771}";
},
{
position = "{0, 943}";
},
{
position = "{0, -230}";
},
{
position = "{14, -242}";
}
);
layerId = "1C9972D2-AAA2-4EE5-9F28-188B121D2056";
paths = (
{
closed = 1;
nodes = (
"565 -12 OFFCURVE",
"741 114 OFFCURVE",
"725 370 CURVE",
"327 370 LINE",
"327 292 LINE",
"640 292 LINE",
"620 164 OFFCURVE",
"545 64 OFFCURVE",
"389 64 CURVE",
"207 64 OFFCURVE",
"122 206 OFFCURVE",
"122 356 CURVE",
"122 505 OFFCURVE",
"211 648 OFFCURVE",
"387 648 CURVE",
"489 648 OFFCURVE",
"556 604 OFFCURVE",
"609 537 CURVE",
"621 521 LINE",
"684 568 LINE",
"670 587 LINE",
"612 656 OFFCURVE",
"527 725 OFFCURVE",
"389 725 CURVE",
"178 725 OFFCURVE",
"40 558 OFFCURVE",
"40 355 CURVE",
"40 152 OFFCURVE",
"185 -12 OFFCURVE",
"389 -12 CURVE"
);
}
);
width = 766;
},
{
layerId = "033ADDEA-23CB-49AC-A4FC-FA912A776280";
paths = (
{
closed = 1;
nodes = (
"528 -12 OFFCURVE",
"725 114 OFFCURVE",
"751 370 CURVE",
"353 370 LINE",
"340 292 LINE",
"653 292 LINE",
"612 164 OFFCURVE",
"521 64 OFFCURVE",
"365 64 CURVE",
"183 64 OFFCURVE",
"121 206 OFFCURVE",
"146 356 CURVE",
"171 505 OFFCURVE",
"283 648 OFFCURVE",
"459 648 CURVE",
"561 648 OFFCURVE",
"621 604 OFFCURVE",
"663 537 CURVE",
"672 521 LINE",
"743 568 LINE",
"732 587 LINE",
"686 656 OFFCURVE",
"612 725 OFFCURVE",
"474 725 CURVE",
"263 725 OFFCURVE",
"97 558 OFFCURVE",
"64 355 CURVE",
"30 152 OFFCURVE",
"148 -12 OFFCURVE",
"352 -12 CURVE"
);
}
);
width = 776;
}
);
leftMetricsKey = O;
rightMetricsKey = O;
unicode = 0047;
},
{
glyphname = H;
lastChange = "2020-03-10 21:49:07 +0000";
layers = (
{
guideLines = (
{
position = "{0, 713}";
},
{
position = "{49, 483}";
},
{
position = "{17, 495}";
},
{
position = "{0, 725}";
},
{
position = "{0, 0}";
},
{
position = "{0, -12}";
},
{
position = "{0, 771}";
},
{
position = "{0, 943}";
},
{
position = "{0, -230}";
},
{
position = "{14, -242}";
}
);
layerId = "1C9972D2-AAA2-4EE5-9F28-188B121D2056";
paths = (
{
closed = 1;
nodes = (
"167 0 LINE",
"167 338 LINE",
"582 338 LINE",
"582 0 LINE",
"664 0 LINE",
"664 713 LINE",
"582 713 LINE",
"582 412 LINE",
"167 412 LINE",
"167 713 LINE",
"85 713 LINE",
"85 0 LINE"
);
}
);
width = 749;
},
{
layerId = "033ADDEA-23CB-49AC-A4FC-FA912A776280";
paths = (
{
closed = 1;
nodes = (
"127 0 LINE",
"183 338 LINE",
"598 338 LINE",
"542 0 LINE",
"624 0 LINE",
"742 713 LINE",
"660 713 LINE",
"610 412 LINE",
"195 412 LINE",
"245 713 LINE",
"163 713 LINE",
"45 0 LINE"
);
}
);
width = 749;
}
);
unicode = 0048;
},
{
glyphname = I;
lastChange = "2020-03-10 21:49:07 +0000";
layers = (
{
guideLines = (
{
position = "{5, 713}";
},
{
position = "{54, 483}";
},
{
position = "{22, 495}";
},
{
position = "{5, 725}";
},
{
position = "{5, 0}";
},
{
position = "{5, -12}";
},
{
position = "{5, 771}";
},
{
position = "{5, 943}";
},
{
position = "{5, -230}";
},
{
position = "{19, -242}";
}
);
hints = (
{
horizontal = 1;
place = "{0.1, 21}";
target = up;
type = BottomGhost;
}
);
layerId = "1C9972D2-AAA2-4EE5-9F28-188B121D2056";
paths = (
{
closed = 1;
nodes = (
"167 0 LINE",
"167 713 LINE",
"85 713 LINE",
"85 0 LINE"
);
}
);
width = 252;
},
{
layerId = "033ADDEA-23CB-49AC-A4FC-FA912A776280";
paths = (
{
closed = 1;
nodes = (
"127 0 LINE",
"245 713 LINE",
"163 713 LINE",
"45 0 LINE"
);
}
);
width = 252;
}
);
leftMetricsKey = H;
rightMetricsKey = H;
unicode = 0049;
},
{
glyphname = J;
lastChange = "2020-03-10 21:49:07 +0000";
layers = (
{
guideLines = (
{
position = "{-5, 713}";
},
{
position = "{-5, 483}";
},
{
position = "{-5, 495}";
},
{
position = "{-5, 725}";
},
{
position = "{13, 0}";
},
{
angle = 180;
position = "{65, -12}";
},
{
position = "{-5, 771}";
},
{
position = "{127, 943}";
},
{
position = "{127, -230}";
},
{
position = "{141, -242}";
}
);
layerId = "1C9972D2-AAA2-4EE5-9F28-188B121D2056";
paths = (
{
closed = 1;
nodes = (
"442 -12 OFFCURVE",
"565 62 OFFCURVE",
"565 218 CURVE SMOOTH",
"564 713 LINE",
"484 713 LINE",
"484 219 LINE SMOOTH",
"484 89 OFFCURVE",
"396 64 OFFCURVE",
"333 64 CURVE SMOOTH",
"234 64 OFFCURVE",
"167 125 OFFCURVE",
"167 229 CURVE SMOOTH",
"167 378 LINE",
"85 378 LINE",
"85 228 LINE SMOOTH",
"85 62 OFFCURVE",
"224 -12 OFFCURVE",
"333 -12 CURVE SMOOTH"
);
},
{
closed = 1;
nodes = (
"564 639 LINE",
"564 713 LINE",
"224 713 LINE",
"224 639 LINE"
);
}
);
width = 650;
},
{
layerId = "033ADDEA-23CB-49AC-A4FC-FA912A776280";
paths = (
{
closed = 1;
nodes = (
"400 -12 OFFCURVE",
"535 62 OFFCURVE",
"561 218 CURVE SMOOTH",
"642 713 LINE",
"562 713 LINE",
"480 219 LINE SMOOTH",
"459 89 OFFCURVE",
"367 64 OFFCURVE",
"304 64 CURVE SMOOTH",
"205 64 OFFCURVE",
"148 125 OFFCURVE",
"165 229 CURVE SMOOTH",
"190 378 LINE",
"108 378 LINE",
"83 228 LINE SMOOTH",
"55 62 OFFCURVE",
"182 -12 OFFCURVE",
"291 -12 CURVE SMOOTH"
);
},
{
closed = 1;
nodes = (
"630 639 LINE",
"642 713 LINE",
"302 713 LINE",
"290 639 LINE"
);
}
);
width = 650;
}
);
leftMetricsKey = I;
rightMetricsKey = H;
unicode = 004A;
},
{
glyphname = K;
lastChange = "2020-03-10 21:49:07 +0000";
layers = (
{
guideLines = (
{
position = "{4, 713}";
},
{
position = "{50, 483}";
},
{
position = "{18, 495}";
},
{
position = "{1, 725}";
},
{
position = "{1, 0}";
},
{
position = "{1, -12}";
},
{
position = "{1, 771}";
},
{
position = "{1, 943}";
},
{
position = "{1, -230}";
},
{
position = "{15, -242}";
},
{
position = "{-40, 703}";
},
{
position = "{-10, 10}";
},
{
angle = 270;
position = "{624, 5}";
}
);
layerId = "1C9972D2-AAA2-4EE5-9F28-188B121D2056";
paths = (
{
closed = 1;
nodes = (
"167 0 LINE",
"167 223 LINE",
"297 352 LINE",
"563 0 LINE",
"654 0 LINE",
"654 10 LINE",
"352 408 LINE",
"621 703 LINE",
"621 713 LINE",
"526 713 LINE",
"167 322 LINE",
"167 713 LINE",
"85 713 LINE",
"85 0 LINE"
);
}
);
width = 659;
},
{
layerId = "033ADDEA-23CB-49AC-A4FC-FA912A776280";
paths = (
{
closed = 1;
nodes = (
"127 0 LINE",
"164 223 LINE",
"315 352 LINE",
"523 0 LINE",
"614 0 LINE",
"616 10 LINE",
"380 408 LINE",
"697 703 LINE",
"699 713 LINE",
"604 713 LINE",
"180 322 LINE",
"245 713 LINE",
"163 713 LINE",
"45 0 LINE"
);
}
);
width = 659;
}
);
unicode = 004B;
},
{
glyphname = L;
lastChange = "2020-03-10 21:49:07 +0000";
layers = (
{
guideLines = (
{
position = "{-55, 713}";
},
{
position = "{-55, 483}";
},
{
position = "{-55, 495}";
},
{
position = "{-55, 725}";
},
{
position = "{-55, 0}";
},
{
position = "{-55, -12}";
},
{
position = "{-55, 771}";
},
{
position = "{-55, 943}";
},
{
position = "{-55, -230}";
},
{
position = "{-55, -242}";
}
);
hints = (
{
horizontal = 1;
place = "{712.637, -20}";
target = down;
type = TopGhost;
}
);
layerId = "1C9972D2-AAA2-4EE5-9F28-188B121D2056";
paths = (
{
closed = 1;
nodes = (
"580 0 LINE",
"580 74 LINE",
"167 74 LINE",
"168 713 LINE",
"85 713 LINE",
"85 0 LINE"
);
}
);
width = 610;
},
{
layerId = "033ADDEA-23CB-49AC-A4FC-FA912A776280";
paths = (
{
closed = 1;
nodes = (
"540 0 LINE",
"552 74 LINE",
"139 74 LINE",
"246 713 LINE",
"163 713 LINE",
"45 0 LINE"
);
}
);
width = 610;
}
);
leftMetricsKey = H;
unicode = 004C;
},
{
glyphname = M;
lastChange = "2020-03-10 21:49:07 +0000";
layers = (
{
guideLines = (
{
position = "{17, 713}";
},
{
position = "{17, 483}";
},
{
position = "{17, 495}";
},
{
position = "{17, 725}";
},
{
position = "{17, 0}";
},
{
position = "{17, -12}";
},
{
position = "{17, 771}";
},
{
position = "{16, 943}";
},
{
position = "{17, -230}";
},
{
position = "{17, -242}";
},
{
position = "{160, 569}";
},
{
angle = 180;
position = "{168, 554}";
}
);
layerId = "1C9972D2-AAA2-4EE5-9F28-188B121D2056";
paths = (
{
closed = 1;
nodes = (
"85 0 LINE",
"85 713 LINE",
"162 713 LINE",
"163 0 LINE"
);
},
{
closed = 1;
nodes = (
"747 0 LINE",
"669 0 LINE",
"669 713 LINE",
"747 713 LINE"
);
},
{
closed = 1;
nodes = (
"436 264 LINE",
"395 264 LINE",
"94 659 LINE",
"122 713 LINE",
"162 713 LINE",
"444 325 LINE",
"389 326 LINE",
"669 713 LINE",
"708 713 LINE",
"735 656 LINE"
);
}
);
width = 832;
},
{
layerId = "033ADDEA-23CB-49AC-A4FC-FA912A776280";
paths = (
{
closed = 1;
nodes = (
"45 0 LINE",
"163 713 LINE",
"240 713 LINE",
"123 0 LINE"
);
},
{
closed = 1;
nodes = (
"707 0 LINE",
"629 0 LINE",
"747 713 LINE",
"825 713 LINE"
);
},
{
closed = 1;
nodes = (
"440 264 LINE",
"399 264 LINE",
"163 659 LINE",
"200 713 LINE",
"240 713 LINE",
"458 325 LINE",
"403 326 LINE",
"747 713 LINE",
"786 713 LINE",
"804 656 LINE"
);
}
);
width = 832;
}
);
leftMetricsKey = H;
rightMetricsKey = H;
unicode = 004D;
},
{
glyphname = N;
lastChange = "2020-03-10 23:39:33 +0000";
layers = (
{
guideLines = (
{
position = "{-18, 713}";
},
{
position = "{31, 483}";
},
{
position = "{-1, 495}";
},
{
position = "{-18, 725}";
},
{
position = "{-18, 0}";
},
{
position = "{-18, -12}";
},
{
position = "{-18, 771}";
},
{
position = "{-18, 943}";
},
{
position = "{-18, -230}";
},
{
position = "{-4, -242}";
}
);
layerId = "1C9972D2-AAA2-4EE5-9F28-188B121D2056";
paths = (
{
closed = 1;
nodes = (
"601 0 LINE",
"645 18 LINE",
"173 713 LINE",
"138 713 LINE",
"113 669 LINE",
"561 0 LINE"
);
},
{
closed = 1;
nodes = (
"165 0 LINE",
"165 713 LINE",
"85 713 LINE",
"85 0 LINE"
);
},
{
closed = 1;
nodes = (
"654 0 LINE",
"654 713 LINE",
"574 713 LINE",
"574 0 LINE"
);
}
);
width = 739;
},
{
layerId = "033ADDEA-23CB-49AC-A4FC-FA912A776280";
paths = (
{
closed = 1;
nodes = (
"561 0 LINE",
"608 18 LINE",
"251 713 LINE",
"216 713 LINE",
"184 669 LINE",
"521 0 LINE"
);
},
{
closed = 1;
nodes = (
"125 0 LINE",
"243 713 LINE",
"163 713 LINE",
"45 0 LINE"
);
},
{
closed = 1;
nodes = (
"614 0 LINE",
"732 713 LINE",
"652 713 LINE",
"534 0 LINE"
);
}
);
width = 739;
}
);
leftMetricsKey = H;
rightMetricsKey = H;
unicode = 004E;
},
{
glyphname = Eng;
lastChange = "2020-03-10 21:49:07 +0000";
layers = (
{
components = (
{
name = N;
}
);
guideLines = (
{
position = "{0, 713}";
},
{
position = "{49.408, 483}";
},
{
position = "{16.594, 495}";
},
{
position = "{0, 725}";
},
{
position = "{0, 0}";
},
{
position = "{0, -12}";
},
{
position = "{0, 771}";
},
{
position = "{0, 943}";
},
{
position = "{0, -230}";
},
{
position = "{14.371, -242}";
}
);
layerId = "1C9972D2-AAA2-4EE5-9F28-188B121D2056";
paths = (
{
closed = 1;
nodes = (
"500 -170 LINE",
"584 -170 OFFCURVE",
"652 -103 OFFCURVE",
"652 -20 CURVE",
"652 73 LINE",
"562 73 LINE",
"565 -19 LINE",
"565 -65 OFFCURVE",
"531 -99 OFFCURVE",
"492 -99 CURVE",
"332 -99 LINE",
"332 -170 LINE"
);
}
);
width = 739;
},
{
components = (
{
name = N;
}
);
layerId = "033ADDEA-23CB-49AC-A4FC-FA912A776280";
paths = (
{
closed = 1;
nodes = (
"434 -170 LINE",
"518 -170 OFFCURVE",
"597 -103 OFFCURVE",
"611 -20 CURVE",
"626 73 LINE",
"536 73 LINE",
"524 -19 LINE",
"516 -65 OFFCURVE",
"477 -99 OFFCURVE",
"438 -99 CURVE",
"278 -99 LINE",
"266 -170 LINE"
);
}
);
width = 739;
}
);
leftKerningGroup = N;
leftMetricsKey = N;
rightKerningGroup = N;
rightMetricsKey = N;
unicode = 014A;
},
{
glyphname = O;
lastChange = "2020-03-10 21:49:07 +0000";
layers = (
{
guideLines = (
{
position = "{-18, 713}";
},
{
position = "{31, 483}";
},
{
position = "{-1, 495}";
},
{
position = "{-18, 725}";
},
{
position = "{-18, 0}";
},
{
position = "{-18, -12}";
},
{
position = "{-18, 771}";
},
{
position = "{-18, 943}";
},
{
position = "{-18, -230}";
},
{
position = "{-4, -242}";
}
);
layerId = "1C9972D2-AAA2-4EE5-9F28-188B121D2056";
paths = (
{
closed = 1;
nodes = (
"609 -12 OFFCURVE",
"741 153 OFFCURVE",
"741 356 CURVE SMOOTH",
"741 559 OFFCURVE",
"606 725 OFFCURVE",
"389 725 CURVE SMOOTH",
"173 725 OFFCURVE",
"40 559 OFFCURVE",
"40 356 CURVE SMOOTH",
"40 153 OFFCURVE",
"170 -12 OFFCURVE",
"389 -12 CURVE SMOOTH"
);
},
{
closed = 1;
nodes = (
"208 64 OFFCURVE",
"124 207 OFFCURVE",
"124 357 CURVE SMOOTH",
"124 506 OFFCURVE",
"207 649 OFFCURVE",
"390 649 CURVE SMOOTH",
"572 649 OFFCURVE",
"657 506 OFFCURVE",
"657 357 CURVE SMOOTH",
"657 207 OFFCURVE",
"571 64 OFFCURVE",
"390 64 CURVE SMOOTH"
);
}
);
width = 781;
},
{
layerId = "033ADDEA-23CB-49AC-A4FC-FA912A776280";
paths = (
{
closed = 1;
nodes = (
"572 -12 OFFCURVE",
"731 153 OFFCURVE",
"765 356 CURVE SMOOTH",
"799 559 OFFCURVE",
"691 725 OFFCURVE",
"474 725 CURVE SMOOTH",
"258 725 OFFCURVE",
"98 559 OFFCURVE",
"64 356 CURVE SMOOTH",
"30 153 OFFCURVE",
"133 -12 OFFCURVE",
"352 -12 CURVE SMOOTH"
);
},
{
closed = 1;
nodes = (
"184 64 OFFCURVE",
"123 207 OFFCURVE",
"148 357 CURVE SMOOTH",
"173 506 OFFCURVE",
"279 649 OFFCURVE",
"462 649 CURVE SMOOTH",
"644 649 OFFCURVE",
"706 506 OFFCURVE",
"681 357 CURVE SMOOTH",
"656 207 OFFCURVE",
"547 64 OFFCURVE",
"366 64 CURVE SMOOTH"
);
}
);
width = 791;
}
);
leftKerningGroup = at;
rightKerningGroup = at;
unicode = 004F;
},
{
glyphname = P;
lastChange = "2020-03-10 21:49:07 +0000";
layers = (
{
guideLines = (
{
position = "{-48, 713}";
},
{
position = "{-27, 483}";
},
{
position = "{-24, 495}";
},
{
position = "{83, 725}";
},
{
position = "{-48, 0}";
},
{
position = "{83, -12}";
},
{
position = "{83, 771}";
},
{
position = "{83, 943}";
},
{
position = "{83, -230}";
},
{
position = "{97, -242}";
}
);
layerId = "1C9972D2-AAA2-4EE5-9F28-188B121D2056";
paths = (
{
closed = 1;
nodes = (
"169 0 LINE",
"169 280 LINE",
"358 280 LINE",
"528 280 OFFCURVE",
"605 380 OFFCURVE",
"605 495 CURVE",
"605 586 OFFCURVE",
"556 717 OFFCURVE",
"356 717 CURVE",
"85 717 LINE",
"85 0 LINE"
);
},
{
closed = 1;
nodes = (
"169 641 LINE",
"356 641 LINE",
"414 641 OFFCURVE",
"522 631 OFFCURVE",
"522 495 CURVE",
"522 411 OFFCURVE",
"480 354 OFFCURVE",
"372 354 CURVE",
"169 354 LINE"
);
}
);
width = 635;
},
{
layerId = "033ADDEA-23CB-49AC-A4FC-FA912A776280";
paths = (
{
closed = 1;
nodes = (
"129 0 LINE",
"175 280 LINE",
"364 280 LINE",
"534 280 OFFCURVE",
"628 380 OFFCURVE",
"647 495 CURVE",
"662 586 OFFCURVE",
"635 717 OFFCURVE",
"435 717 CURVE",
"164 717 LINE",
"45 0 LINE"
);
},
{
closed = 1;
nodes = (
"235 641 LINE",
"422 641 LINE",
"480 641 OFFCURVE",
"586 631 OFFCURVE",
"564 495 CURVE",
"550 411 OFFCURVE",
"499 354 OFFCURVE",
"391 354 CURVE",
"188 354 LINE"
);
}
);
width = 635;
}
);
leftMetricsKey = H;
rightKerningGroup = P;
unicode = 0050;
},
{
glyphname = Thorn;
lastChange = "2020-03-10 21:49:07 +0000";
layers = (
{
guideLines = (
{
position = "{85, 713}";
},
{
position = "{134, 483}";
},
{
position = "{102, 495}";
},
{
position = "{85, 725}";
},
{
position = "{85, 0}";
},
{
position = "{85, -12}";
},
{
position = "{85, 771}";
},
{
position = "{85, 943}";
},
{
position = "{85, -230}";
},
{
position = "{99, -242}";
}
);
layerId = "1C9972D2-AAA2-4EE5-9F28-188B121D2056";
paths = (
{
closed = 1;
nodes = (
"171 0 LINE",
"171 174 LINE",
"368 174 LINE",
"473 174 OFFCURVE",
"558 258 OFFCURVE",
"558 363 CURVE",
"558 468 OFFCURVE",
"473 553 OFFCURVE",
"368 553 CURVE",
"172 553 LINE",
"173 716 LINE",
"85 713 LINE",
"85 593 LINE",
"85 0 LINE"
);
},
{
closed = 1;
nodes = (
"171 472 LINE",
"366 472 LINE",
"424 472 OFFCURVE",
"472 423 OFFCURVE",
"472 363 CURVE",
"472 303 OFFCURVE",
"424 254 OFFCURVE",
"366 254 CURVE",
"171 254 LINE"
);
}
);
width = 588;
},
{
layerId = "033ADDEA-23CB-49AC-A4FC-FA912A776280";
paths = (
{
closed = 1;
nodes = (
"131 0 LINE",
"160 174 LINE",
"357 174 LINE",
"462 174 OFFCURVE",
"561 258 OFFCURVE",
"578 363 CURVE",
"595 468 OFFCURVE",
"525 553 OFFCURVE",
"420 553 CURVE",
"224 553 LINE",
"252 716 LINE",
"163 713 LINE",
"143 593 LINE",
"45 0 LINE"
);
},
{
closed = 1;
nodes = (
"209 472 LINE",
"404 472 LINE",
"462 472 OFFCURVE",
"502 423 OFFCURVE",
"492 363 CURVE",
"482 303 OFFCURVE",
"426 254 OFFCURVE",
"368 254 CURVE",
"173 254 LINE"
);
}
);
width = 588;
}
);
leftKerningGroup = P;
leftMetricsKey = P;
rightKerningGroup = P;
rightMetricsKey = P;
unicode = 00DE;
},
{
glyphname = Q;
lastChange = "2020-03-10 21:49:07 +0000";
layers = (
{
components = (
{
name = O;
}
);
guideLines = (
{
position = "{0, 713}";
},
{
position = "{49.408, 483}";
},
{
position = "{16.594, 495}";
},
{
position = "{0, 725}";
},
{
position = "{0, 0}";
},
{
position = "{0, -12}";
},
{
position = "{0, 771}";
},
{
position = "{0, 943}";
},
{
position = "{0, -230}";
},
{
position = "{14.371, -242}";
}
);
layerId = "1C9972D2-AAA2-4EE5-9F28-188B121D2056";
paths = (
{
closed = 1;
nodes = (
"770 -17 LINE",
"463 304 LINE",
"409 252 LINE",
"724 -67 LINE"
);
}
);
width = 810;
},
{
components = (
{
name = O;
}
);
layerId = "033ADDEA-23CB-49AC-A4FC-FA912A776280";
paths = (
{
closed = 1;
nodes = (
"770 -17 LINE",
"463 304 LINE",
"409 252 LINE",
"724 -67 LINE"
);
}
);
width = 858;
}
);
leftMetricsKey = O;
rightMetricsKey = O;
unicode = 0051;
},
{
glyphname = R;
lastChange = "2020-03-10 21:49:07 +0000";
layers = (
{
guideLines = (
{
position = "{41, 713}";
},
{
position = "{90, 483}";
},
{
position = "{58, 495}";
},
{
position = "{41, 725}";
},
{
position = "{41, 0}";
},
{
position = "{41, -12}";
},
{
position = "{41, 771}";
},
{
position = "{41, 943}";
},
{
position = "{41, -230}";
},
{
position = "{55, -242}";
}
);
layerId = "1C9972D2-AAA2-4EE5-9F28-188B121D2056";
paths = (
{
closed = 1;
nodes = (
"167 0 LINE",
"167 314 LINE",
"346 314 LINE",
"551 0 LINE",
"635 0 LINE",
"635 14 LINE",
"446 302 LINE",
"431 326 LINE SMOOTH",
"519 348 OFFCURVE",
"584 430 OFFCURVE",
"584 521 CURVE SMOOTH",
"584 634 OFFCURVE",
"486 713 OFFCURVE",
"381 713 CURVE SMOOTH",
"85 713 LINE",
"85 0 LINE"
);
},
{
closed = 1;
nodes = (
"167 637 LINE",
"374 637 LINE SMOOTH",
"452 637 OFFCURVE",
"500 581 OFFCURVE",
"500 521 CURVE SMOOTH",
"500 433 OFFCURVE",
"421 388 OFFCURVE",
"370 388 CURVE SMOOTH",
"167 388 LINE"
);
}
);
width = 675;
},
{
layerId = "033ADDEA-23CB-49AC-A4FC-FA912A776280";
paths = (
{
closed = 1;
nodes = (
"127 0 LINE",
"179 314 LINE",
"358 314 LINE",
"511 0 LINE",
"595 0 LINE",
"597 14 LINE",
"456 302 LINE",
"445 326 LINE SMOOTH",
"537 348 OFFCURVE",
"615 430 OFFCURVE",
"630 521 CURVE SMOOTH",
"649 634 OFFCURVE",
"564 713 OFFCURVE",
"459 713 CURVE SMOOTH",
"163 713 LINE",
"45 0 LINE"
);
},
{
closed = 1;
nodes = (
"232 637 LINE",
"439 637 LINE SMOOTH",
"517 637 OFFCURVE",
"556 581 OFFCURVE",
"546 521 CURVE SMOOTH",
"532 433 OFFCURVE",
"445 388 OFFCURVE",
"394 388 CURVE SMOOTH",
"191 388 LINE"
);
}
);
width = 675;
}
);
leftMetricsKey = H;
unicode = 0052;
},
{
glyphname = S;
lastChange = "2020-03-10 21:49:07 +0000";
layers = (
{
guideLines = (
{
position = "{-81, 713}";
},
{
position = "{-141, 483}";
},
{
position = "{-149, 495}";
},
{
position = "{-81, 725}";
},
{
position = "{-81, 0}";
},
{
position = "{-81, -12}";
},
{
position = "{-81, 771}";
},
{
position = "{-81, 943}";
},
{
position = "{-81, -230}";
},
{
position = "{-67, -242}";
}
);
layerId = "1C9972D2-AAA2-4EE5-9F28-188B121D2056";
paths = (
{
closed = 1;
nodes = (
"427 -12 OFFCURVE",
"524 73 OFFCURVE",
"524 189 CURVE",
"524 200 LINE SMOOTH",
"524 294 OFFCURVE",
"454 351 OFFCURVE",
"352 381 CURVE SMOOTH",
"270 405 LINE",
"245 413 LINE SMOOTH",
"195 429 OFFCURVE",
"122 460 OFFCURVE",
"122 525 CURVE",
"122 531 LINE SMOOTH",
"122 557 OFFCURVE",
"145 649 OFFCURVE",
"277 649 CURVE SMOOTH",
"336 649 OFFCURVE",
"386 630 OFFCURVE",
"431 587 CURVE",
"442 578 LINE",
"499 633 LINE",
"484 647 LINE",
"451 676 OFFCURVE",
"405 723 OFFCURVE",
"291 725 CURVE SMOOTH",
"79 729 OFFCURVE",
"36 576 OFFCURVE",
"36 542 CURVE SMOOTH",
"36 530 LINE",
"36 434 OFFCURVE",
"96 376 OFFCURVE",
"203 344 CURVE SMOOTH",
"288 319 LINE",
"333 304 LINE SMOOTH",
"387 287 OFFCURVE",
"439 254 OFFCURVE",
"439 202 CURVE SMOOTH",
"439 187 LINE",
"439 133 OFFCURVE",
"397 64 OFFCURVE",
"270 64 CURVE SMOOTH",
"190 64 OFFCURVE",
"133 91 OFFCURVE",
"84 139 CURVE",
"67 156 LINE",
"10 105 LINE",
"33 81 LINE",
"77 37 OFFCURVE",
"153 -12 OFFCURVE",
"272 -12 CURVE SMOOTH"
);
}
);
width = 534;
},
{
layerId = "033ADDEA-23CB-49AC-A4FC-FA912A776280";
paths = (
{
closed = 1;
nodes = (
"385 -12 OFFCURVE",
"496 73 OFFCURVE",
"515 189 CURVE",
"517 200 LINE SMOOTH",
"533 294 OFFCURVE",
"472 351 OFFCURVE",
"375 381 CURVE SMOOTH",
"297 405 LINE",
"273 413 LINE SMOOTH",
"226 429 OFFCURVE",
"158 460 OFFCURVE",
"169 525 CURVE",
"170 531 LINE SMOOTH",
"174 557 OFFCURVE",
"212 649 OFFCURVE",
"344 649 CURVE SMOOTH",
"403 649 OFFCURVE",
"450 630 OFFCURVE",
"488 587 CURVE",
"498 578 LINE",
"564 633 LINE",
"551 647 LINE",
"523 676 OFFCURVE",
"485 723 OFFCURVE",
"371 725 CURVE SMOOTH",
"160 729 OFFCURVE",
"91 576 OFFCURVE",
"86 542 CURVE SMOOTH",
"84 530 LINE",
"68 434 OFFCURVE",
"118 376 OFFCURVE",
"220 344 CURVE SMOOTH",
"301 319 LINE",
"343 304 LINE SMOOTH",
"395 287 OFFCURVE",
"441 254 OFFCURVE",
"432 202 CURVE SMOOTH",
"430 187 LINE",
"421 133 OFFCURVE",
"368 64 OFFCURVE",
"241 64 CURVE SMOOTH",
"161 64 OFFCURVE",
"108 91 OFFCURVE",
"67 139 CURVE",
"53 156 LINE",
"-13 105 LINE",
"6 81 LINE",
"43 37 OFFCURVE",
"111 -12 OFFCURVE",
"230 -12 CURVE SMOOTH"
);
}
);
width = 534;
}
);
unicode = 0053;
},
{
glyphname = Germandbls;
lastChange = "2020-03-10 21:49:07 +0000";
layers = (
{
guideLines = (
{
position = "{5, 713}";
},
{
position = "{54, 483}";
},
{
position = "{22, 495}";
},
{
position = "{5, 725}";
},
{
position = "{5, 0}";
},
{
position = "{5, -12}";
},
{
position = "{5, 771}";
},
{
position = "{5, 943}";
},
{
position = "{5, -230}";
},
{
position = "{19, -242}";
}
);
layerId = "1C9972D2-AAA2-4EE5-9F28-188B121D2056";
paths = (
{
closed = 1;
nodes = (
"171 0 LINE",
"171 517 LINE",
"171 581 OFFCURVE",
"223 632 OFFCURVE",
"286 632 CURVE",
"522 632 LINE",
"326 402 LINE",
"326 322 LINE",
"456 322 LINE",
"521 322 OFFCURVE",
"574 268 OFFCURVE",
"574 201 CURVE",
"574 134 OFFCURVE",
"521 80 OFFCURVE",
"456 80 CURVE",
"280 80 LINE",
"280 0 LINE",
"459 0 LINE",
"570 0 OFFCURVE",
"660 90 OFFCURVE",
"660 201 CURVE",
"660 312 OFFCURVE",
"570 402 OFFCURVE",
"459 402 CURVE",
"441 402 LINE",
"441 414 LINE",
"637 632 LINE",
"637 713 LINE",
"280 713 LINE",
"173 713 OFFCURVE",
"85 625 OFFCURVE",
"85 517 CURVE",
"85 0 LINE"
);
}
);
width = 745;
},
{
layerId = "033ADDEA-23CB-49AC-A4FC-FA912A776280";
paths = (
{
closed = 1;
nodes = (
"131 0 LINE",
"217 517 LINE",
"227 581 OFFCURVE",
"288 632 OFFCURVE",
"351 632 CURVE",
"587 632 LINE",
"353 402 LINE",
"339 322 LINE",
"469 322 LINE",
"534 322 OFFCURVE",
"578 268 OFFCURVE",
"567 201 CURVE",
"556 134 OFFCURVE",
"494 80 OFFCURVE",
"429 80 CURVE",
"253 80 LINE",
"240 0 LINE",
"419 0 LINE",
"530 0 OFFCURVE",
"635 90 OFFCURVE",
"653 201 CURVE",
"672 312 OFFCURVE",
"597 402 OFFCURVE",
"486 402 CURVE",
"468 402 LINE",
"470 414 LINE",
"702 632 LINE",
"715 713 LINE",
"358 713 LINE",
"251 713 OFFCURVE",
"148 625 OFFCURVE",
"131 517 CURVE",
"45 0 LINE"
);
}
);
width = 745;
}
);
leftKerningGroup = b;
leftMetricsKey = B;
rightKerningGroup = b;
rightMetricsKey = N;
unicode = 1E9E;
},
{
glyphname = uni018F;
lastChange = "2020-03-10 21:49:07 +0000";
layers = (
{
guideLines = (
{
position = "{0, 713}";
},
{
position = "{49.408, 483}";
},
{
position = "{16.594, 495}";
},
{
position = "{0, 725}";
},
{
position = "{0, 0}";
},
{
position = "{0, -12}";
},
{
position = "{0, 771}";
},
{
position = "{0, 943}";
},
{
position = "{0, -230}";
},
{
position = "{14.371, -242}";
}
);
layerId = "1C9972D2-AAA2-4EE5-9F28-188B121D2056";
paths = (
{
closed = 1;
nodes = (
"608.39 -12 OFFCURVE",
"752.28 151.88 OFFCURVE",
"752.28 354.923 CURVE",
"752.28 557.955 OFFCURVE",
"605.874 723.248 OFFCURVE",
"395.639 723.248 CURVE",
"249.692 723.248 OFFCURVE",
"138.876 644.83 OFFCURVE",
"74.473 527.948 CURVE",
"74.473 517 LINE",
"166.689 516.448 LINE",
"210.425 590.996 OFFCURVE",
"287.776 642.831 OFFCURVE",
"395.42 642.831 CURVE",
"570.961 642.831 OFFCURVE",
"665.946 504.972 OFFCURVE",
"665.946 355.624 CURVE",
"665.946 206.277 OFFCURVE",
"569.881 68.418 OFFCURVE",
"395.42 68.418 CURVE",
"239.054 68.418 OFFCURVE",
"145.666 179.165 OFFCURVE",
"127.974 309.66 CURVE",
"701.442 309.671 LINE",
"701.442 390.089 LINE",
"40.985 390.089 LINE",
"25.338 134.292 OFFCURVE",
"198.948 -12 OFFCURVE",
"395.639 -12 CURVE"
);
}
);
width = 792.28;
},
{
layerId = "033ADDEA-23CB-49AC-A4FC-FA912A776280";
paths = (
{
closed = 1;
nodes = (
"571 -12 OFFCURVE",
"742 152 OFFCURVE",
"776 355 CURVE",
"810 558 OFFCURVE",
"691 723 OFFCURVE",
"480 723 CURVE",
"334 723 OFFCURVE",
"211 645 OFFCURVE",
"127 528 CURVE",
"125 517 LINE",
"217 516 LINE",
"273 591 OFFCURVE",
"359 643 OFFCURVE",
"467 643 CURVE",
"642 643 OFFCURVE",
"715 505 OFFCURVE",
"690 356 CURVE",
"665 206 OFFCURVE",
"546 68 OFFCURVE",
"372 68 CURVE",
"215 68 OFFCURVE",
"140 179 OFFCURVE",
"144 310 CURVE",
"718 310 LINE",
"731 390 LINE",
"71 390 LINE",
"13 134 OFFCURVE",
"162 -12 OFFCURVE",
"359 -12 CURVE"
);
}
);
width = 802;
}
);
leftMetricsKey = O;
note = uni018F;
rightMetricsKey = O;
unicode = 018F;
},
{
glyphname = T;
lastChange = "2020-03-10 21:49:07 +0000";
layers = (
{
guideLines = (
{
position = "{0, 713}";
},
{
position = "{49.408, 483}";
},
{
position = "{16.594, 495}";
},
{
position = "{0, 725}";
},
{
position = "{0, 0}";
},
{
position = "{0, -12}";
},
{
position = "{0, 771}";
},
{
position = "{0, 943}";
},
{
position = "{0, -230}";
},
{
position = "{14.371, -242}";
}
);
hints = (
{
horizontal = 1;
place = "{0.1, 21}";
target = up;
type = BottomGhost;
}
);
layerId = "1C9972D2-AAA2-4EE5-9F28-188B121D2056";
paths = (
{
closed = 1;
nodes = (
"341 0 LINE",
"341 637 LINE",
"580 637 LINE",
"580 713 LINE",
"20 713 LINE",
"20 637 LINE",
"259 637 LINE",
"259 0 LINE"
);
}
);
width = 600;
},
{
layerId = "033ADDEA-23CB-49AC-A4FC-FA912A776280";
paths = (
{
closed = 1;
nodes = (
"301 0 LINE",
"406 637 LINE",
"645 637 LINE",
"658 713 LINE",
"98 713 LINE",
"85 637 LINE",
"324 637 LINE",
"219 0 LINE"
);
}
);
width = 600;
}
);
unicode = 0054;
},
{
glyphname = U;
lastChange = "2020-03-10 21:49:07 +0000";
layers = (
{
guideLines = (
{
position = "{1, 713}";
},
{
position = "{50, 483}";
},
{
position = "{18, 495}";
},
{
position = "{1, 725}";
},
{
position = "{1, 0}";
},
{
position = "{1, -12}";
},
{
position = "{1, 771}";
},
{
position = "{1, 943}";
},
{
position = "{1, -230}";
},
{
position = "{15, -242}";
}
);
layerId = "1C9972D2-AAA2-4EE5-9F28-188B121D2056";
paths = (
{
closed = 1;
nodes = (
"551 -12 OFFCURVE",
"618 129 OFFCURVE",
"618 265 CURVE",
"618 713 LINE",
"537 713 LINE",
"537 275 LINE",
"537 154 OFFCURVE",
"490 64 OFFCURVE",
"347 64 CURVE",
"189 64 OFFCURVE",
"157 167 OFFCURVE",
"157 275 CURVE",
"157 713 LINE",
"75 713 LINE",
"75 255 LINE",
"75 125 OFFCURVE",
"145 -12 OFFCURVE",
"347 -12 CURVE"
);
}
);
width = 693;
},
{
layerId = "033ADDEA-23CB-49AC-A4FC-FA912A776280";
paths = (
{
closed = 1;
nodes = (
"509 -12 OFFCURVE",
"599 129 OFFCURVE",
"622 265 CURVE",
"696 713 LINE",
"615 713 LINE",
"543 275 LINE",
"522 154 OFFCURVE",
"461 64 OFFCURVE",
"318 64 CURVE",
"160 64 OFFCURVE",
"145 167 OFFCURVE",
"163 275 CURVE",
"235 713 LINE",
"153 713 LINE",
"77 255 LINE",
"56 125 OFFCURVE",
"103 -12 OFFCURVE",
"305 -12 CURVE"
);
}
);
width = 693;
}
);
unicode = 0055;
},
{
glyphname = V;
lastChange = "2020-03-10 21:49:07 +0000";
layers = (
{
guideLines = (
{
position = "{-44, 713}";
},
{
position = "{19, 483}";
},
{
position = "{-13, 495}";
},
{
position = "{-30, 725}";
},
{
position = "{-30, 0}";
},
{
position = "{-30, -12}";
},
{
position = "{-30, 771}";
},
{
position = "{-30, 943}";
},
{
position = "{-30, -230}";
},
{
position = "{-16, -242}";
}
);
layerId = "1C9972D2-AAA2-4EE5-9F28-188B121D2056";
paths = (
{
closed = 1;
nodes = (
"325 101 LINE",
"335 101 LINE",
"577 713 LINE",
"651 713 LINE",
"651 698 LINE",
"376 0 LINE",
"280 0 LINE",
"5 701 LINE",
"5 713 LINE",
"83 713 LINE"
);
}
);
width = 656;
},
{
layerId = "033ADDEA-23CB-49AC-A4FC-FA912A776280";
paths = (
{
closed = 1;
nodes = (
"302 101 LINE",
"312 101 LINE",
"655 713 LINE",
"729 713 LINE",
"727 698 LINE",
"336 0 LINE",
"240 0 LINE",
"81 701 LINE",
"83 713 LINE",
"161 713 LINE"
);
}
);
width = 656;
}
);
unicode = 0056;
},
{
glyphname = W;
lastChange = "2020-03-10 21:49:07 +0000";
layers = (
{
guideLines = (
{
position = "{-191, 713}";
},
{
position = "{-142, 483}";
},
{
position = "{-174, 495}";
},
{
position = "{-191, 725}";
},
{
position = "{-141, 0}";
},
{
position = "{-191, -12}";
},
{
position = "{-191, 771}";
},
{
position = "{-191, 943}";
},
{
position = "{-191, -230}";
},
{
position = "{-177, -242}";
},
{
angle = 270;
position = "{490, -20}";
},
{
angle = 180;
position = "{231, 62}";
},
{
position = "{-21, 703}";
}
);
layerId = "1C9972D2-AAA2-4EE5-9F28-188B121D2056";
paths = (
{
closed = 1;
nodes = (
"320 0 LINE",
"498 565 LINE",
"508 565 LINE",
"686 0 LINE",
"767 0 LINE",
"991 703 LINE",
"991 713 LINE",
"912 713 LINE",
"735 130 LINE",
"725 130 LINE",
"541 713 LINE",
"465 713 LINE",
"281 130 LINE",
"271 130 LINE",
"93 713 LINE",
"15 713 LINE",
"15 703 LINE",
"238 0 LINE"
);
}
);
width = 1006;
},
{
layerId = "033ADDEA-23CB-49AC-A4FC-FA912A776280";
paths = (
{
closed = 1;
nodes = (
"280 0 LINE",
"552 565 LINE",
"562 565 LINE",
"646 0 LINE",
"727 0 LINE",
"1067 703 LINE",
"1069 713 LINE",
"990 713 LINE",
"717 130 LINE",
"707 130 LINE",
"619 713 LINE",
"543 713 LINE",
"263 130 LINE",
"253 130 LINE",
"171 713 LINE",
"93 713 LINE",
"91 703 LINE",
"198 0 LINE"
);
}
);
width = 1006;
}
);
unicode = 0057;
},
{
glyphname = X;
lastChange = "2020-03-10 21:49:07 +0000";
layers = (
{
guideLines = (
{
position = "{-43, 713}";
},
{
position = "{6, 483}";
},
{
position = "{-26, 495}";
},
{
position = "{-43, 725}";
},
{
position = "{-43, 0}";
},
{
position = "{-43, -12}";
},
{
position = "{-43, 771}";
},
{
position = "{-43, 943}";
},
{
position = "{-43, -230}";
},
{
position = "{-29, -242}";
},
{
position = "{-59, 703}";
},
{
position = "{-29, 10}";
},
{
angle = 90;
position = "{300, 304}";
},
{
angle = 180;
position = "{250, 294}";
}
);
layerId = "1C9972D2-AAA2-4EE5-9F28-188B121D2056";
paths = (
{
closed = 1;
nodes = (
"97 0 LINE",
"299 299 LINE",
"309 299 LINE",
"503 0 LINE",
"597 0 LINE",
"597 10 LINE",
"353 367 LINE",
"582 703 LINE",
"582 713 LINE",
"498 713 LINE",
"311 431 LINE",
"301 431 LINE",
"119 713 LINE",
"28 713 LINE",
"28 703 LINE",
"255 367 LINE",
"15 10 LINE",
"15 0 LINE"
);
}
);
width = 612;
},
{
layerId = "033ADDEA-23CB-49AC-A4FC-FA912A776280";
paths = (
{
closed = 1;
nodes = (
"57 0 LINE",
"308 299 LINE",
"318 299 LINE",
"463 0 LINE",
"557 0 LINE",
"559 10 LINE",
"374 367 LINE",
"658 703 LINE",
"660 713 LINE",
"576 713 LINE",
"342 431 LINE",
"332 431 LINE",
"197 713 LINE",
"106 713 LINE",
"104 703 LINE",
"276 367 LINE",
"-23 10 LINE",
"-25 0 LINE"
);
}
);
width = 612;
}
);
unicode = 0058;
},
{
glyphname = Y;
lastChange = "2020-03-10 21:49:07 +0000";
layers = (
{
guideLines = (
{
position = "{-12, 713}";
},
{
position = "{28, 483}";
},
{
position = "{-4, 495}";
},
{
position = "{-21, 725}";
},
{
position = "{-21, 0}";
},
{
position = "{-21, -12}";
},
{
position = "{-21, 771}";
},
{
position = "{-21, 943}";
},
{
position = "{-21, -230}";
},
{
position = "{-7, -242}";
},
{
angle = 180;
position = "{268, 294}";
}
);
hints = (
{
horizontal = 1;
place = "{0.101, 21}";
target = up;
type = BottomGhost;
}
);
layerId = "1C9972D2-AAA2-4EE5-9F28-188B121D2056";
paths = (
{
closed = 1;
nodes = (
"296 368 LINE",
"306 368 LINE",
"518 713 LINE",
"603 713 LINE",
"603 701 LINE",
"339 293 LINE",
"338 0 LINE",
"256 0 LINE",
"256 293 LINE",
"-10 701 LINE",
"-10 713 LINE",
"79 713 LINE"
);
}
);
width = 593;
},
{
layerId = "033ADDEA-23CB-49AC-A4FC-FA912A776280";
paths = (
{
closed = 1;
nodes = (
"317 368 LINE",
"327 368 LINE",
"596 713 LINE",
"681 713 LINE",
"679 701 LINE",
"348 293 LINE",
"298 0 LINE",
"216 0 LINE",
"265 293 LINE",
"66 701 LINE",
"68 713 LINE",
"157 713 LINE"
);
}
);
width = 593;
}
);
unicode = 0059;
},
{
glyphname = Z;
lastChange = "2020-03-10 21:49:07 +0000";
layers = (
{
guideLines = (
{
position = "{-11, 713}";
},
{
position = "{38, 483}";
},
{
position = "{6, 495}";
},
{
position = "{-121, 725}";
},
{
position = "{-11, 0}";
},
{
position = "{-11, -12}";
},
{
position = "{-11, 771}";
},
{
position = "{-11, 943}";
},
{
position = "{-11, -230}";
},
{
position = "{3, -242}";
},
{
angle = 270;
position = "{73, 675}";
},
{
angle = 90;
position = "{620, 706}";
},
{
position = "{-39, 703}";
},
{
position = "{-9, 10}";
}
);
layerId = "1C9972D2-AAA2-4EE5-9F28-188B121D2056";
paths = (
{
closed = 1;
nodes = (
"606 703 LINE",
"177 86 LINE",
"177 76 LINE",
"590 76 LINE",
"590 0 LINE",
"35 0 LINE",
"35 10 LINE",
"463 627 LINE",
"463 637 LINE",
"73 637 LINE",
"73 713 LINE",
"606 713 LINE"
);
}
);
width = 641;
},
{
layerId = "033ADDEA-23CB-49AC-A4FC-FA912A776280";
paths = (
{
closed = 1;
nodes = (
"682 703 LINE",
"151 86 LINE",
"150 76 LINE",
"563 76 LINE",
"550 0 LINE",
"-5 0 LINE",
"-3 10 LINE",
"527 627 LINE",
"528 637 LINE",
"138 637 LINE",
"151 713 LINE",
"684 713 LINE"
);
}
);
width = 641;
}
);
unicode = 005A;
},
{
glyphname = a;
lastChange = "2020-03-10 21:49:07 +0000";
layers = (
{
guideLines = (
{
position = "{-84, 541}";
},
{
position = "{-64, 483}";
},
{
position = "{-74, 495}";
},
{
position = "{59, 725}";
},
{
position = "{59, 713}";
},
{
position = "{-125, 0}";
},
{
position = "{-138, -12}";
},
{
position = "{58, -230}";
},
{
position = "{57, -242}";
},
{
angle = 180;
position = "{-55, 430}";
},
{
position = "{-107, 54}";
}
);
layerId = "1C9972D2-AAA2-4EE5-9F28-188B121D2056";
paths = (
{
closed = 1;
nodes = (
"266 -12 OFFCURVE",
"325 19 OFFCURVE",
"360 77 CURVE",
"360 0 LINE",
"432 0 LINE",
"433 309 LINE",
"433 415 OFFCURVE",
"350 494 OFFCURVE",
"240 494 CURVE",
"165 494 OFFCURVE",
"104 457 OFFCURVE",
"64 414 CURVE",
"54 401 LINE",
"103 351 LINE",
"113 362 LINE",
"144 393 OFFCURVE",
"183 423 OFFCURVE",
"245 423 CURVE",
"314 423 OFFCURVE",
"359 370 OFFCURVE",
"359 314 CURVE",
"154 271 LINE",
"76 253 OFFCURVE",
"30 203 OFFCURVE",
"30 136 CURVE",
"30 54 OFFCURVE",
"98 -12 OFFCURVE",
"204 -12 CURVE"
);
},
{
closed = 1;
nodes = (
"148 57 OFFCURVE",
"106 92 OFFCURVE",
"106 130 CURVE",
"106 177 OFFCURVE",
"139 199 OFFCURVE",
"189 208 CURVE",
"360 248 LINE",
"360 216 LINE",
"360 118 OFFCURVE",
"291 60 OFFCURVE",
"206 60 CURVE"
);
}
);
width = 503;
},
{
layerId = "033ADDEA-23CB-49AC-A4FC-FA912A776280";
paths = (
{
closed = 1;
nodes = (
"224 -12 OFFCURVE",
"288 19 OFFCURVE",
"333 77 CURVE",
"320 0 LINE",
"392 0 LINE",
"444 309 LINE",
"462 415 OFFCURVE",
"392 494 OFFCURVE",
"282 494 CURVE",
"207 494 OFFCURVE",
"140 457 OFFCURVE",
"93 414 CURVE",
"80 401 LINE",
"121 351 LINE",
"133 362 LINE",
"169 393 OFFCURVE",
"213 423 OFFCURVE",
"275 423 CURVE",
"344 423 OFFCURVE",
"380 370 OFFCURVE",
"371 314 CURVE",
"159 271 LINE",
"78 253 OFFCURVE",
"24 203 OFFCURVE",
"13 136 CURVE",
"-1 54 OFFCURVE",
"56 -12 OFFCURVE",
"162 -12 CURVE"
);
},
{
closed = 1;
nodes = (
"117 57 OFFCURVE",
"81 92 OFFCURVE",
"88 130 CURVE",
"95 177 OFFCURVE",
"132 199 OFFCURVE",
"183 208 CURVE",
"361 248 LINE",
"356 216 LINE",
"340 118 OFFCURVE",
"261 60 OFFCURVE",
"176 60 CURVE"
);
}
);
width = 463;
}
);
rightKerningGroup = a;
unicode = 0061;
},
{
glyphname = b;
lastChange = "2020-03-10 21:49:07 +0000";
layers = (
{
guideLines = (
{
position = "{-546, 413}";
},
{
position = "{41, 541}";
},
{
position = "{-25, 483}";
},
{
position = "{-25, 495}";
},
{
position = "{42, 725}";
},
{
position = "{42, 713}";
},
{
position = "{-25, 0}";
},
{
position = "{-25, -12}";
},
{
position = "{-25, -230}";
},
{
position = "{-25, -242}";
},
{
angle = 180;
position = "{-25, 430}";
},
{
position = "{-130, 54}";
}
);
layerId = "1C9972D2-AAA2-4EE5-9F28-188B121D2056";
paths = (
{
closed = 1;
nodes = (
"448 -12 OFFCURVE",
"549 98 OFFCURVE",
"549 243 CURVE SMOOTH",
"549 388 OFFCURVE",
"450 496 OFFCURVE",
"311 496 CURVE SMOOTH",
"176 496 OFFCURVE",
"78 379 OFFCURVE",
"78 243 CURVE SMOOTH",
"78 110 OFFCURVE",
"176 -12 OFFCURVE",
"311 -12 CURVE SMOOTH"
);
},
{
closed = 1;
nodes = (
"135 -5 LINE",
"135 160 LINE",
"135 713 LINE",
"61 713 LINE",
"61 -5 LINE"
);
},
{
closed = 1;
nodes = (
"206 59 OFFCURVE",
"135 135 OFFCURVE",
"135 243 CURVE SMOOTH",
"135 351 OFFCURVE",
"204 425 OFFCURVE",
"303 425 CURVE SMOOTH",
"401 425 OFFCURVE",
"471 351 OFFCURVE",
"471 243 CURVE SMOOTH",
"471 136 OFFCURVE",
"399 59 OFFCURVE",
"303 59 CURVE SMOOTH"
);
}
);
width = 599;
},
{
layerId = "033ADDEA-23CB-49AC-A4FC-FA912A776280";
paths = (
{
closed = 1;
nodes = (
"405 -12 OFFCURVE",
"524 98 OFFCURVE",
"548 243 CURVE SMOOTH",
"572 388 OFFCURVE",
"491 496 OFFCURVE",
"352 496 CURVE SMOOTH",
"217 496 OFFCURVE",
"100 379 OFFCURVE",
"77 243 CURVE SMOOTH",
"55 110 OFFCURVE",
"133 -12 OFFCURVE",
"268 -12 CURVE SMOOTH"
);
},
{
closed = 1;
nodes = (
"93 -5 LINE",
"120 160 LINE",
"212 713 LINE",
"138 713 LINE",
"19 -5 LINE"
);
},
{
closed = 1;
nodes = (
"175 59 OFFCURVE",
"116 135 OFFCURVE",
"134 243 CURVE SMOOTH",
"152 351 OFFCURVE",
"233 425 OFFCURVE",
"332 425 CURVE SMOOTH",
"430 425 OFFCURVE",
"488 351 OFFCURVE",
"470 243 CURVE SMOOTH",
"453 136 OFFCURVE",
"368 59 OFFCURVE",
"272 59 CURVE SMOOTH"
);
}
);
width = 598;
}
);
leftKerningGroup = b;
rightKerningGroup = b;
unicode = 0062;
},
{
glyphname = c;
lastChange = "2020-03-10 21:49:07 +0000";
layers = (
{
guideLines = (
{
position = "{44, 541}";
},
{
position = "{45, 483}";
},
{
position = "{66, 495}";
},
{
position = "{45, 725}";
},
{
position = "{45, 713}";
},
{
position = "{36, 0}";
},
{
position = "{62, -12}";
},
{
position = "{44, -230}";
},
{
position = "{43, -242}";
}
);
layerId = "1C9972D2-AAA2-4EE5-9F28-188B121D2056";
paths = (
{
closed = 1;
nodes = (
"406 -12 OFFCURVE",
"461 39 OFFCURVE",
"491 72 CURVE",
"507 91 LINE",
"450 143 LINE",
"435 126 LINE",
"400 85 OFFCURVE",
"351 60 OFFCURVE",
"293 60 CURVE",
"187 60 OFFCURVE",
"125 147 OFFCURVE",
"125 241 CURVE",
"125 334 OFFCURVE",
"185 423 OFFCURVE",
"293 423 CURVE",
"350 423 OFFCURVE",
"398 398 OFFCURVE",
"433 361 CURVE",
"449 343 LINE",
"505 393 LINE",
"486 415 LINE",
"438 457 OFFCURVE",
"376 495 OFFCURVE",
"293 495 CURVE",
"154 495 OFFCURVE",
"45 387 OFFCURVE",
"45 241 CURVE",
"45 97 OFFCURVE",
"152 -12 OFFCURVE",
"289 -12 CURVE"
);
}
);
width = 552;
},
{
layerId = "033ADDEA-23CB-49AC-A4FC-FA912A776280";
paths = (
{
closed = 1;
nodes = (
"364 -12 OFFCURVE",
"427 39 OFFCURVE",
"463 72 CURVE",
"482 91 LINE",
"434 143 LINE",
"416 126 LINE",
"374 85 OFFCURVE",
"321 60 OFFCURVE",
"263 60 CURVE",
"157 60 OFFCURVE",
"109 147 OFFCURVE",
"125 241 CURVE",
"140 334 OFFCURVE",
"215 423 OFFCURVE",
"323 423 CURVE",
"380 423 OFFCURVE",
"424 398 OFFCURVE",
"453 361 CURVE",
"466 343 LINE",
"530 393 LINE",
"515 415 LINE",
"474 457 OFFCURVE",
"418 495 OFFCURVE",
"335 495 CURVE",
"196 495 OFFCURVE",
"69 387 OFFCURVE",
"45 241 CURVE",
"21 97 OFFCURVE",
"110 -12 OFFCURVE",
"247 -12 CURVE"
);
}
);
width = 552;
}
);
leftKerningGroup = c;
leftMetricsKey = o;
rightKerningGroup = c;
rightMetricsKey = o;
unicode = 0063;
},
{
glyphname = d;
lastChange = "2020-03-10 23:38:49 +0000";
layers = (
{
components = (
{
name = b;
transform = "{-1, 0, 0, 1, 599, 0}";
}
);
guideLines = (
{
position = "{-2255, 1012}";
},
{
position = "{44.809, 541}";
},
{
position = "{46.352, 483}";
},
{
position = "{67.451, 495}";
},
{
position = "{45.521, 725}";
},
{
position = "{45.521, 713}";
},
{
position = "{37.417, 0}";
},
{
position = "{62.578, -12}";
},
{
position = "{44.516, -230}";
},
{
position = "{44.138, -242}";
},
{
angle = 180;
position = "{-53, 430}";
},
{
position = "{-105, 54}";
}
);
layerId = "1C9972D2-AAA2-4EE5-9F28-188B121D2056";
width = 599;
},
{
layerId = "033ADDEA-23CB-49AC-A4FC-FA912A776280";
paths = (
{
closed = 1;
nodes = (
"381 -12 OFFCURVE",
"499 110 OFFCURVE",
"521 243 CURVE SMOOTH",
"544 379 OFFCURVE",
"465 496 OFFCURVE",
"330 496 CURVE SMOOTH",
"191 496 OFFCURVE",
"74 388 OFFCURVE",
"50 243 CURVE SMOOTH",
"26 98 OFFCURVE",
"109 -12 OFFCURVE",
"246 -12 CURVE SMOOTH"
);
},
{
closed = 1;
nodes = (
"616 713 LINE",
"542 713 LINE",
"450 160 LINE",
"423 -5 LINE",
"497 -5 LINE"
);
},
{
closed = 1;
nodes = (
"170 59 OFFCURVE",
"111 136 OFFCURVE",
"128 243 CURVE SMOOTH",
"146 351 OFFCURVE",
"228 425 OFFCURVE",
"326 425 CURVE SMOOTH",
"425 425 OFFCURVE",
"482 351 OFFCURVE",
"464 243 CURVE SMOOTH",
"446 135 OFFCURVE",
"363 59 OFFCURVE",
"266 59 CURVE SMOOTH"
);
}
);
width = 607;
}
);
unicode = 0064;
},
{
glyphname = eth;
lastChange = "2020-03-10 21:49:07 +0000";
layers = (
{
guideLines = (
{
position = "{50, 541}";
},
{
position = "{51, 483}";
},
{
position = "{72, 495}";
},
{
position = "{51, 725}";
},
{
position = "{51, 713}";
},
{
position = "{42, 0}";
},
{
position = "{68, -12}";
},
{
position = "{50, -230}";
},
{
position = "{49, -242}";
}
);
layerId = "1C9972D2-AAA2-4EE5-9F28-188B121D2056";
paths = (
{
closed = 1;
nodes = (
"443 -12 OFFCURVE",
"556 101 OFFCURVE",
"556 241 CURVE",
"556 269 OFFCURVE",
"552 296 OFFCURVE",
"543 322 CURVE",
"531 359 OFFCURVE",
"510 399 OFFCURVE",
"480 441 CURVE",
"396 552 LINE",
"476 552 LINE",
"476 632 LINE",
"333 632 LINE",
"269 713 LINE",
"174 713 LINE",
"174 701 LINE",
"225 632 LINE",
"142 632 LINE",
"142 552 LINE",
"284 552 LINE",
"327 494 LINE",
"327 482 LINE",
"286 486 OFFCURVE",
"249 483 OFFCURVE",
"216 473 CURVE SMOOTH",
"112 441 OFFCURVE",
"50 347 OFFCURVE",
"50 241 CURVE",
"50 101 OFFCURVE",
"163 -12 OFFCURVE",
"303 -12 CURVE"
);
},
{
closed = 1;
nodes = (
"211 69 OFFCURVE",
"136 146 OFFCURVE",
"136 241 CURVE",
"136 336 OFFCURVE",
"211 414 OFFCURVE",
"303 414 CURVE",
"395 414 OFFCURVE",
"470 336 OFFCURVE",
"470 241 CURVE",
"470 146 OFFCURVE",
"395 69 OFFCURVE",
"303 69 CURVE"
);
}
);
width = 606;
},
{
layerId = "033ADDEA-23CB-49AC-A4FC-FA912A776280";
paths = (
{
closed = 1;
nodes = (
"401 -12 OFFCURVE",
"533 101 OFFCURVE",
"556 241 CURVE",
"561 269 OFFCURVE",
"561 296 OFFCURVE",
"556 322 CURVE",
"550 359 OFFCURVE",
"536 399 OFFCURVE",
"513 441 CURVE",
"447 552 LINE",
"527 552 LINE",
"541 632 LINE",
"398 632 LINE",
"347 713 LINE",
"252 713 LINE",
"250 701 LINE",
"290 632 LINE",
"207 632 LINE",
"193 552 LINE",
"335 552 LINE",
"369 494 LINE",
"367 482 LINE",
"326 486 OFFCURVE",
"289 483 OFFCURVE",
"254 473 CURVE SMOOTH",
"145 441 OFFCURVE",
"67 347 OFFCURVE",
"50 241 CURVE",
"27 101 OFFCURVE",
"121 -12 OFFCURVE",
"261 -12 CURVE"
);
},
{
closed = 1;
nodes = (
"182 69 OFFCURVE",
"120 146 OFFCURVE",
"136 241 CURVE",
"152 336 OFFCURVE",
"240 414 OFFCURVE",
"332 414 CURVE",
"424 414 OFFCURVE",
"486 336 OFFCURVE",
"470 241 CURVE",
"454 146 OFFCURVE",
"366 69 OFFCURVE",
"274 69 CURVE"
);
}
);
width = 606;
}
);
leftKerningGroup = d;
leftMetricsKey = d;
rightKerningGroup = b;
rightMetricsKey = b;
unicode = 00F0;
},
{
glyphname = e;
lastChange = "2020-03-10 21:49:07 +0000";
layers = (
{
guideLines = (
{
position = "{-511, 541}";
},
{
position = "{-510, 483}";
},
{
position = "{-489, 495}";
},
{
position = "{-510, 725}";
},
{
position = "{-510, 713}";
},
{
position = "{-519, 0}";
},
{
position = "{-493, -12}";
},
{
position = "{-511, -230}";
},
{
position = "{-512, -242}";
}
);
layerId = "1C9972D2-AAA2-4EE5-9F28-188B121D2056";
paths = (
{
closed = 1;
nodes = (
"504 327 OFFCURVE",
"482 386 OFFCURVE",
"439 428 CURVE SMOOTH",
"395 471 OFFCURVE",
"343 494 OFFCURVE",
"277 494 CURVE SMOOTH",
"205 494 OFFCURVE",
"148 470 OFFCURVE",
"106 423 CURVE SMOOTH",
"62 373 OFFCURVE",
"45 310 OFFCURVE",
"45 245 CURVE SMOOTH",
"45 126 OFFCURVE",
"114 -7 OFFCURVE",
"290 -7 CURVE SMOOTH",
"367 -7 OFFCURVE",
"445 24 OFFCURVE",
"491 59 CURVE",
"458 122 LINE",
"414 90 OFFCURVE",
"349 65 OFFCURVE",
"292 65 CURVE SMOOTH",
"198 65 OFFCURVE",
"138 118 OFFCURVE",
"124 210 CURVE",
"501 210 LINE",
"503 231 OFFCURVE",
"504 246 OFFCURVE",
"504 252 CURVE SMOOTH"
);
},
{
closed = 1;
nodes = (
"124 281 LINE",
"137 363 OFFCURVE",
"198 421 OFFCURVE",
"277 421 CURVE SMOOTH",
"357 421 OFFCURVE",
"416 366 OFFCURVE",
"421 281 CURVE"
);
}
);
width = 549;
},
{
layerId = "033ADDEA-23CB-49AC-A4FC-FA912A776280";
paths = (
{
closed = 1;
nodes = (
"518 327 OFFCURVE",
"506 386 OFFCURVE",
"470 428 CURVE SMOOTH",
"433 471 OFFCURVE",
"385 494 OFFCURVE",
"319 494 CURVE SMOOTH",
"247 494 OFFCURVE",
"186 470 OFFCURVE",
"136 423 CURVE SMOOTH",
"84 373 OFFCURVE",
"56 310 OFFCURVE",
"46 245 CURVE SMOOTH",
"26 126 OFFCURVE",
"73 -7 OFFCURVE",
"249 -7 CURVE SMOOTH",
"326 -7 OFFCURVE",
"409 24 OFFCURVE",
"461 59 CURVE",
"438 122 LINE",
"389 90 OFFCURVE",
"320 65 OFFCURVE",
"263 65 CURVE SMOOTH",
"169 65 OFFCURVE",
"118 118 OFFCURVE",
"119 210 CURVE",
"496 210 LINE",
"501 231 OFFCURVE",
"505 246 OFFCURVE",
"506 252 CURVE SMOOTH"
);
},
{
closed = 1;
nodes = (
"131 281 LINE",
"157 363 OFFCURVE",
"228 421 OFFCURVE",
"307 421 CURVE SMOOTH",
"387 421 OFFCURVE",
"437 366 OFFCURVE",
"428 281 CURVE"
);
}
);
width = 549;
}
);
leftKerningGroup = c;
leftMetricsKey = o;
rightKerningGroup = b;
rightMetricsKey = o;
unicode = 0065;
},
{
glyphname = f;
lastChange = "2020-03-10 21:49:07 +0000";
layers = (
{
guideLines = (
{
position = "{23, 541}";
},
{
position = "{25, 483}";
},
{
position = "{46, 495}";
},
{
position = "{24, 725}";
},
{
position = "{24, 713}";
},
{
position = "{16, 0}";
},
{
position = "{41, -12}";
},
{
position = "{23, -230}";
},
{
position = "{23, -242}";
}
);
layerId = "1C9972D2-AAA2-4EE5-9F28-188B121D2056";
paths = (
{
closed = 1;
nodes = (
"315 641 OFFCURVE",
"336 636 OFFCURVE",
"362 626 CURVE",
"386 690 LINE",
"355 706 OFFCURVE",
"323 713 OFFCURVE",
"288 713 CURVE SMOOTH",
"189 713 OFFCURVE",
"124 655 OFFCURVE",
"124 552 CURVE SMOOTH",
"124 483 LINE",
"48 483 LINE",
"48 416 LINE",
"124 416 LINE",
"124 0 LINE",
"202 0 LINE",
"202 416 LINE",
"342 416 LINE",
"342 483 LINE",
"202 483 LINE",
"202 550 LINE SMOOTH",
"202 611 OFFCURVE",
"235 641 OFFCURVE",
"297 641 CURVE SMOOTH"
);
}
);
width = 366;
},
{
layerId = "033ADDEA-23CB-49AC-A4FC-FA912A776280";
paths = (
{
closed = 1;
nodes = (
"383 641 OFFCURVE",
"403 636 OFFCURVE",
"428 626 CURVE",
"462 690 LINE",
"434 706 OFFCURVE",
"403 713 OFFCURVE",
"368 713 CURVE SMOOTH",
"269 713 OFFCURVE",
"194 655 OFFCURVE",
"177 552 CURVE SMOOTH",
"166 483 LINE",
"90 483 LINE",
"79 416 LINE",
"155 416 LINE",
"86 0 LINE",
"164 0 LINE",
"233 416 LINE",
"373 416 LINE",
"384 483 LINE",
"244 483 LINE",
"255 550 LINE SMOOTH",
"265 611 OFFCURVE",
"303 641 OFFCURVE",
"365 641 CURVE SMOOTH"
);
}
);
width = 368;
}
);
leftKerningGroup = f;
rightKerningGroup = f;
unicode = 0066;
},
{
glyphname = g;
lastChange = "2020-03-10 21:49:07 +0000";
layers = (
{
guideLines = (
{
position = "{-534, 541}";
},
{
position = "{-533, 483}";
},
{
position = "{-514, 495}";
},
{
position = "{-533, 725}";
},
{
position = "{-533, 713}";
},
{
position = "{-542, 0}";
},
{
position = "{-516, -12}";
},
{
position = "{-534, -230}";
},
{
position = "{-535, -242}";
},
{
angle = 180;
position = "{-632, 430}";
},
{
position = "{-684, 54}";
}
);
layerId = "1C9972D2-AAA2-4EE5-9F28-188B121D2056";
paths = (
{
closed = 1;
nodes = (
"464 405 LINE",
"422 465 OFFCURVE",
"352 495 OFFCURVE",
"285 495 CURVE SMOOTH",
"146 495 OFFCURVE",
"45 383 OFFCURVE",
"45 243 CURVE SMOOTH",
"45 103 OFFCURVE",
"134 -12 OFFCURVE",
"280 -12 CURVE SMOOTH",
"348 -12 OFFCURVE",
"420 12 OFFCURVE",
"464 74 CURVE",
"464 27 LINE SMOOTH",
"464 -24 OFFCURVE",
"452 -64 OFFCURVE",
"417 -95 CURVE SMOOTH",
"383 -125 OFFCURVE",
"338 -143 OFFCURVE",
"286 -143 CURVE SMOOTH",
"227 -143 OFFCURVE",
"165 -120 OFFCURVE",
"111 -81 CURVE",
"72 -146 LINE",
"134 -192 OFFCURVE",
"204 -215 OFFCURVE",
"286 -215 CURVE SMOOTH",
"367 -215 OFFCURVE",
"428 -192 OFFCURVE",
"476 -145 CURVE SMOOTH",
"524 -98 OFFCURVE",
"542 -36 OFFCURVE",
"542 41 CURVE SMOOTH",
"542 483 LINE",
"464 483 LINE"
);
},
{
closed = 1;
nodes = (
"127 138 OFFCURVE",
"127 242 CURVE SMOOTH",
"127 343 OFFCURVE",
"197 424 OFFCURVE",
"293 424 CURVE SMOOTH",
"390 424 OFFCURVE",
"465 345 OFFCURVE",
"465 242 CURVE SMOOTH",
"465 140 OFFCURVE",
"394 60 OFFCURVE",
"297 60 CURVE SMOOTH",
"203 60 OFFCURVE"
);
}
);
width = 617;
},
{
layerId = "033ADDEA-23CB-49AC-A4FC-FA912A776280";
paths = (
{
closed = 1;
nodes = (
"551 405 LINE",
"519 465 OFFCURVE",
"454 495 OFFCURVE",
"387 495 CURVE SMOOTH",
"248 495 OFFCURVE",
"128 383 OFFCURVE",
"105 243 CURVE SMOOTH",
"82 103 OFFCURVE",
"152 -12 OFFCURVE",
"298 -12 CURVE SMOOTH",
"366 -12 OFFCURVE",
"442 12 OFFCURVE",
"496 74 CURVE",
"488 27 LINE SMOOTH",
"480 -24 OFFCURVE",
"461 -64 OFFCURVE",
"421 -95 CURVE SMOOTH",
"382 -125 OFFCURVE",
"334 -143 OFFCURVE",
"282 -143 CURVE SMOOTH",
"223 -143 OFFCURVE",
"165 -120 OFFCURVE",
"118 -81 CURVE",
"68 -146 LINE",
"122 -192 OFFCURVE",
"188 -215 OFFCURVE",
"270 -215 CURVE SMOOTH",
"351 -215 OFFCURVE",
"416 -192 OFFCURVE",
"472 -145 CURVE SMOOTH",
"528 -98 OFFCURVE",
"556 -36 OFFCURVE",
"569 41 CURVE SMOOTH",
"642 483 LINE",
"564 483 LINE"
);
},
{
closed = 1;
nodes = (
"170 138 OFFCURVE",
"187 242 CURVE SMOOTH",
"204 343 OFFCURVE",
"287 424 OFFCURVE",
"383 424 CURVE SMOOTH",
"480 424 OFFCURVE",
"542 345 OFFCURVE",
"525 242 CURVE SMOOTH",
"508 140 OFFCURVE",
"424 60 OFFCURVE",
"327 60 CURVE SMOOTH",
"233 60 OFFCURVE"
);
}
);
width = 616;
}
);
leftKerningGroup = c;
unicode = 0067;
},
{
glyphname = h;
lastChange = "2020-03-10 21:49:07 +0000";
layers = (
{
guideLines = (
{
position = "{14, 541}";
},
{
position = "{15, 483}";
},
{
position = "{36, 495}";
},
{
position = "{15, 725}";
},
{
position = "{13, 713}";
},
{
position = "{16, 0}";
},
{
position = "{14, -12}";
},
{
position = "{14, -230}";
},
{
position = "{15, -242}";
},
{
angle = 180;
position = "{15, 430}";
},
{
position = "{-90, 54}";
}
);
hints = (
{
horizontal = 1;
place = "{0, 21}";
target = up;
type = BottomGhost;
}
);
layerId = "1C9972D2-AAA2-4EE5-9F28-188B121D2056";
paths = (
{
closed = 1;
nodes = (
"513 0 LINE",
"513 282 LINE SMOOTH",
"513 413 OFFCURVE",
"437 494 OFFCURVE",
"313 494 CURVE SMOOTH",
"213 494 OFFCURVE",
"135 431 OFFCURVE",
"116 335 CURVE",
"140 254 LINE",
"156 256 LINE",
"156 357 OFFCURVE",
"214 422 OFFCURVE",
"304 422 CURVE SMOOTH",
"388 422 OFFCURVE",
"437 370 OFFCURVE",
"437 280 CURVE SMOOTH",
"437 0 LINE"
);
},
{
closed = 1;
nodes = (
"156 0 LINE",
"156 343 LINE",
"156 713 LINE",
"80 713 LINE",
"80 0 LINE"
);
}
);
width = 583;
},
{
layerId = "033ADDEA-23CB-49AC-A4FC-FA912A776280";
paths = (
{
closed = 1;
nodes = (
"533 0 LINE",
"580 282 LINE SMOOTH",
"601 413 OFFCURVE",
"539 494 OFFCURVE",
"415 494 CURVE SMOOTH",
"315 494 OFFCURVE",
"226 431 OFFCURVE",
"191 335 CURVE",
"202 254 LINE",
"218 256 LINE",
"235 357 OFFCURVE",
"304 422 OFFCURVE",
"394 422 CURVE SMOOTH",
"478 422 OFFCURVE",
"518 370 OFFCURVE",
"503 280 CURVE SMOOTH",
"457 0 LINE"
);
},
{
closed = 1;
nodes = (
"176 0 LINE",
"233 343 LINE",
"294 713 LINE",
"218 713 LINE",
"100 0 LINE"
);
}
);
width = 583;
}
);
leftKerningGroup = b;
rightKerningGroup = h;
unicode = 0068;
},
{
glyphname = i;
lastChange = "2020-03-10 21:49:07 +0000";
layers = (
{
guideLines = (
{
position = "{10, 541}";
},
{
position = "{12, 483}";
},
{
position = "{33, 495}";
},
{
position = "{11, 725}";
},
{
position = "{11, 713}";
},
{
position = "{3, 0}";
},
{
position = "{28, -12}";
},
{
position = "{10, -230}";
},
{
position = "{10, -242}";
}
);
layerId = "1C9972D2-AAA2-4EE5-9F28-188B121D2056";
paths = (
{
closed = 1;
nodes = (
"149 0 LINE",
"149 483 LINE",
"71 483 LINE",
"71 0 LINE"
);
},
{
closed = 1;
nodes = (
"140 574 OFFCURVE",
"165 599 OFFCURVE",
"165 630 CURVE SMOOTH",
"165 659 OFFCURVE",
"140 684 OFFCURVE",
"111 684 CURVE SMOOTH",
"80 684 OFFCURVE",
"55 659 OFFCURVE",
"55 630 CURVE SMOOTH",
"55 599 OFFCURVE",
"80 574 OFFCURVE",
"111 574 CURVE SMOOTH"
);
}
);
width = 214;
},
{
layerId = "033ADDEA-23CB-49AC-A4FC-FA912A776280";
paths = (
{
closed = 1;
nodes = (
"44 0 LINE",
"124 483 LINE",
"46 483 LINE",
"-34 0 LINE"
);
},
{
closed = 1;
nodes = (
"130 574 OFFCURVE",
"159 599 OFFCURVE",
"164 630 CURVE SMOOTH",
"169 659 OFFCURVE",
"148 684 OFFCURVE",
"119 684 CURVE SMOOTH",
"88 684 OFFCURVE",
"59 659 OFFCURVE",
"54 630 CURVE SMOOTH",
"49 599 OFFCURVE",
"70 574 OFFCURVE",
"101 574 CURVE SMOOTH"
);
}
);
width = 125;
}
);
leftKerningGroup = i;
rightKerningGroup = i;
unicode = 0069;
},
{
glyphname = idotless;
lastChange = "2020-03-10 21:49:07 +0000";
layers = (
{
guideLines = (
{
position = "{-6, 541}";
},
{
position = "{-4, 483}";
},
{
position = "{17, 495}";
},
{
position = "{-5, 725}";
},
{
position = "{-5, 713}";
},
{
position = "{-13, 0}";
},
{
position = "{12, -12}";
},
{
position = "{-6, -230}";
},
{
position = "{-6, -242}";
},
{
position = "{55, 575}";
}
);
layerId = "1C9972D2-AAA2-4EE5-9F28-188B121D2056";
paths = (
{
closed = 1;
nodes = (
"133 0 LINE",
"133 483 LINE",
"55 483 LINE",
"55 0 LINE"
);
}
);
width = 182;
},
{
layerId = "033ADDEA-23CB-49AC-A4FC-FA912A776280";
paths = (
{
closed = 1;
nodes = (
"28 0 LINE",
"108 483 LINE",
"30 483 LINE",
"-50 0 LINE"
);
}
);
width = 93;
}
);
leftMetricsKey = i;
rightMetricsKey = i;
unicode = 0131;
},
{
glyphname = j;
lastChange = "2020-03-10 21:49:07 +0000";
layers = (
{
layerId = "1C9972D2-AAA2-4EE5-9F28-188B121D2056";
paths = (
{
closed = 1;
nodes = (
"-19 -200 LINE",
"107 -225 OFFCURVE",
"166 -147 OFFCURVE",
"166 -66 CURVE",
"166 483 LINE",
"88 483 LINE",
"88 -40 LINE",
"88 -110 OFFCURVE",
"70 -143 OFFCURVE",
"-11 -131 CURVE",
"-29 -127 LINE",
"-45 -192 LINE"
);
},
{
closed = 1;
nodes = (
"155 574 OFFCURVE",
"180 599 OFFCURVE",
"180 630 CURVE SMOOTH",
"180 659 OFFCURVE",
"155 684 OFFCURVE",
"126 684 CURVE SMOOTH",
"95 684 OFFCURVE",
"70 659 OFFCURVE",
"70 630 CURVE SMOOTH",
"70 599 OFFCURVE",
"95 574 OFFCURVE",
"126 574 CURVE SMOOTH"
);
}
);
width = 235;
},
{
layerId = "033ADDEA-23CB-49AC-A4FC-FA912A776280";
paths = (
{
closed = 1;
nodes = (
"-97 -227 LINE",
"25 -252 OFFCURVE",
"97 -174 OFFCURVE",
"111 -93 CURVE",
"206 483 LINE",
"128 483 LINE",
"37 -67 LINE",
"25 -137 OFFCURVE",
"2 -170 OFFCURVE",
"-77 -158 CURVE",
"-94 -154 LINE",
"-121 -219 LINE"
);
},
{
closed = 1;
nodes = (
"210 574 OFFCURVE",
"239 599 OFFCURVE",
"244 630 CURVE SMOOTH",
"249 659 OFFCURVE",
"228 684 OFFCURVE",
"199 684 CURVE SMOOTH",
"168 684 OFFCURVE",
"139 659 OFFCURVE",
"134 630 CURVE SMOOTH",
"129 599 OFFCURVE",
"150 574 OFFCURVE",
"181 574 CURVE SMOOTH"
);
}
);
width = 235;
}
);
unicode = 006A;
},
{
glyphname = uni0237;
lastChange = "2020-03-10 21:49:07 +0000";
layers = (
{
guideLines = (
{
position = "{-46, 541}";
},
{
position = "{-45, 483}";
},
{
position = "{-24, 495}";
},
{
position = "{-46, 725}";
},
{
position = "{-46, 713}";
},
{
position = "{-54, 0}";
},
{
position = "{-29, -12}";
},
{
position = "{-47, -230}";
},
{
position = "{-47, -242}";
}
);
layerId = "1C9972D2-AAA2-4EE5-9F28-188B121D2056";
paths = (
{
closed = 1;
nodes = (
"-20 -227 LINE",
"106 -252 OFFCURVE",
"165 -174 OFFCURVE",
"165 -93 CURVE",
"165 483 LINE",
"87 483 LINE",
"87 -67 LINE",
"87 -137 OFFCURVE",
"69 -170 OFFCURVE",
"-12 -158 CURVE",
"-28 -153 LINE",
"-45 -219 LINE"
);
}
);
width = 220;
},
{
layerId = "033ADDEA-23CB-49AC-A4FC-FA912A776280";
paths = (
{
closed = 1;
nodes = (
"-98 -227 LINE",
"24 -252 OFFCURVE",
"96 -174 OFFCURVE",
"110 -93 CURVE",
"205 483 LINE",
"127 483 LINE",
"36 -67 LINE",
"24 -137 OFFCURVE",
"1 -170 OFFCURVE",
"-78 -158 CURVE",
"-93 -153 LINE",
"-121 -219 LINE"
);
}
);
width = 220;
}
);
leftKerningGroup = j;
leftMetricsKey = j;
note = uni0237;
rightKerningGroup = j;
rightMetricsKey = j;
unicode = 0237;
},
{
glyphname = k;
lastChange = "2020-03-10 21:49:07 +0000";
layers = (
{
guideLines = (
{
position = "{-16, 541}";
},
{
position = "{-14, 483}";
},
{
position = "{7, 495}";
},
{
position = "{-15, 725}";
},
{
position = "{-15, 713}";
},
{
position = "{-23, 0}";
},
{
position = "{2, -12}";
},
{
position = "{-16, -230}";
},
{
position = "{-16, -242}";
}
);
layerId = "1C9972D2-AAA2-4EE5-9F28-188B121D2056";
paths = (
{
closed = 1;
nodes = (
"153 0 LINE",
"153 133 LINE",
"240 224 LINE",
"420 0 LINE",
"508 0 LINE",
"509 7 LINE",
"295 279 LINE",
"471 471 LINE",
"472 483 LINE",
"387 483 LINE",
"222 304 LINE",
"153 231 LINE",
"153 713 LINE",
"75 713 LINE",
"75 0 LINE"
);
}
);
width = 514;
},
{
layerId = "033ADDEA-23CB-49AC-A4FC-FA912A776280";
paths = (
{
closed = 1;
nodes = (
"113 0 LINE",
"135 133 LINE",
"237 224 LINE",
"380 0 LINE",
"468 0 LINE",
"470 7 LINE",
"301 279 LINE",
"509 471 LINE",
"512 483 LINE",
"427 483 LINE",
"232 304 LINE",
"151 231 LINE",
"231 713 LINE",
"153 713 LINE",
"35 0 LINE"
);
}
);
width = 514;
}
);
leftKerningGroup = b;
rightKerningGroup = k;
unicode = 006B;
},
{
glyphname = l;
lastChange = "2020-03-10 21:49:07 +0000";
layers = (
{
guideLines = (
{
position = "{70, 541}";
},
{
position = "{71, 483}";
},
{
position = "{92, 495}";
},
{
position = "{71, 725}";
},
{
position = "{-29, 713}";
},
{
position = "{62, 0}";
},
{
position = "{88, -12}";
},
{
position = "{70, -230}";
},
{
position = "{69, -242}";
}
);
layerId = "1C9972D2-AAA2-4EE5-9F28-188B121D2056";
paths = (
{
closed = 1;
nodes = (
"154 0 LINE",
"154 713 LINE",
"75 713 LINE",
"76 0 LINE"
);
}
);
width = 228;
},
{
layerId = "033ADDEA-23CB-49AC-A4FC-FA912A776280";
paths = (
{
closed = 1;
nodes = (
"104 0 LINE",
"222 713 LINE",
"143 713 LINE",
"26 0 LINE"
);
}
);
width = 219;
}
);
leftKerningGroup = b;
rightKerningGroup = d;
unicode = 006C;
},
{
glyphname = m;
lastChange = "2020-03-10 21:49:07 +0000";
layers = (
{
guideLines = (
{
position = "{65, 541}";
},
{
position = "{-41, 483}";
},
{
position = "{87, 495}";
},
{
position = "{66, 725}";
},
{
position = "{66, 713}";
},
{
position = "{-89, 0}";
},
{
position = "{-54, -12}";
},
{
position = "{65, -230}";
},
{
position = "{64, -242}";
},
{
angle = 180;
position = "{-62, 430}";
},
{
position = "{-114, 54}";
}
);
layerId = "1C9972D2-AAA2-4EE5-9F28-188B121D2056";
paths = (
{
closed = 1;
nodes = (
"75 0 LINE",
"75 483 LINE",
"154 483 LINE",
"154 358 LINE",
"154 0 LINE"
);
},
{
closed = 1;
nodes = (
"404 0 LINE",
"404 292 LINE SMOOTH",
"404 373 OFFCURVE",
"366 424 OFFCURVE",
"289 424 CURVE SMOOTH",
"242 424 OFFCURVE",
"195 403 OFFCURVE",
"172 357 CURVE SMOOTH",
"161 335 OFFCURVE",
"154 308 OFFCURVE",
"154 277 CURVE",
"125 355 LINE",
"146 436 OFFCURVE",
"208 496 OFFCURVE",
"298 496 CURVE SMOOTH",
"413 496 OFFCURVE",
"482 402 OFFCURVE",
"482 292 CURVE SMOOTH",
"482 0 LINE"
);
},
{
closed = 1;
nodes = (
"730 0 LINE",
"730 290 LINE SMOOTH",
"730 373 OFFCURVE",
"682 423 OFFCURVE",
"604 423 CURVE SMOOTH",
"517 423 OFFCURVE",
"482 363 OFFCURVE",
"482 296 CURVE",
"434 361 LINE",
"458 441 OFFCURVE",
"521 496 OFFCURVE",
"612 496 CURVE SMOOTH",
"720 496 OFFCURVE",
"808 423 OFFCURVE",
"808 298 CURVE SMOOTH",
"808 0 LINE"
);
}
);
width = 878;
},
{
layerId = "033ADDEA-23CB-49AC-A4FC-FA912A776280";
paths = (
{
closed = 1;
nodes = (
"35 0 LINE",
"115 483 LINE",
"194 483 LINE",
"173 358 LINE",
"114 0 LINE"
);
},
{
closed = 1;
nodes = (
"364 0 LINE",
"412 292 LINE SMOOTH",
"426 373 OFFCURVE",
"396 424 OFFCURVE",
"319 424 CURVE SMOOTH",
"272 424 OFFCURVE",
"222 403 OFFCURVE",
"191 357 CURVE SMOOTH",
"176 335 OFFCURVE",
"165 308 OFFCURVE",
"160 277 CURVE",
"144 355 LINE",
"178 436 OFFCURVE",
"250 496 OFFCURVE",
"340 496 CURVE SMOOTH",
"455 496 OFFCURVE",
"509 402 OFFCURVE",
"490 292 CURVE SMOOTH",
"442 0 LINE"
);
},
{
closed = 1;
nodes = (
"690 0 LINE",
"738 290 LINE SMOOTH",
"752 373 OFFCURVE",
"712 423 OFFCURVE",
"634 423 CURVE SMOOTH",
"547 423 OFFCURVE",
"502 363 OFFCURVE",
"491 296 CURVE",
"454 361 LINE",
"491 441 OFFCURVE",
"563 496 OFFCURVE",
"654 496 CURVE SMOOTH",
"762 496 OFFCURVE",
"838 423 OFFCURVE",
"817 298 CURVE SMOOTH",
"768 0 LINE"
);
}
);
width = 878;
}
);
leftKerningGroup = m;
rightKerningGroup = h;
unicode = 006D;
},
{
glyphname = n;
lastChange = "2020-03-10 21:49:07 +0000";
layers = (
{
guideLines = (
{
position = "{-263, 541}";
},
{
position = "{-261, 483}";
},
{
position = "{-240, 495}";
},
{
position = "{-262, 725}";
},
{
position = "{-262, 713}";
},
{
position = "{-270, 0}";
},
{
position = "{-245, -12}";
},
{
position = "{-263, -230}";
},
{
position = "{-263, -242}";
},
{
angle = 180;
position = "{-310, 411}";
},
{
position = "{-362, 54}";
}
);
layerId = "1C9972D2-AAA2-4EE5-9F28-188B121D2056";
paths = (
{
closed = 1;
nodes = (
"75 0 LINE",
"75 483 LINE",
"151 483 LINE",
"151 343 LINE",
"151 0 LINE"
);
},
{
closed = 1;
nodes = (
"432 0 LINE",
"432 280 LINE SMOOTH",
"432 370 OFFCURVE",
"383 422 OFFCURVE",
"299 422 CURVE SMOOTH",
"209 422 OFFCURVE",
"151 357 OFFCURVE",
"151 256 CURVE",
"135 254 LINE",
"111 335 LINE",
"130 431 OFFCURVE",
"208 494 OFFCURVE",
"308 494 CURVE SMOOTH",
"432 494 OFFCURVE",
"508 413 OFFCURVE",
"508 282 CURVE SMOOTH",
"508 0 LINE"
);
}
);
width = 573;
},
{
layerId = "033ADDEA-23CB-49AC-A4FC-FA912A776280";
paths = (
{
closed = 1;
nodes = (
"35 0 LINE",
"115 483 LINE",
"191 483 LINE",
"168 343 LINE",
"111 0 LINE"
);
},
{
closed = 1;
nodes = (
"392 0 LINE",
"438 280 LINE SMOOTH",
"453 370 OFFCURVE",
"413 422 OFFCURVE",
"329 422 CURVE SMOOTH",
"239 422 OFFCURVE",
"170 357 OFFCURVE",
"153 256 CURVE",
"137 254 LINE",
"126 335 LINE",
"161 431 OFFCURVE",
"250 494 OFFCURVE",
"350 494 CURVE SMOOTH",
"474 494 OFFCURVE",
"536 413 OFFCURVE",
"515 282 CURVE SMOOTH",
"468 0 LINE"
);
}
);
width = 573;
}
);
leftKerningGroup = m;
rightKerningGroup = h;
unicode = 006E;
},
{
glyphname = o;
lastChange = "2020-03-10 21:49:07 +0000";
layers = (
{
guideLines = (
{
position = "{44.809, 541}";
},
{
position = "{46.352, 483}";
},
{
position = "{67.451, 495}";
},
{
position = "{45.521, 725}";
},
{
position = "{45.521, 713}";
},
{
position = "{37.417, 0}";
},
{
position = "{62.578, -12}";
},
{
position = "{44.516, -230}";
},
{
position = "{44.138, -242}";
}
);
layerId = "1C9972D2-AAA2-4EE5-9F28-188B121D2056";
paths = (
{
closed = 1;
nodes = (
"453 -12 OFFCURVE",
"552 101 OFFCURVE",
"552 241 CURVE",
"552 384 OFFCURVE",
"447 495 OFFCURVE",
"298 495 CURVE",
"149 495 OFFCURVE",
"45 381 OFFCURVE",
"45 241 CURVE",
"45 101 OFFCURVE",
"147 -12 OFFCURVE",
"298 -12 CURVE"
);
},
{
closed = 1;
nodes = (
"182 60 OFFCURVE",
"127 152 OFFCURVE",
"127 241 CURVE",
"127 331 OFFCURVE",
"182 423 OFFCURVE",
"298 423 CURVE",
"414 423 OFFCURVE",
"471 331 OFFCURVE",
"471 241 CURVE",
"471 152 OFFCURVE",
"412 60 OFFCURVE",
"298 60 CURVE"
);
}
);
width = 597;
},
{
layerId = "033ADDEA-23CB-49AC-A4FC-FA912A776280";
paths = (
{
closed = 1;
nodes = (
"411 -12 OFFCURVE",
"529 101 OFFCURVE",
"552 241 CURVE",
"576 384 OFFCURVE",
"489 495 OFFCURVE",
"340 495 CURVE",
"191 495 OFFCURVE",
"68 381 OFFCURVE",
"45 241 CURVE",
"22 101 OFFCURVE",
"105 -12 OFFCURVE",
"256 -12 CURVE"
);
},
{
closed = 1;
nodes = (
"152 60 OFFCURVE",
"112 152 OFFCURVE",
"127 241 CURVE",
"142 331 OFFCURVE",
"212 423 OFFCURVE",
"328 423 CURVE",
"444 423 OFFCURVE",
"486 331 OFFCURVE",
"471 241 CURVE",
"456 152 OFFCURVE",
"382 60 OFFCURVE",
"268 60 CURVE"
);
}
);
width = 597;
}
);
unicode = 006F;
},
{
glyphname = p;
lastChange = "2020-03-11 00:13:21 +0000";
layers = (
{
components = (
{
name = b;
transform = "{1, 0, 0, -1, 0, 483}";
}
);
guideLines = (
{
position = "{66, 541}";
},
{
position = "{27, 483}";
},
{
position = "{88, 495}";
},
{
position = "{67, 725}";
},
{
position = "{67, 713}";
},
{
position = "{58, 0}";
},
{
position = "{84, -12}";
},
{
position = "{36, -230}";
},
{
position = "{65, -242}";
},
{
angle = 180;
position = "{-62, 430}";
},
{
position = "{-114, 54}";
},
{
angle = 180;
position = "{-77, 411}";
}
);
layerId = "1C9972D2-AAA2-4EE5-9F28-188B121D2056";
width = 599;
},
{
layerId = "033ADDEA-23CB-49AC-A4FC-FA912A776280";
paths = (
{
closed = 1;
nodes = (
"216 490 OFFCURVE",
"98 368 OFFCURVE",
"76 235 CURVE SMOOTH",
"53 99 OFFCURVE",
"132 -18 OFFCURVE",
"267 -18 CURVE SMOOTH",
"406 -18 OFFCURVE",
"523 90 OFFCURVE",
"547 235 CURVE SMOOTH",
"571 380 OFFCURVE",
"488 490 OFFCURVE",
"351 490 CURVE SMOOTH"
);
},
{
closed = 1;
nodes = (
"-19 -235 LINE",
"55 -235 LINE",
"147 318 LINE",
"174 483 LINE",
"100 483 LINE"
);
},
{
closed = 1;
nodes = (
"427 419 OFFCURVE",
"487 342 OFFCURVE",
"469 235 CURVE SMOOTH",
"451 127 OFFCURVE",
"369 53 OFFCURVE",
"271 53 CURVE SMOOTH",
"172 53 OFFCURVE",
"115 127 OFFCURVE",
"133 235 CURVE SMOOTH",
"151 343 OFFCURVE",
"234 419 OFFCURVE",
"331 419 CURVE SMOOTH"
);
}
);
width = 598;
}
);
unicode = 0070;
},
{
glyphname = q;
lastChange = "2020-03-10 21:49:07 +0000";
layers = (
{
components = (
{
name = p;
transform = "{-1, 0, 0, 1, 599, 0}";
}
);
guideLines = (
{
position = "{-0.191, 541}";
},
{
position = "{1.352, 483}";
},
{
position = "{22.451, 495}";
},
{
position = "{0.521, 725}";
},
{
position = "{0.521, 713}";
},
{
position = "{-7.583, 0}";
},
{
position = "{17.578, -12}";
},
{
position = "{-0.484, -230}";
},
{
position = "{-0.862, -242}";
},
{
angle = 180;
position = "{-53, 430}";
},
{
position = "{-105, 54}";
}
);
layerId = "1C9972D2-AAA2-4EE5-9F28-188B121D2056";
width = 599;
},
{
layerId = "033ADDEA-23CB-49AC-A4FC-FA912A776280";
paths = (
{
closed = 1;
nodes = (
"192 490 OFFCURVE",
"73 380 OFFCURVE",
"49 235 CURVE SMOOTH",
"25 90 OFFCURVE",
"106 -18 OFFCURVE",
"245 -18 CURVE SMOOTH",
"380 -18 OFFCURVE",
"497 99 OFFCURVE",
"520 235 CURVE SMOOTH",
"542 368 OFFCURVE",
"464 490 OFFCURVE",
"329 490 CURVE SMOOTH"
);
},
{
closed = 1;
nodes = (
"504 483 LINE",
"477 318 LINE",
"385 -235 LINE",
"459 -235 LINE",
"578 483 LINE"
);
},
{
closed = 1;
nodes = (
"422 419 OFFCURVE",
"481 343 OFFCURVE",
"463 235 CURVE SMOOTH",
"445 127 OFFCURVE",
"364 53 OFFCURVE",
"265 53 CURVE SMOOTH",
"167 53 OFFCURVE",
"109 127 OFFCURVE",
"127 235 CURVE SMOOTH",
"145 342 OFFCURVE",
"229 419 OFFCURVE",
"325 419 CURVE SMOOTH"
);
}
);
width = 598;
}
);
unicode = 0071;
},
{
glyphname = r;
lastChange = "2020-03-10 21:49:07 +0000";
layers = (
{
guideLines = (
{
position = "{72, 541}";
},
{
position = "{-14, 483}";
},
{
position = "{94, 495}";
},
{
position = "{73, 725}";
},
{
position = "{73, 713}";
},
{
position = "{64, 0}";
},
{
position = "{90, -12}";
},
{
position = "{72, -230}";
},
{
position = "{71, -242}";
},
{
angle = 180;
position = "{-56, 430}";
},
{
position = "{-108, 54}";
}
);
layerId = "1C9972D2-AAA2-4EE5-9F28-188B121D2056";
paths = (
{
closed = 1;
nodes = (
"315 483 LINE",
"280 483 LINE SMOOTH",
"219 483 OFFCURVE",
"169 454 OFFCURVE",
"147 402 CURVE",
"147 484 LINE",
"80 483 LINE",
"80 0 LINE",
"158 0 LINE",
"158 284 LINE SMOOTH",
"158 356 OFFCURVE",
"214 411 OFFCURVE",
"281 411 CURVE SMOOTH",
"315 411 LINE"
);
}
);
width = 380;
},
{
layerId = "033ADDEA-23CB-49AC-A4FC-FA912A776280";
paths = (
{
closed = 1;
nodes = (
"415 483 LINE",
"380 483 LINE SMOOTH",
"319 483 OFFCURVE",
"264 454 OFFCURVE",
"234 402 CURVE",
"247 484 LINE",
"180 483 LINE",
"100 0 LINE",
"178 0 LINE",
"225 284 LINE SMOOTH",
"237 356 OFFCURVE",
"302 411 OFFCURVE",
"369 411 CURVE SMOOTH",
"403 411 LINE"
);
}
);
width = 369;
}
);
unicode = 0072;
},
{
glyphname = s;
lastChange = "2020-03-10 21:49:07 +0000";
layers = (
{
guideLines = (
{
position = "{39, 541}";
},
{
position = "{41, 483}";
},
{
position = "{62, 495}";
},
{
position = "{40, 725}";
},
{
position = "{40, 713}";
},
{
position = "{32, 0}";
},
{
position = "{57, -12}";
},
{
position = "{39, -230}";
},
{
position = "{39, -242}";
}
);
layerId = "1C9972D2-AAA2-4EE5-9F28-188B121D2056";
paths = (
{
closed = 1;
nodes = (
"370 -12 OFFCURVE",
"414 75 OFFCURVE",
"416 121 CURVE SMOOTH",
"421 193 OFFCURVE",
"385 225 OFFCURVE",
"332 251 CURVE SMOOTH",
"301 264 OFFCURVE",
"251 279 OFFCURVE",
"219 288 CURVE SMOOTH",
"155 306 OFFCURVE",
"136 328 OFFCURVE",
"137 361 CURVE SMOOTH",
"138 391 OFFCURVE",
"177 426 OFFCURVE",
"234 425 CURVE SMOOTH",
"276 425 OFFCURVE",
"311 405 OFFCURVE",
"332 387 CURVE",
"348 372 LINE",
"401 426 LINE",
"387 439 LINE",
"359 462 OFFCURVE",
"307 495 OFFCURVE",
"236 495 CURVE SMOOTH",
"126 495 OFFCURVE",
"61 429 OFFCURVE",
"56 366 CURVE SMOOTH",
"52 295 OFFCURVE",
"106 251 OFFCURVE",
"187 225 CURVE SMOOTH",
"212 217 OFFCURVE",
"231 212 OFFCURVE",
"262 203 CURVE SMOOTH",
"324 185 OFFCURVE",
"339 171 OFFCURVE",
"338 134 CURVE SMOOTH",
"336 108 OFFCURVE",
"322 58 OFFCURVE",
"223 59 CURVE SMOOTH",
"180 59 OFFCURVE",
"134 82 OFFCURVE",
"99 121 CURVE",
"89 133 LINE",
"30 80 LINE",
"42 66 LINE",
"73 29 OFFCURVE",
"136 -12 OFFCURVE",
"224 -12 CURVE SMOOTH"
);
}
);
width = 446;
},
{
layerId = "033ADDEA-23CB-49AC-A4FC-FA912A776280";
paths = (
{
closed = 1;
nodes = (
"328 -12 OFFCURVE",
"386 75 OFFCURVE",
"396 121 CURVE SMOOTH",
"413 193 OFFCURVE",
"382 225 OFFCURVE",
"334 251 CURVE SMOOTH",
"305 264 OFFCURVE",
"257 279 OFFCURVE",
"227 288 CURVE SMOOTH",
"166 306 OFFCURVE",
"150 328 OFFCURVE",
"157 361 CURVE SMOOTH",
"163 391 OFFCURVE",
"208 426 OFFCURVE",
"264 425 CURVE SMOOTH",
"306 425 OFFCURVE",
"338 405 OFFCURVE",
"356 387 CURVE",
"370 372 LINE",
"432 426 LINE",
"420 439 LINE",
"395 462 OFFCURVE",
"349 495 OFFCURVE",
"278 495 CURVE SMOOTH",
"168 495 OFFCURVE",
"92 429 OFFCURVE",
"77 366 CURVE SMOOTH",
"61 295 OFFCURVE",
"108 251 OFFCURVE",
"184 225 CURVE SMOOTH",
"208 217 OFFCURVE",
"226 212 OFFCURVE",
"256 203 CURVE SMOOTH",
"315 185 OFFCURVE",
"327 171 OFFCURVE",
"320 134 CURVE SMOOTH",
"314 108 OFFCURVE",
"292 58 OFFCURVE",
"193 59 CURVE SMOOTH",
"150 59 OFFCURVE",
"108 82 OFFCURVE",
"79 121 CURVE",
"71 133 LINE",
"3 80 LINE",
"13 66 LINE",
"38 29 OFFCURVE",
"94 -12 OFFCURVE",
"182 -12 CURVE SMOOTH"
);
}
);
width = 446;
}
);
unicode = 0073;
},
{
glyphname = germandbls;
lastChange = "2020-03-10 21:49:07 +0000";
layers = (
{
guideLines = (
{
position = "{61, 541}";
},
{
position = "{62, 483}";
},
{
position = "{83, 495}";
},
{
position = "{62, 725}";
},
{
position = "{62, 713}";
},
{
position = "{53, 0}";
},
{
position = "{79, -12}";
},
{
position = "{61, -230}";
},
{
position = "{60, -242}";
}
);
layerId = "1C9972D2-AAA2-4EE5-9F28-188B121D2056";
paths = (
{
closed = 1;
nodes = (
"150 0 LINE",
"150 516 LINE",
"152 601 OFFCURVE",
"202 644 OFFCURVE",
"280 644 CURVE",
"357 644 OFFCURVE",
"413 611 OFFCURVE",
"413 534 CURVE",
"413 457 OFFCURVE",
"361 426 OFFCURVE",
"287 426 CURVE",
"239 426 LINE",
"240 344 LINE",
"306 344 LINE",
"402 343 OFFCURVE",
"458 296 OFFCURVE",
"458 212 CURVE",
"458 127 OFFCURVE",
"400 81 OFFCURVE",
"302 81 CURVE",
"240 81 LINE",
"240 0 LINE",
"323 0 LINE",
"464 2 OFFCURVE",
"544 86 OFFCURVE",
"544 212 CURVE",
"544 306 OFFCURVE",
"484 372 OFFCURVE",
"409 391 CURVE",
"409 394 LINE",
"454 407 OFFCURVE",
"501 454 OFFCURVE",
"501 536 CURVE",
"501 654 OFFCURVE",
"415 725 OFFCURVE",
"280 725 CURVE",
"143 725 OFFCURVE",
"61 650 OFFCURVE",
"61 518 CURVE",
"61 0 LINE"
);
}
);
width = 609;
},
{
layerId = "033ADDEA-23CB-49AC-A4FC-FA912A776280";
paths = (
{
closed = 1;
nodes = (
"109 0 LINE",
"195 516 LINE",
"211 601 OFFCURVE",
"268 644 OFFCURVE",
"345 644 CURVE",
"422 644 OFFCURVE",
"473 611 OFFCURVE",
"461 534 CURVE",
"448 457 OFFCURVE",
"390 426 OFFCURVE",
"317 426 CURVE",
"269 426 LINE",
"256 344 LINE",
"322 344 LINE",
"418 343 OFFCURVE",
"466 296 OFFCURVE",
"452 212 CURVE",
"438 127 OFFCURVE",
"373 81 OFFCURVE",
"274 81 CURVE",
"212 81 LINE",
"199 0 LINE",
"282 0 LINE",
"424 2 OFFCURVE",
"517 86 OFFCURVE",
"538 212 CURVE",
"554 306 OFFCURVE",
"504 372 OFFCURVE",
"433 391 CURVE",
"433 394 LINE",
"480 407 OFFCURVE",
"535 454 OFFCURVE",
"548 536 CURVE",
"568 654 OFFCURVE",
"494 725 OFFCURVE",
"359 725 CURVE",
"222 725 OFFCURVE",
"128 650 OFFCURVE",
"106 518 CURVE",
"20 0 LINE"
);
}
);
width = 608;
}
);
leftKerningGroup = b;
leftMetricsKey = b;
rightKerningGroup = b;
rightMetricsKey = n;
unicode = 00DF;
},
{
glyphname = longs;
lastChange = "2020-03-10 21:49:07 +0000";
layers = (
{
layerId = "1C9972D2-AAA2-4EE5-9F28-188B121D2056";
paths = (
{
closed = 1;
nodes = (
"247.384 0.077 LINE",
"247.373 402.302 LINE",
"247.373 482.747 LINE",
"247.384 586.176 LINE",
"247.384 611.563 OFFCURVE",
"267.967 632.145 OFFCURVE",
"293.353 632.145 CURVE",
"419.766 632.145 LINE",
"419.766 712.59 LINE",
"293.353 712.59 LINE",
"223.538 712.59 OFFCURVE",
"160.871 655.991 OFFCURVE",
"160.871 586.176 CURVE",
"160.871 482.747 LINE",
"75.002 482.747 LINE",
"75.002 402.302 LINE",
"160.871 402.302 LINE",
"160.871 0.077 LINE"
);
}
);
width = 424.77;
},
{
layerId = "033ADDEA-23CB-49AC-A4FC-FA912A776280";
paths = (
{
closed = 1;
nodes = (
"267 0 LINE",
"334 402 LINE",
"347 483 LINE",
"364 586 LINE",
"369 612 OFFCURVE",
"393 632 OFFCURVE",
"418 632 CURVE",
"544 632 LINE",
"558 713 LINE",
"431 713 LINE",
"362 713 OFFCURVE",
"289 656 OFFCURVE",
"278 586 CURVE",
"261 483 LINE",
"175 483 LINE",
"162 402 LINE",
"247 402 LINE",
"181 0 LINE"
);
}
);
width = 600;
}
);
leftKerningGroup = f;
note = longs;
rightKerningGroup = longs;
unicode = 017F;
},
{
glyphname = t;
lastChange = "2020-03-10 21:49:07 +0000";
layers = (
{
guideLines = (
{
position = "{-55, 541}";
},
{
position = "{-53, 483}";
},
{
position = "{-32, 495}";
},
{
position = "{-54, 725}";
},
{
position = "{-54, 713}";
},
{
position = "{-62, 0}";
},
{
position = "{-37, -12}";
},
{
position = "{-55, -230}";
},
{
position = "{-55, -242}";
},
{
angle = 180;
position = "{-52, 430}";
},
{
position = "{-104, 54}";
}
);
layerId = "1C9972D2-AAA2-4EE5-9F28-188B121D2056";
paths = (
{
closed = 1;
nodes = (
"375 11 LINE",
"359 75 LINE",
"311 63 LINE SMOOTH",
"263 50 OFFCURVE",
"197 61 OFFCURVE",
"197 147 CURVE SMOOTH",
"197 411 LINE",
"369 411 LINE",
"369 483 LINE",
"198 483 LINE",
"198 626 LINE",
"118 626 LINE",
"118 483 LINE",
"20 483 LINE",
"20 411 LINE",
"119 411 LINE",
"118 137 LINE SMOOTH",
"118 24 OFFCURVE",
"193 -30 OFFCURVE",
"315 -8 CURVE"
);
}
);
width = 415;
},
{
layerId = "033ADDEA-23CB-49AC-A4FC-FA912A776280";
paths = (
{
closed = 1;
nodes = (
"337 11 LINE",
"331 75 LINE",
"281 63 LINE SMOOTH",
"231 50 OFFCURVE",
"167 61 OFFCURVE",
"181 147 CURVE SMOOTH",
"226 415 LINE",
"370 415 LINE",
"399 483 LINE",
"238 483 LINE",
"260 615 LINE",
"181 615 LINE",
"159 483 LINE",
"60 483 LINE",
"49 415 LINE",
"148 415 LINE",
"101 137 LINE SMOOTH",
"82 24 OFFCURVE",
"148 -30 OFFCURVE",
"274 -8 CURVE"
);
}
);
width = 415;
}
);
leftKerningGroup = t;
rightKerningGroup = t;
unicode = 0074;
},
{
glyphname = v;
lastChange = "2020-03-10 21:49:07 +0000";
layers = (
{
guideLines = (
{
position = "{-3, 541}";
},
{
position = "{-2, 483}";
},
{
position = "{19, 495}";
},
{
position = "{-2, 725}";
},
{
position = "{-2, 713}";
},
{
position = "{-11, 0}";
},
{
position = "{15, -12}";
},
{
position = "{-3, -230}";
},
{
position = "{-4, -242}";
}
);
layerId = "1C9972D2-AAA2-4EE5-9F28-188B121D2056";
paths = (
{
closed = 1;
nodes = (
"195 0 LINE",
"0 483 LINE",
"83 483 LINE",
"252 51 LINE",
"225 51 LINE",
"398 483 LINE",
"479 483 LINE",
"279 0 LINE"
);
}
);
width = 479;
},
{
layerId = "033ADDEA-23CB-49AC-A4FC-FA912A776280";
paths = (
{
closed = 1;
nodes = (
"155 0 LINE",
"40 483 LINE",
"123 483 LINE",
"220 51 LINE",
"193 51 LINE",
"438 483 LINE",
"519 483 LINE",
"239 0 LINE"
);
}
);
width = 479;
}
);
leftKerningGroup = v;
rightKerningGroup = v;
unicode = 0076;
},
{
glyphname = w;
lastChange = "2020-03-10 21:49:07 +0000";
layers = (
{
guideLines = (
{
position = "{-26, 541}";
},
{
position = "{-54, 483}";
},
{
position = "{-3, 495}";
},
{
position = "{-25, 725}";
},
{
position = "{-25, 713}";
},
{
position = "{-33, 0}";
},
{
position = "{-8, -12}";
},
{
position = "{-26, -230}";
},
{
position = "{-26, -242}";
},
{
position = "{219, 34}";
}
);
layerId = "1C9972D2-AAA2-4EE5-9F28-188B121D2056";
paths = (
{
closed = 1;
nodes = (
"15 483 LINE",
"97 483 LINE",
"233 34 LINE",
"204 34 LINE",
"336 483 LINE",
"405 483 LINE",
"533 34 LINE",
"505 34 LINE",
"642 483 LINE",
"725 483 LINE",
"564 0 LINE",
"477 0 LINE",
"343 440 LINE",
"395 440 LINE",
"261 0 LINE",
"175 0 LINE"
);
}
);
width = 740;
},
{
layerId = "033ADDEA-23CB-49AC-A4FC-FA912A776280";
paths = (
{
closed = 1;
nodes = (
"55 483 LINE",
"137 483 LINE",
"199 34 LINE",
"170 34 LINE",
"376 483 LINE",
"445 483 LINE",
"499 34 LINE",
"471 34 LINE",
"682 483 LINE",
"765 483 LINE",
"524 0 LINE",
"437 0 LINE",
"376 440 LINE",
"428 440 LINE",
"221 0 LINE",
"135 0 LINE"
);
}
);
width = 740;
}
);
leftKerningGroup = w;
rightKerningGroup = w;
unicode = 0077;
},
{
glyphname = x;
lastChange = "2020-03-10 21:49:07 +0000";
layers = (
{
guideLines = (
{
position = "{-7, 541}";
},
{
position = "{-33, 483}";
},
{
position = "{15, 495}";
},
{
position = "{-6, 725}";
},
{
position = "{-6, 713}";
},
{
position = "{-15, 0}";
},
{
position = "{11, -12}";
},
{
position = "{-7, -230}";
},
{
position = "{-8, -242}";
},
{
position = "{-5, 473}";
}
);
layerId = "1C9972D2-AAA2-4EE5-9F28-188B121D2056";
paths = (
{
closed = 1;
nodes = (
"105 483 LINE",
"456 0 LINE",
"363 0 LINE",
"15 483 LINE"
);
},
{
closed = 1;
nodes = (
"265 231 LINE",
"202 260 LINE",
"355 483 LINE",
"440 482 LINE"
);
},
{
closed = 1;
nodes = (
"195 269 LINE",
"262 246 LINE",
"98 0 LINE",
"14 0 LINE"
);
}
);
width = 471;
},
{
layerId = "033ADDEA-23CB-49AC-A4FC-FA912A776280";
paths = (
{
closed = 1;
nodes = (
"146 483 LINE",
"417 0 LINE",
"324 0 LINE",
"56 483 LINE"
);
},
{
closed = 1;
nodes = (
"264 231 LINE",
"206 260 LINE",
"396 483 LINE",
"481 482 LINE"
);
},
{
closed = 1;
nodes = (
"201 269 LINE",
"264 246 LINE",
"59 0 LINE",
"-25 0 LINE"
);
}
);
width = 472;
}
);
unicode = 0078;
},
{
glyphname = y;
lastChange = "2020-03-10 21:49:07 +0000";
layers = (
{
guideLines = (
{
position = "{-205, 541}";
},
{
position = "{-204, 483}";
},
{
position = "{-182, 495}";
},
{
position = "{-204, 725}";
},
{
position = "{-204, 713}";
},
{
position = "{-212, 0}";
},
{
position = "{-187, -12}";
},
{
position = "{-205, -230}";
},
{
position = "{-206, -242}";
}
);
layerId = "1C9972D2-AAA2-4EE5-9F28-188B121D2056";
paths = (
{
closed = 1;
nodes = (
"10 483 LINE",
"96 483 LINE",
"282 53 LINE",
"233 -21 LINE"
);
},
{
closed = 1;
nodes = (
"421 483 LINE",
"508 483 LINE",
"204 -230 LINE",
"126 -230 LINE",
"239 30 LINE",
"253 60 LINE"
);
}
);
width = 518;
},
{
layerId = "033ADDEA-23CB-49AC-A4FC-FA912A776280";
paths = (
{
closed = 1;
nodes = (
"50 483 LINE",
"136 483 LINE",
"251 53 LINE",
"190 -21 LINE"
);
},
{
closed = 1;
nodes = (
"461 483 LINE",
"545 483 LINE",
"123 -230 LINE",
"48 -230 LINE",
"204 30 LINE",
"223 60 LINE"
);
}
);
width = 515;
}
);
leftKerningGroup = v;
rightKerningGroup = y;
unicode = 0079;
},
{
glyphname = z;
lastChange = "2020-03-10 21:49:07 +0000";
layers = (
{
guideLines = (
{
position = "{-37, 541}";
},
{
position = "{-36, 483}";
},
{
position = "{-14, 495}";
},
{
position = "{-36, 725}";
},
{
position = "{-36, 713}";
},
{
position = "{-45, 0}";
},
{
position = "{-19, -12}";
},
{
position = "{-37, -230}";
},
{
position = "{-38, -242}";
}
);
layerId = "1C9972D2-AAA2-4EE5-9F28-188B121D2056";
paths = (
{
closed = 1;
nodes = (
"54 416 LINE",
"54 483 LINE",
"417 483 LINE",
"372 416 LINE"
);
},
{
closed = 1;
nodes = (
"433 70 LINE",
"433 0 LINE",
"61 0 LINE",
"110 70 LINE"
);
},
{
closed = 1;
nodes = (
"112 0 LINE",
"25 0 LINE",
"25 13 LINE",
"359 483 LINE",
"441 483 LINE",
"441 470 LINE"
);
}
);
width = 476;
},
{
layerId = "033ADDEA-23CB-49AC-A4FC-FA912A776280";
paths = (
{
closed = 1;
nodes = (
"83 416 LINE",
"94 483 LINE",
"457 483 LINE",
"401 416 LINE"
);
},
{
closed = 1;
nodes = (
"405 70 LINE",
"393 0 LINE",
"21 0 LINE",
"82 70 LINE"
);
},
{
closed = 1;
nodes = (
"72 0 LINE",
"-15 0 LINE",
"-13 13 LINE",
"399 483 LINE",
"481 483 LINE",
"479 470 LINE"
);
}
);
width = 476;
}
);
unicode = 007A;
},
{
glyphname = a.ss03;
lastChange = "2020-03-10 21:49:07 +0000";
layers = (
{
layerId = "1C9972D2-AAA2-4EE5-9F28-188B121D2056";
paths = (
{
closed = 1;
nodes = (
"356 187 LINE",
"356 145 OFFCURVE",
"316 60 OFFCURVE",
"211 60 CURVE SMOOTH",
"115 60 OFFCURVE",
"100 125 OFFCURVE",
"100 148 CURVE SMOOTH",
"100 171 OFFCURVE",
"119 246 OFFCURVE",
"245 241 CURVE",
"312 238 OFFCURVE",
"329 229 OFFCURVE",
"357 217 CURVE"
);
},
{
closed = 1;
nodes = (
"127 374 OFFCURVE",
"169 429 OFFCURVE",
"249 422 CURVE SMOOTH",
"347 413 OFFCURVE",
"362 344 OFFCURVE",
"356 291 CURVE",
"313 308 OFFCURVE",
"272 312 OFFCURVE",
"234 313 CURVE SMOOTH",
"116 315 OFFCURVE",
"20 241 OFFCURVE",
"18 149 CURVE SMOOTH",
"15 0 OFFCURVE",
"161 -13 OFFCURVE",
"203 -12 CURVE SMOOTH",
"236 -11 OFFCURVE",
"313 3 OFFCURVE",
"363 77 CURVE",
"363 0 LINE",
"432 0 LINE",
"432 310 LINE",
"432 406 OFFCURVE",
"373 493 OFFCURVE",
"235 494 CURVE SMOOTH",
"132 495 OFFCURVE",
"74 425 OFFCURVE",
"53 401 CURVE",
"102 351 LINE"
);
}
);
width = 501;
},
{
layerId = "033ADDEA-23CB-49AC-A4FC-FA912A776280";
paths = (
{
closed = 1;
nodes = (
"407 187 LINE",
"400 145 OFFCURVE",
"346 60 OFFCURVE",
"241 60 CURVE SMOOTH",
"145 60 OFFCURVE",
"141 125 OFFCURVE",
"145 148 CURVE SMOOTH",
"148 171 OFFCURVE",
"180 246 OFFCURVE",
"305 241 CURVE",
"371 238 OFFCURVE",
"387 229 OFFCURVE",
"413 217 CURVE"
);
},
{
closed = 1;
nodes = (
"209 374 OFFCURVE",
"260 429 OFFCURVE",
"339 422 CURVE SMOOTH",
"435 413 OFFCURVE",
"439 344 OFFCURVE",
"424 291 CURVE",
"384 308 OFFCURVE",
"344 312 OFFCURVE",
"306 313 CURVE SMOOTH",
"188 315 OFFCURVE",
"80 241 OFFCURVE",
"63 149 CURVE SMOOTH",
"35 0 OFFCURVE",
"179 -13 OFFCURVE",
"221 -12 CURVE SMOOTH",
"254 -11 OFFCURVE",
"333 3 OFFCURVE",
"396 77 CURVE",
"383 0 LINE",
"452 0 LINE",
"503 310 LINE",
"519 406 OFFCURVE",
"475 493 OFFCURVE",
"337 494 CURVE SMOOTH",
"234 495 OFFCURVE",
"164 425 OFFCURVE",
"139 401 CURVE",
"180 351 LINE"
);
}
);
width = 600;
}
);
},
{
glyphname = T_i;
lastChange = "2020-03-10 21:49:07 +0000";
layers = (
{
components = (
{
alignment = -1;
name = T;
}
);
layerId = "1C9972D2-AAA2-4EE5-9F28-188B121D2056";
paths = (
{
closed = 1;
nodes = (
"563 0 LINE",
"641 0 LINE",
"641 483 LINE",
"563 483 LINE"
);
}
);
width = 690;
},
{
components = (
{
alignment = -1;
name = T;
}
);
layerId = "033ADDEA-23CB-49AC-A4FC-FA912A776280";
paths = (
{
closed = 1;
nodes = (
"563 0 LINE",
"641 0 LINE",
"641 483 LINE",
"563 483 LINE"
);
}
);
width = 706;
}
);
leftMetricsKey = T;
rightMetricsKey = i;
},
{
glyphname = f_f;
lastChange = "2020-03-10 21:49:07 +0000";
layers = (
{
components = (
{
name = f;
},
{
alignment = -1;
name = f;
transform = "{1, 0, 0, 1, 331, 0}";
}
);
layerId = "1C9972D2-AAA2-4EE5-9F28-188B121D2056";
paths = (
{
closed = 1;
nodes = (
"332 415 LINE",
"381 415 LINE",
"381 483 LINE",
"332 483 LINE"
);
}
);
width = 697;
},
{
components = (
{
name = f;
},
{
alignment = -1;
name = f;
transform = "{1, 0, 0, 1, 331, 0}";
}
);
layerId = "033ADDEA-23CB-49AC-A4FC-FA912A776280";
paths = (
{
closed = 1;
nodes = (
"332 415 LINE",
"381 415 LINE",
"381 483 LINE",
"332 483 LINE"
);
}
);
width = 699;
}
);
leftKerningGroup = f;
leftMetricsKey = f;
rightKerningGroup = f;
rightMetricsKey = f;
},
{
glyphname = f_f_i;
lastChange = "2020-03-10 21:49:07 +0000";
layers = (
{
components = (
{
name = f;
},
{
alignment = -1;
name = f;
transform = "{1, 0, 0, 1, 311, 0}";
}
);
layerId = "1C9972D2-AAA2-4EE5-9F28-188B121D2056";
paths = (
{
closed = 1;
nodes = (
"332 415 LINE",
"381 415 LINE",
"381 483 LINE",
"332 483 LINE"
);
},
{
closed = 1;
nodes = (
"722 0 LINE",
"804 0 LINE",
"804 483 LINE",
"722 483 LINE"
);
},
{
closed = 1;
nodes = (
"552 415 LINE",
"804 415 LINE",
"804 483 LINE",
"552 483 LINE"
);
}
);
width = 853;
},
{
components = (
{
name = f;
},
{
alignment = -1;
name = f;
transform = "{1, 0, 0, 1, 311, 0}";
}
);
layerId = "033ADDEA-23CB-49AC-A4FC-FA912A776280";
paths = (
{
closed = 1;
nodes = (
"332 415 LINE",
"381 415 LINE",
"381 483 LINE",
"332 483 LINE"
);
},
{
closed = 1;
nodes = (
"722 0 LINE",
"804 0 LINE",
"804 483 LINE",
"722 483 LINE"
);
},
{
closed = 1;
nodes = (
"552 415 LINE",
"804 415 LINE",
"804 483 LINE",
"552 483 LINE"
);
}
);
width = 869;
}
);
leftMetricsKey = f;
rightMetricsKey = i;
},
{
glyphname = fl;
lastChange = "2020-03-10 21:49:07 +0000";
layers = (
{
components = (
{
name = f;
},
{
name = l;
transform = "{1, 0, 0, 1, 384, 0}";
}
);
layerId = "1C9972D2-AAA2-4EE5-9F28-188B121D2056";
paths = (
{
closed = 1;
nodes = (
"328 415 LINE",
"487 415 LINE",
"487 483 LINE",
"328 483 LINE"
);
}
);
width = 612;
},
{
components = (
{
name = f;
},
{
name = l;
transform = "{1, 0, 0, 1, 384, 0}";
}
);
layerId = "033ADDEA-23CB-49AC-A4FC-FA912A776280";
paths = (
{
closed = 1;
nodes = (
"328 415 LINE",
"487 415 LINE",
"487 483 LINE",
"328 483 LINE"
);
}
);
width = 603;
}
);
leftKerningGroup = f;
leftMetricsKey = f;
rightKerningGroup = l;
rightMetricsKey = l;
unicode = FB02;
},
{
glyphname = t_t;
lastChange = "2020-03-10 21:49:07 +0000";
layers = (
{
components = (
{
name = t;
},
{
alignment = -1;
name = t;
transform = "{1, 0, 0, 1, 333, 0}";
}
);
layerId = "1C9972D2-AAA2-4EE5-9F28-188B121D2056";
paths = (
{
closed = 1;
nodes = (
"329 415 LINE",
"378 415 LINE",
"378 483 LINE",
"329 483 LINE"
);
}
);
width = 748;
},
{
components = (
{
name = t;
},
{
alignment = -1;
name = t;
transform = "{1, 0, 0, 1, 333, 0}";
}
);
layerId = "033ADDEA-23CB-49AC-A4FC-FA912A776280";
paths = (
{
closed = 1;
nodes = (
"329 415 LINE",
"378 415 LINE",
"378 483 LINE",
"329 483 LINE"
);
}
);
width = 748;
}
);
leftMetricsKey = t;
rightMetricsKey = t;
},
{
glyphname = ordfeminine;
lastChange = "2020-03-10 22:01:01 +0000";
layers = (
{
layerId = "1C9972D2-AAA2-4EE5-9F28-188B121D2056";
width = 1016;
},
{
layerId = "033ADDEA-23CB-49AC-A4FC-FA912A776280";
paths = (
{
closed = 1;
nodes = (
"829 1114 OFFCURVE",
"827 1038 OFFCURVE",
"836 976 CURVE",
"904 976 LINE",
"894 1047 OFFCURVE",
"896 1123 OFFCURVE",
"912 1220 CURVE SMOOTH",
"984 1652 LINE",
"1025 1902 OFFCURVE",
"939 2032 OFFCURVE",
"722 2032 CURVE SMOOTH",
"514 2032 OFFCURVE",
"361 1915 OFFCURVE",
"318 1716 CURVE",
"382 1710 LINE",
"423 1878 OFFCURVE",
"543 1968 OFFCURVE",
"722 1968 CURVE SMOOTH",
"899 1968 OFFCURVE",
"956 1877 OFFCURVE",
"920 1652 CURVE",
"844 1184 LINE"
);
},
{
closed = 1;
nodes = (
"680 1548 LINE SMOOTH",
"406 1548 OFFCURVE",
"260 1450 OFFCURVE",
"224 1244 CURVE SMOOTH",
"195 1078 OFFCURVE",
"302 952 OFFCURVE",
"480 952 CURVE SMOOTH",
"595 952 OFFCURVE",
"706 1003 OFFCURVE",
"864 1132 CURVE",
"848 1174 LINE",
"727 1069 OFFCURVE",
"600 1014 OFFCURVE",
"482 1016 CURVE SMOOTH",
"334 1018 OFFCURVE",
"265 1099 OFFCURVE",
"288 1244 CURVE SMOOTH",
"313 1403 OFFCURVE",
"448 1488 OFFCURVE",
"670 1488 CURVE SMOOTH",
"906 1488 LINE",
"916 1548 LINE"
);
}
);
width = 1016;
}
);
leftKerningGroup = dagger;
rightKerningGroup = dagger;
unicode = 00AA;
userData = {
interface.gridadjust.original = "{'width': 1262, 'leftMargin': 199, 'rightMargin': 177}";
"interface.width-adjustments" = (
-16
);
};
},
{
glyphname = ordmasculine;
lastChange = "2020-03-10 22:04:00 +0000";
layers = (
{
guideLines = (
{
angle = 180;
position = "{181, 650}";
},
{
angle = 270;
position = "{89, 550}";
},
{
angle = 270;
position = "{253, 550}";
},
{
position = "{169, 472}";
}
);
layerId = "1C9972D2-AAA2-4EE5-9F28-188B121D2056";
paths = (
{
closed = 1;
nodes = (
"5 470 OFFCURVE",
"79 396 OFFCURVE",
"170 396 CURVE SMOOTH",
"261 396 OFFCURVE",
"335 470 OFFCURVE",
"335 562 CURVE SMOOTH",
"335 652 OFFCURVE",
"261 726 OFFCURVE",
"170 726 CURVE SMOOTH",
"79 726 OFFCURVE",
"5 652 OFFCURVE",
"5 562 CURVE SMOOTH"
);
},
{
closed = 1;
nodes = (
"84 611 OFFCURVE",
"122 651 OFFCURVE",
"167 651 CURVE SMOOTH",
"214 651 OFFCURVE",
"251 611 OFFCURVE",
"251 563 CURVE SMOOTH",
"251 514 OFFCURVE",
"214 474 OFFCURVE",
"167 474 CURVE SMOOTH",
"122 474 OFFCURVE",
"84 514 OFFCURVE",
"84 563 CURVE SMOOTH"
);
}
);
width = 340;
},
{
layerId = "033ADDEA-23CB-49AC-A4FC-FA912A776280";
width = 600;
}
);
note = ordmasculine;
unicode = 00BA;
},
{
glyphname = "Be-cy";
lastChange = "2020-03-10 21:49:07 +0000";
layers = (
{
layerId = "1C9972D2-AAA2-4EE5-9F28-188B121D2056";
paths = (
{
closed = 1;
nodes = (
"410 0 LINE SMOOTH",
"424 0 OFFCURVE",
"438 1 OFFCURVE",
"456 3 CURVE SMOOTH",
"592 18 OFFCURVE",
"644 113 OFFCURVE",
"645 221 CURVE SMOOTH",
"646 332 OFFCURVE",
"557 425 OFFCURVE",
"453 431 CURVE SMOOTH",
"435 432 OFFCURVE",
"424 433 OFFCURVE",
"410 433 CURVE SMOOTH",
"167 433 LINE",
"167 637 LINE",
"576 637 LINE",
"576 713 LINE",
"85 713 LINE",
"85 0 LINE"
);
},
{
closed = 1;
nodes = (
"167 360 LINE",
"410 360 LINE SMOOTH",
"421 360 OFFCURVE",
"438 359 OFFCURVE",
"454 356 CURVE SMOOTH",
"505 346 OFFCURVE",
"565 302 OFFCURVE",
"565 221 CURVE SMOOTH",
"565 140 OFFCURVE",
"532 92 OFFCURVE",
"449 76 CURVE SMOOTH",
"433 73 OFFCURVE",
"416 73 OFFCURVE",
"405 73 CURVE SMOOTH",
"167 73 LINE"
);
}
);
width = 685;
},
{
layerId = "033ADDEA-23CB-49AC-A4FC-FA912A776280";
paths = (
{
closed = 1;
nodes = (
"370 0 LINE SMOOTH",
"384 0 OFFCURVE",
"398 1 OFFCURVE",
"416 3 CURVE SMOOTH",
"555 18 OFFCURVE",
"623 113 OFFCURVE",
"642 221 CURVE SMOOTH",
"661 332 OFFCURVE",
"587 425 OFFCURVE",
"484 431 CURVE SMOOTH",
"467 432 OFFCURVE",
"456 433 OFFCURVE",
"442 433 CURVE SMOOTH",
"199 433 LINE",
"232 637 LINE",
"641 637 LINE",
"654 713 LINE",
"163 713 LINE",
"45 0 LINE"
);
},
{
closed = 1;
nodes = (
"187 360 LINE",
"430 360 LINE SMOOTH",
"441 360 OFFCURVE",
"457 359 OFFCURVE",
"473 356 CURVE SMOOTH",
"522 346 OFFCURVE",
"575 302 OFFCURVE",
"562 221 CURVE SMOOTH",
"548 140 OFFCURVE",
"507 92 OFFCURVE",
"422 76 CURVE SMOOTH",
"405 73 OFFCURVE",
"388 73 OFFCURVE",
"377 73 CURVE SMOOTH",
"139 73 LINE"
);
}
);
width = 685;
}
);
leftKerningGroup = N;
leftMetricsKey = B;
rightKerningGroup = P;
unicode = 0411;
},
{
glyphname = "Ge-cy";
lastChange = "2020-03-10 21:49:07 +0000";
layers = (
{
layerId = "1C9972D2-AAA2-4EE5-9F28-188B121D2056";
paths = (
{
closed = 1;
nodes = (
"167 0 LINE",
"167 637 LINE",
"579 637 LINE",
"579 713 LINE",
"85 713 LINE",
"85 0 LINE"
);
}
);
width = 599;
},
{
layerId = "033ADDEA-23CB-49AC-A4FC-FA912A776280";
paths = (
{
closed = 1;
nodes = (
"127 0 LINE",
"232 637 LINE",
"644 637 LINE",
"657 713 LINE",
"163 713 LINE",
"45 0 LINE"
);
}
);
width = 599;
}
);
leftKerningGroup = B;
leftMetricsKey = B;
rightKerningGroup = T;
rightMetricsKey = T;
unicode = 0413;
},
{
glyphname = "Gheupturn-cy";
lastChange = "2020-03-10 21:49:07 +0000";
layers = (
{
components = (
{
name = "Ge-cy";
}
);
layerId = "1C9972D2-AAA2-4EE5-9F28-188B121D2056";
paths = (
{
closed = 1;
nodes = (
"443 637 LINE",
"525 637 LINE",
"525 847 LINE",
"443 847 LINE"
);
}
);
width = 609;
},
{
components = (
{
name = "Ge-cy";
}
);
layerId = "033ADDEA-23CB-49AC-A4FC-FA912A776280";
paths = (
{
closed = 1;
nodes = (
"430 637 LINE",
"512 637 LINE",
"547 847 LINE",
"465 847 LINE"
);
}
);
width = 599;
}
);
leftKerningGroup = B;
rightKerningGroup = T;
unicode = 0490;
},
{
glyphname = "De-cy";
lastChange = "2020-03-10 21:49:07 +0000";
layers = (
{
layerId = "1C9972D2-AAA2-4EE5-9F28-188B121D2056";
paths = (
{
closed = 1;
nodes = (
"95 -182 LINE",
"95 0 LINE",
"663 0 LINE",
"663 -182 LINE",
"739 -182 LINE",
"739 76 LINE",
"651 76 LINE",
"651 713 LINE",
"173 713 LINE",
"165 549 OFFCURVE",
"171 437 OFFCURVE",
"155 298 CURVE SMOOTH",
"141 178 OFFCURVE",
"124 131 OFFCURVE",
"79 76 CURVE",
"15 76 LINE",
"15 -182 LINE"
);
},
{
closed = 1;
nodes = (
"194 127 OFFCURVE",
"219 170 OFFCURVE",
"231 290 CURVE SMOOTH",
"245 426 OFFCURVE",
"247 497 OFFCURVE",
"249 637 CURVE",
"569 637 LINE",
"569 76 LINE",
"161 77 LINE"
);
}
);
width = 769;
},
{
layerId = "033ADDEA-23CB-49AC-A4FC-FA912A776280";
paths = (
{
closed = 1;
nodes = (
"25 -182 LINE",
"55 0 LINE",
"623 0 LINE",
"593 -182 LINE",
"669 -182 LINE",
"712 76 LINE",
"624 76 LINE",
"729 713 LINE",
"251 713 LINE",
"216 549 OFFCURVE",
"203 437 OFFCURVE",
"164 298 CURVE SMOOTH",
"130 178 OFFCURVE",
"106 131 OFFCURVE",
"52 76 CURVE",
"-12 76 LINE",
"-55 -182 LINE"
);
},
{
closed = 1;
nodes = (
"175 127 OFFCURVE",
"207 170 OFFCURVE",
"239 290 CURVE SMOOTH",
"276 426 OFFCURVE",
"289 497 OFFCURVE",
"314 637 CURVE",
"634 637 LINE",
"542 76 LINE",
"134 77 LINE"
);
}
);
width = 769;
}
);
leftKerningGroup = A;
rightKerningGroup = N;
unicode = 0414;
},
{
glyphname = "Zhe-cy";
lastChange = "2020-03-10 21:49:07 +0000";
layers = (
{
layerId = "1C9972D2-AAA2-4EE5-9F28-188B121D2056";
paths = (
{
closed = 1;
nodes = (
"15 0 LINE",
"110 0 LINE",
"367 362 LINE",
"458 260 LINE",
"458 0 LINE",
"535 0 LINE",
"535 260 LINE",
"629 362 LINE",
"884 0 LINE",
"979 0 LINE",
"688 418 LINE",
"953 713 LINE",
"853 713 LINE",
"535 358 LINE",
"535 713 LINE",
"458 713 LINE",
"458 358 LINE",
"140 713 LINE",
"41 713 LINE",
"305 418 LINE"
);
}
);
width = 994;
},
{
layerId = "033ADDEA-23CB-49AC-A4FC-FA912A776280";
paths = (
{
closed = 1;
nodes = (
"-25 0 LINE",
"70 0 LINE",
"387 362 LINE",
"461 260 LINE",
"418 0 LINE",
"495 0 LINE",
"538 260 LINE",
"649 362 LINE",
"844 0 LINE",
"939 0 LINE",
"717 418 LINE",
"1031 713 LINE",
"931 713 LINE",
"554 358 LINE",
"613 713 LINE",
"536 713 LINE",
"477 358 LINE",
"218 713 LINE",
"119 713 LINE",
"334 418 LINE"
);
}
);
width = 994;
}
);
leftKerningGroup = X;
leftMetricsKey = W;
rightKerningGroup = K;
rightMetricsKey = W;
unicode = 0416;
},
{
glyphname = "Ze-cy";
lastChange = "2020-03-10 21:49:07 +0000";
layers = (
{
layerId = "1C9972D2-AAA2-4EE5-9F28-188B121D2056";
paths = (
{
closed = 1;
nodes = (
"434 -7 OFFCURVE",
"566 78 OFFCURVE",
"566 199 CURVE SMOOTH",
"566 294 OFFCURVE",
"508 348 OFFCURVE",
"418 379 CURVE",
"483 404 OFFCURVE",
"540 452 OFFCURVE",
"540 538 CURVE SMOOTH",
"540 663 OFFCURVE",
"413 724 OFFCURVE",
"285 724 CURVE SMOOTH",
"177 724 OFFCURVE",
"102 679 OFFCURVE",
"59 640 CURVE",
"37 619 LINE",
"94 567 LINE",
"116 587 LINE",
"158 623 OFFCURVE",
"226 648 OFFCURVE",
"282 648 CURVE SMOOTH",
"392 648 OFFCURVE",
"452 598 OFFCURVE",
"452 536 CURVE SMOOTH",
"452 458 OFFCURVE",
"378 423 OFFCURVE",
"310 418 CURVE",
"197 418 LINE",
"197 341 LINE",
"310 340 LINE",
"405 336 OFFCURVE",
"479 281 OFFCURVE",
"479 201 CURVE SMOOTH",
"479 98 OFFCURVE",
"347 69 OFFCURVE",
"291 69 CURVE SMOOTH",
"198 69 OFFCURVE",
"126 107 OFFCURVE",
"85 145 CURVE",
"67 161 LINE",
"10 107 LINE",
"20 95 LINE",
"96 17 OFFCURVE",
"207 -7 OFFCURVE",
"290 -7 CURVE SMOOTH"
);
}
);
width = 581;
},
{
layerId = "033ADDEA-23CB-49AC-A4FC-FA912A776280";
paths = (
{
closed = 1;
nodes = (
"393 -7 OFFCURVE",
"539 78 OFFCURVE",
"559 199 CURVE SMOOTH",
"575 294 OFFCURVE",
"526 348 OFFCURVE",
"441 379 CURVE",
"510 404 OFFCURVE",
"575 452 OFFCURVE",
"589 538 CURVE SMOOTH",
"610 663 OFFCURVE",
"493 724 OFFCURVE",
"365 724 CURVE SMOOTH",
"257 724 OFFCURVE",
"174 679 OFFCURVE",
"125 640 CURVE",
"99 619 LINE",
"148 567 LINE",
"173 587 LINE",
"221 623 OFFCURVE",
"293 648 OFFCURVE",
"349 648 CURVE SMOOTH",
"459 648 OFFCURVE",
"511 598 OFFCURVE",
"501 536 CURVE SMOOTH",
"488 458 OFFCURVE",
"408 423 OFFCURVE",
"339 418 CURVE",
"226 418 LINE",
"213 341 LINE",
"326 340 LINE",
"421 336 OFFCURVE",
"486 281 OFFCURVE",
"472 201 CURVE SMOOTH",
"455 98 OFFCURVE",
"318 69 OFFCURVE",
"262 69 CURVE SMOOTH",
"169 69 OFFCURVE",
"104 107 OFFCURVE",
"69 145 CURVE",
"54 161 LINE",
"-12 107 LINE",
"-4 95 LINE",
"59 17 OFFCURVE",
"166 -7 OFFCURVE",
"249 -7 CURVE SMOOTH"
);
}
);
width = 581;
}
);
leftKerningGroup = O;
leftMetricsKey = S;
rightKerningGroup = B;
unicode = 0417;
},
{
glyphname = "Ii-cy";
lastChange = "2020-03-10 21:49:07 +0000";
layers = (
{
components = (
{
name = N;
transform = "{-1, 0, 0, 1, 739, 0}";
}
);
layerId = "1C9972D2-AAA2-4EE5-9F28-188B121D2056";
width = 739;
},
{
layerId = "033ADDEA-23CB-49AC-A4FC-FA912A776280";
paths = (
{
closed = 1;
nodes = (
"652 713 LINE",
"732 713 LINE",
"614 0 LINE",
"534 0 LINE"
);
},
{
closed = 1;
nodes = (
"697 669 LINE",
"138 0 LINE",
"98 0 LINE",
"57 18 LINE",
"644 713 LINE",
"679 713 LINE"
);
},
{
closed = 1;
nodes = (
"163 713 LINE",
"243 713 LINE",
"125 0 LINE",
"45 0 LINE"
);
}
);
width = 739;
}
);
leftKerningGroup = N;
rightKerningGroup = N;
unicode = 0418;
},
{
glyphname = "Iishort-cy";
lastChange = "2020-03-10 21:49:07 +0000";
layers = (
{
components = (
{
name = brevecomb;
transform = "{1, 0, 0, 1, 153, 0}";
},
{
name = N;
transform = "{-1, 0, 0, 1, 739, 0}";
}
);
layerId = "1C9972D2-AAA2-4EE5-9F28-188B121D2056";
width = 739;
},
{
components = (
{
name = brevecomb;
transform = "{1, 0, 0, 1, 63, 0}";
}
);
layerId = "033ADDEA-23CB-49AC-A4FC-FA912A776280";
paths = (
{
closed = 1;
nodes = (
"652 713 LINE",
"732 713 LINE",
"614 0 LINE",
"534 0 LINE"
);
},
{
closed = 1;
nodes = (
"697 669 LINE",
"138 0 LINE",
"98 0 LINE",
"57 18 LINE",
"644 713 LINE",
"679 713 LINE"
);
},
{
closed = 1;
nodes = (
"163 713 LINE",
"243 713 LINE",
"125 0 LINE",
"45 0 LINE"
);
}
);
width = 739;
}
);
leftKerningGroup = N;
leftMetricsKey = N;
rightKerningGroup = N;
rightMetricsKey = N;
unicode = 0419;
},
{
glyphname = "El-cy";
lastChange = "2020-03-10 21:49:07 +0000";
layers = (
{
layerId = "1C9972D2-AAA2-4EE5-9F28-188B121D2056";
paths = (
{
closed = 1;
nodes = (
"162 -45 OFFCURVE",
"201 70 OFFCURVE",
"218 184 CURVE SMOOTH",
"245 365 OFFCURVE",
"242 467 OFFCURVE",
"248 637 CURVE",
"574 637 LINE",
"574 0 LINE",
"656 0 LINE",
"656 713 LINE",
"169 713 LINE",
"164 550 OFFCURVE",
"166 407 OFFCURVE",
"148 247 CURVE SMOOTH",
"130 86 OFFCURVE",
"104 55 OFFCURVE",
"24 64 CURVE",
"12 -3 LINE"
);
}
);
width = 741;
},
{
layerId = "033ADDEA-23CB-49AC-A4FC-FA912A776280";
paths = (
{
closed = 1;
nodes = (
"115 -45 OFFCURVE",
"173 70 OFFCURVE",
"208 184 CURVE SMOOTH",
"265 365 OFFCURVE",
"279 467 OFFCURVE",
"313 637 CURVE",
"639 637 LINE",
"534 0 LINE",
"616 0 LINE",
"734 713 LINE",
"247 713 LINE",
"215 550 OFFCURVE",
"193 407 OFFCURVE",
"149 247 CURVE SMOOTH",
"104 86 OFFCURVE",
"73 55 OFFCURVE",
"-5 64 CURVE",
"-28 -3 LINE"
);
}
);
width = 741;
}
);
leftKerningGroup = A;
rightKerningGroup = H;
rightMetricsKey = H;
unicode = 041B;
},
{
glyphname = "Pe-cy";
lastChange = "2020-03-10 21:49:07 +0000";
layers = (
{
layerId = "1C9972D2-AAA2-4EE5-9F28-188B121D2056";
paths = (
{
closed = 1;
nodes = (
"167 0 LINE",
"167 637 LINE",
"575 637 LINE",
"575 0 LINE",
"657 0 LINE",
"657 713 LINE",
"85 713 LINE",
"85 0 LINE"
);
}
);
width = 742;
},
{
layerId = "033ADDEA-23CB-49AC-A4FC-FA912A776280";
paths = (
{
closed = 1;
nodes = (
"127 0 LINE",
"232 637 LINE",
"640 637 LINE",
"535 0 LINE",
"617 0 LINE",
"735 713 LINE",
"163 713 LINE",
"45 0 LINE"
);
}
);
width = 742;
}
);
leftKerningGroup = H;
leftMetricsKey = H;
rightKerningGroup = H;
rightMetricsKey = H;
unicode = 041F;
},
{
glyphname = "U-cy";
lastChange = "2020-03-10 21:49:07 +0000";
layers = (
{
layerId = "1C9972D2-AAA2-4EE5-9F28-188B121D2056";
paths = (
{
closed = 1;
nodes = (
"91 0 LINE",
"96 -2 OFFCURVE",
"103 -4 OFFCURVE",
"110 -5 CURVE SMOOTH",
"123 -7 OFFCURVE",
"139 -10 OFFCURVE",
"156 -10 CURVE SMOOTH",
"256 -10 OFFCURVE",
"308 41 OFFCURVE",
"364 155 CURVE",
"629 713 LINE",
"545 714 LINE",
"330 268 LINE",
"104 713 LINE",
"10 713 LINE",
"288 180 LINE",
"281 155 LINE SMOOTH",
"265 98 OFFCURVE",
"215 64 OFFCURVE",
"151 64 CURVE SMOOTH",
"134 64 OFFCURVE",
"119 66 OFFCURVE",
"108 68 CURVE SMOOTH",
"101 69 OFFCURVE",
"96 71 OFFCURVE",
"91 72 CURVE"
);
}
);
width = 639;
},
{
layerId = "033ADDEA-23CB-49AC-A4FC-FA912A776280";
paths = (
{
closed = 1;
nodes = (
"51 0 LINE",
"56 -2 OFFCURVE",
"62 -4 OFFCURVE",
"69 -5 CURVE SMOOTH",
"82 -7 OFFCURVE",
"97 -10 OFFCURVE",
"114 -10 CURVE SMOOTH",
"214 -10 OFFCURVE",
"275 41 OFFCURVE",
"350 155 CURVE",
"707 713 LINE",
"623 714 LINE",
"334 268 LINE",
"182 713 LINE",
"88 713 LINE",
"278 180 LINE",
"267 155 LINE SMOOTH",
"241 98 OFFCURVE",
"186 64 OFFCURVE",
"122 64 CURVE SMOOTH",
"105 64 OFFCURVE",
"90 66 OFFCURVE",
"79 68 CURVE SMOOTH",
"72 69 OFFCURVE",
"68 71 OFFCURVE",
"63 72 CURVE"
);
}
);
width = 639;
}
);
leftKerningGroup = X;
leftMetricsKey = y;
rightKerningGroup = Y;
rightMetricsKey = y;
unicode = 0423;
},
{
glyphname = "Ef-cy";
lastChange = "2020-03-10 21:49:07 +0000";
layers = (
{
layerId = "1C9972D2-AAA2-4EE5-9F28-188B121D2056";
paths = (
{
closed = 1;
nodes = (
"455 0 LINE",
"456 65 LINE",
"621 60 OFFCURVE",
"791 157 OFFCURVE",
"791 363 CURVE SMOOTH",
"791 559 OFFCURVE",
"631 658 OFFCURVE",
"456 658 CURVE",
"456 734 LINE",
"375 734 LINE",
"375 658 LINE",
"182 651 OFFCURVE",
"40 550 OFFCURVE",
"40 360 CURVE SMOOTH",
"40 160 OFFCURVE",
"211 60 OFFCURVE",
"375 64 CURVE",
"375 0 LINE"
);
},
{
closed = 1;
nodes = (
"209 131 OFFCURVE",
"121 244 OFFCURVE",
"121 360 CURVE SMOOTH",
"121 505 OFFCURVE",
"224 584 OFFCURVE",
"375 584 CURVE",
"375 137 LINE"
);
},
{
closed = 1;
nodes = (
"457 584 LINE",
"609 584 OFFCURVE",
"711 501 OFFCURVE",
"711 363 CURVE SMOOTH",
"711 288 OFFCURVE",
"679 143 OFFCURVE",
"457 136 CURVE"
);
}
);
width = 831;
},
{
layerId = "033ADDEA-23CB-49AC-A4FC-FA912A776280";
paths = (
{
closed = 1;
nodes = (
"420 0 LINE",
"432 65 LINE",
"596 60 OFFCURVE",
"782 157 OFFCURVE",
"816 363 CURVE SMOOTH",
"849 559 OFFCURVE",
"705 658 OFFCURVE",
"530 658 CURVE",
"543 734 LINE",
"462 734 LINE",
"449 658 LINE",
"255 651 OFFCURVE",
"96 550 OFFCURVE",
"65 360 CURVE SMOOTH",
"31 160 OFFCURVE",
"186 60 OFFCURVE",
"351 64 CURVE",
"340 0 LINE"
);
},
{
closed = 1;
nodes = (
"196 131 OFFCURVE",
"126 244 OFFCURVE",
"146 360 CURVE SMOOTH",
"170 505 OFFCURVE",
"286 584 OFFCURVE",
"437 584 CURVE",
"363 137 LINE"
);
},
{
closed = 1;
nodes = (
"519 584 LINE",
"671 584 OFFCURVE",
"759 501 OFFCURVE",
"736 363 CURVE SMOOTH",
"724 288 OFFCURVE",
"668 143 OFFCURVE",
"445 136 CURVE"
);
}
);
width = 841;
}
);
leftKerningGroup = O;
leftMetricsKey = O;
rightKerningGroup = O;
rightMetricsKey = O;
unicode = 0424;
},
{
glyphname = "Che-cy";
lastChange = "2020-03-10 21:49:07 +0000";
layers = (
{
background = {
paths = (
{
closed = 1;
nodes = (
"627 0 LINE",
"627 720 LINE",
"490 720 LINE",
"490 359 LINE",
"505 420 LINE",
"480 387 OFFCURVE",
"428 360 OFFCURVE",
"352 360 CURVE SMOOTH",
"316 360 OFFCURVE",
"275 366 OFFCURVE",
"249 402 CURVE SMOOTH",
"219 444 OFFCURVE",
"219 514 OFFCURVE",
"219 554 CURVE SMOOTH",
"219 720 LINE",
"81 720 LINE",
"81 523 LINE SMOOTH",
"81 468 OFFCURVE",
"81 383 OFFCURVE",
"133 314 CURVE SMOOTH",
"181 251 OFFCURVE",
"249 232 OFFCURVE",
"325 232 CURVE SMOOTH",
"398 232 OFFCURVE",
"472 250 OFFCURVE",
"509 283 CURVE",
"490 314 LINE",
"490 0 LINE"
);
}
);
};
layerId = "1C9972D2-AAA2-4EE5-9F28-188B121D2056";
paths = (
{
closed = 1;
nodes = (
"515 0 LINE",
"597 0 LINE",
"598 713 LINE",
"515 713 LINE",
"515 390 LINE",
"502 376 OFFCURVE",
"486 363 OFFCURVE",
"468 352 CURVE SMOOTH",
"437 333 OFFCURVE",
"392 315 OFFCURVE",
"335 315 CURVE SMOOTH",
"224 315 OFFCURVE",
"167 377 OFFCURVE",
"167 490 CURVE SMOOTH",
"167 713 LINE",
"85 713 LINE",
"85 490 LINE SMOOTH",
"85 338 OFFCURVE",
"178 235 OFFCURVE",
"325 235 CURVE SMOOTH",
"382 235 OFFCURVE",
"430 250 OFFCURVE",
"463 265 CURVE SMOOTH",
"482 274 OFFCURVE",
"500 284 OFFCURVE",
"515 295 CURVE"
);
}
);
width = 683;
},
{
layerId = "033ADDEA-23CB-49AC-A4FC-FA912A776280";
paths = (
{
closed = 1;
nodes = (
"475 0 LINE",
"557 0 LINE",
"676 713 LINE",
"593 713 LINE",
"540 390 LINE",
"524 376 OFFCURVE",
"506 363 OFFCURVE",
"486 352 CURVE SMOOTH",
"452 333 OFFCURVE",
"404 315 OFFCURVE",
"347 315 CURVE SMOOTH",
"236 315 OFFCURVE",
"189 377 OFFCURVE",
"208 490 CURVE SMOOTH",
"245 713 LINE",
"163 713 LINE",
"126 490 LINE SMOOTH",
"101 338 OFFCURVE",
"177 235 OFFCURVE",
"324 235 CURVE SMOOTH",
"381 235 OFFCURVE",
"431 250 OFFCURVE",
"467 265 CURVE SMOOTH",
"487 274 OFFCURVE",
"507 284 OFFCURVE",
"524 295 CURVE"
);
}
);
width = 683;
}
);
leftKerningGroup = M;
leftMetricsKey = M;
rightKerningGroup = N;
rightMetricsKey = M;
unicode = 0427;
},
{
glyphname = "Tse-cy";
lastChange = "2020-03-10 21:49:07 +0000";
layers = (
{
layerId = "1C9972D2-AAA2-4EE5-9F28-188B121D2056";
paths = (
{
closed = 1;
nodes = (
"726 -175 LINE",
"726 76 LINE",
"644 76 LINE",
"644 713 LINE",
"563 713 LINE",
"562 76 LINE",
"167 76 LINE",
"166 720 LINE",
"85 720 LINE",
"85 0 LINE",
"648 0 LINE",
"649 -175 LINE"
);
}
);
width = 761;
},
{
layerId = "033ADDEA-23CB-49AC-A4FC-FA912A776280";
paths = (
{
closed = 1;
nodes = (
"657 -175 LINE",
"699 76 LINE",
"617 76 LINE",
"722 713 LINE",
"641 713 LINE",
"535 76 LINE",
"140 76 LINE",
"245 720 LINE",
"164 720 LINE",
"45 0 LINE",
"608 0 LINE",
"580 -175 LINE"
);
}
);
width = 761;
}
);
leftKerningGroup = H;
leftMetricsKey = H;
rightKerningGroup = "tse-cy";
rightMetricsKey = "tse-cy";
unicode = 0426;
},
{
glyphname = "Sha-cy";
lastChange = "2020-03-10 21:49:07 +0000";
layers = (
{
layerId = "1C9972D2-AAA2-4EE5-9F28-188B121D2056";
paths = (
{
closed = 1;
nodes = (
"932 0 LINE",
"932 713 LINE",
"850 713 LINE",
"850 74 LINE",
"551 74 LINE",
"551 713 LINE",
"469 713 LINE",
"469 74 LINE",
"167 74 LINE",
"167 713 LINE",
"85 713 LINE",
"85 0 LINE"
);
}
);
width = 1017;
},
{
layerId = "033ADDEA-23CB-49AC-A4FC-FA912A776280";
paths = (
{
closed = 1;
nodes = (
"892 0 LINE",
"1010 713 LINE",
"928 713 LINE",
"822 74 LINE",
"523 74 LINE",
"629 713 LINE",
"547 713 LINE",
"441 74 LINE",
"139 74 LINE",
"245 713 LINE",
"163 713 LINE",
"45 0 LINE"
);
}
);
width = 1017;
}
);
leftKerningGroup = H;
leftMetricsKey = H;
rightKerningGroup = H;
rightMetricsKey = H;
unicode = 0428;
},
{
glyphname = "Shcha-cy";
lastChange = "2020-03-10 21:49:07 +0000";
layers = (
{
components = (
{
name = "Sha-cy";
}
);
layerId = "1C9972D2-AAA2-4EE5-9F28-188B121D2056";
paths = (
{
closed = 1;
nodes = (
"993 -174 LINE",
"993 73 LINE",
"763 73 LINE",
"763 0 LINE",
"915 0 LINE",
"915 -174 LINE"
);
}
);
width = 1023;
},
{
components = (
{
name = "Sha-cy";
}
);
layerId = "033ADDEA-23CB-49AC-A4FC-FA912A776280";
paths = (
{
closed = 1;
nodes = (
"984 -174 LINE",
"1025 73 LINE",
"795 73 LINE",
"783 0 LINE",
"935 0 LINE",
"906 -174 LINE"
);
}
);
width = 1083;
}
);
leftKerningGroup = H;
leftMetricsKey = H;
rightKerningGroup = "tse-cy";
unicode = 0429;
},
{
glyphname = "Dzhe-cy";
lastChange = "2020-03-10 21:49:07 +0000";
layers = (
{
layerId = "1C9972D2-AAA2-4EE5-9F28-188B121D2056";
paths = (
{
closed = 1;
nodes = (
"419 -120 LINE",
"419 0 LINE",
"671 0 LINE",
"671 713 LINE",
"589 713 LINE",
"589 76 LINE",
"167 76 LINE",
"167 713 LINE",
"85 713 LINE",
"85 0 LINE",
"337 0 LINE",
"337 -120 LINE"
);
}
);
width = 756;
},
{
layerId = "033ADDEA-23CB-49AC-A4FC-FA912A776280";
paths = (
{
closed = 1;
nodes = (
"359 -120 LINE",
"379 0 LINE",
"631 0 LINE",
"749 713 LINE",
"667 713 LINE",
"562 76 LINE",
"140 76 LINE",
"245 713 LINE",
"163 713 LINE",
"45 0 LINE",
"297 0 LINE",
"277 -120 LINE"
);
}
);
width = 756;
}
);
leftKerningGroup = "Sha-cy";
leftMetricsKey = "Sha-cy";
rightKerningGroup = "Sha-cy";
rightMetricsKey = "Sha-cy";
unicode = 040F;
},
{
glyphname = "Softsign-cy";
lastChange = "2020-03-10 21:49:07 +0000";
layers = (
{
layerId = "1C9972D2-AAA2-4EE5-9F28-188B121D2056";
paths = (
{
closed = 1;
nodes = (
"363 0 LINE SMOOTH",
"377 0 OFFCURVE",
"402 0 OFFCURVE",
"421 4 CURVE SMOOTH",
"549 31 OFFCURVE",
"612 114 OFFCURVE",
"612 235 CURVE SMOOTH",
"612 356 OFFCURVE",
"537 437 OFFCURVE",
"433 459 CURVE SMOOTH",
"414 463 OFFCURVE",
"386 464 OFFCURVE",
"373 464 CURVE SMOOTH",
"165 464 LINE",
"165 713 LINE",
"85 713 LINE",
"85 0 LINE"
);
},
{
closed = 1;
nodes = (
"165 388 LINE",
"367 388 LINE SMOOTH",
"381 388 OFFCURVE",
"400 388 OFFCURVE",
"414 384 CURVE SMOOTH",
"469 368 OFFCURVE",
"530 329 OFFCURVE",
"530 237 CURVE SMOOTH",
"530 124 OFFCURVE",
"469 97 OFFCURVE",
"414 81 CURVE SMOOTH",
"400 77 OFFCURVE",
"381 77 OFFCURVE",
"367 77 CURVE SMOOTH",
"165 76 LINE"
);
}
);
width = 662;
},
{
layerId = "033ADDEA-23CB-49AC-A4FC-FA912A776280";
paths = (
{
closed = 1;
nodes = (
"323 0 LINE SMOOTH",
"337 0 OFFCURVE",
"362 0 OFFCURVE",
"382 4 CURVE SMOOTH",
"514 31 OFFCURVE",
"591 114 OFFCURVE",
"611 235 CURVE SMOOTH",
"631 356 OFFCURVE",
"569 437 OFFCURVE",
"469 459 CURVE SMOOTH",
"451 463 OFFCURVE",
"423 464 OFFCURVE",
"410 464 CURVE SMOOTH",
"202 464 LINE",
"243 713 LINE",
"163 713 LINE",
"45 0 LINE"
);
},
{
closed = 1;
nodes = (
"189 388 LINE",
"391 388 LINE SMOOTH",
"405 388 OFFCURVE",
"424 388 OFFCURVE",
"438 384 CURVE SMOOTH",
"490 368 OFFCURVE",
"544 329 OFFCURVE",
"529 237 CURVE SMOOTH",
"511 124 OFFCURVE",
"445 97 OFFCURVE",
"387 81 CURVE SMOOTH",
"373 77 OFFCURVE",
"354 77 OFFCURVE",
"340 77 CURVE SMOOTH",
"138 76 LINE"
);
}
);
width = 662;
}
);
leftKerningGroup = H;
leftMetricsKey = H;
rightKerningGroup = B;
rightMetricsKey = b;
unicode = 042C;
},
{
glyphname = "Hardsign-cy";
lastChange = "2020-03-10 21:49:07 +0000";
layers = (
{
layerId = "1C9972D2-AAA2-4EE5-9F28-188B121D2056";
paths = (
{
closed = 1;
nodes = (
"449 0 LINE SMOOTH",
"463 0 OFFCURVE",
"488 0 OFFCURVE",
"507 4 CURVE SMOOTH",
"635 29 OFFCURVE",
"698 114 OFFCURVE",
"698 235 CURVE SMOOTH",
"698 356 OFFCURVE",
"623 439 OFFCURVE",
"519 459 CURVE SMOOTH",
"500 463 OFFCURVE",
"472 464 OFFCURVE",
"459 464 CURVE SMOOTH",
"251 464 LINE",
"251 713 LINE",
"15 713 LINE",
"15 637 LINE",
"169 637 LINE",
"169 0 LINE"
);
},
{
closed = 1;
nodes = (
"251 388 LINE",
"453 388 LINE SMOOTH",
"467 388 OFFCURVE",
"486 388 OFFCURVE",
"500 384 CURVE SMOOTH",
"555 369 OFFCURVE",
"616 329 OFFCURVE",
"616 237 CURVE SMOOTH",
"616 124 OFFCURVE",
"555 96 OFFCURVE",
"500 81 CURVE SMOOTH",
"486 77 OFFCURVE",
"467 76 OFFCURVE",
"453 76 CURVE SMOOTH",
"251 76 LINE"
);
}
);
width = 733;
},
{
layerId = "033ADDEA-23CB-49AC-A4FC-FA912A776280";
paths = (
{
closed = 1;
nodes = (
"409 0 LINE SMOOTH",
"423 0 OFFCURVE",
"448 0 OFFCURVE",
"468 4 CURVE SMOOTH",
"600 29 OFFCURVE",
"677 114 OFFCURVE",
"697 235 CURVE SMOOTH",
"717 356 OFFCURVE",
"656 439 OFFCURVE",
"555 459 CURVE SMOOTH",
"537 463 OFFCURVE",
"509 464 OFFCURVE",
"496 464 CURVE SMOOTH",
"288 464 LINE",
"329 713 LINE",
"93 713 LINE",
"80 637 LINE",
"234 637 LINE",
"129 0 LINE"
);
},
{
closed = 1;
nodes = (
"275 388 LINE",
"477 388 LINE SMOOTH",
"491 388 OFFCURVE",
"510 388 OFFCURVE",
"524 384 CURVE SMOOTH",
"576 369 OFFCURVE",
"630 329 OFFCURVE",
"615 237 CURVE SMOOTH",
"597 124 OFFCURVE",
"531 96 OFFCURVE",
"473 81 CURVE SMOOTH",
"459 77 OFFCURVE",
"440 76 OFFCURVE",
"426 76 CURVE SMOOTH",
"224 76 LINE"
);
}
);
width = 733;
}
);
leftKerningGroup = T;
rightKerningGroup = B;
unicode = 042A;
},
{
glyphname = "Nje-cy";
lastChange = "2020-03-10 21:49:07 +0000";
layers = (
{
components = (
{
alignment = -1;
name = "Softsign-cy";
transform = "{1, 0, 0, 1, 461, 0}";
}
);
layerId = "1C9972D2-AAA2-4EE5-9F28-188B121D2056";
paths = (
{
closed = 1;
nodes = (
"167 0 LINE",
"167 381 LINE",
"593 381 LINE",
"593 457 LINE",
"167 457 LINE",
"167 720 LINE",
"85 720 LINE",
"85 0 LINE"
);
}
);
width = 1123;
},
{
components = (
{
alignment = -1;
name = "Softsign-cy";
transform = "{1, 0, 0, 1, 401, 0}";
}
);
layerId = "033ADDEA-23CB-49AC-A4FC-FA912A776280";
paths = (
{
closed = 1;
nodes = (
"127 0 LINE",
"190 381 LINE",
"616 381 LINE",
"629 457 LINE",
"203 457 LINE",
"246 720 LINE",
"164 720 LINE",
"45 0 LINE"
);
}
);
width = 1063;
}
);
leftKerningGroup = "En-cy";
leftMetricsKey = "En-cy";
rightKerningGroup = "Softsign-cy";
rightMetricsKey = "Softsign-cy";
unicode = 040A;
},
{
glyphname = "Ereversed-cy";
lastChange = "2020-03-10 21:49:07 +0000";
layers = (
{
layerId = "1C9972D2-AAA2-4EE5-9F28-188B121D2056";
paths = (
{
closed = 1;
nodes = (
"558 -6 OFFCURVE",
"705 164 OFFCURVE",
"705 360 CURVE SMOOTH",
"705 564 OFFCURVE",
"544 726 OFFCURVE",
"335 726 CURVE SMOOTH",
"173 726 OFFCURVE",
"84 628 OFFCURVE",
"47 574 CURVE",
"99 526 LINE",
"159 595 OFFCURVE",
"214 649 OFFCURVE",
"342 649 CURVE SMOOTH",
"499 649 OFFCURVE",
"605 533 OFFCURVE",
"623 402 CURVE",
"318 401 LINE",
"317 324 LINE",
"622 325 LINE",
"615 251 OFFCURVE",
"583 205 OFFCURVE",
"552 163 CURVE SMOOTH",
"517 116 OFFCURVE",
"438 67 OFFCURVE",
"332 68 CURVE SMOOTH",
"244 69 OFFCURVE",
"157 104 OFFCURVE",
"94 191 CURVE",
"40 141 LINE",
"78 91 OFFCURVE",
"180 -11 OFFCURVE",
"335 -9 CURVE SMOOTH"
);
}
);
width = 745;
},
{
layerId = "033ADDEA-23CB-49AC-A4FC-FA912A776280";
paths = (
{
closed = 1;
nodes = (
"522 -6 OFFCURVE",
"697 164 OFFCURVE",
"730 360 CURVE SMOOTH",
"763 564 OFFCURVE",
"629 726 OFFCURVE",
"420 726 CURVE SMOOTH",
"258 726 OFFCURVE",
"153 628 OFFCURVE",
"107 574 CURVE",
"151 526 LINE",
"223 595 OFFCURVE",
"286 649 OFFCURVE",
"414 649 CURVE SMOOTH",
"571 649 OFFCURVE",
"658 533 OFFCURVE",
"655 402 CURVE",
"349 401 LINE",
"336 324 LINE",
"641 325 LINE",
"622 251 OFFCURVE",
"582 205 OFFCURVE",
"544 163 CURVE SMOOTH",
"501 116 OFFCURVE",
"414 67 OFFCURVE",
"308 68 CURVE SMOOTH",
"220 69 OFFCURVE",
"139 104 OFFCURVE",
"91 191 CURVE",
"28 141 LINE",
"58 91 OFFCURVE",
"143 -11 OFFCURVE",
"299 -9 CURVE SMOOTH"
);
}
);
width = 755;
}
);
leftKerningGroup = X;
leftMetricsKey = O;
rightKerningGroup = O;
rightMetricsKey = O;
unicode = 042D;
},
{
glyphname = "Tshe-cy";
lastChange = "2020-03-10 21:49:07 +0000";
layers = (
{
components = (
{
name = "Shha-cy";
}
);
layerId = "1C9972D2-AAA2-4EE5-9F28-188B121D2056";
paths = (
{
closed = 1;
nodes = (
"360 637 LINE",
"360 713 LINE",
"0 713 LINE",
"0 637 LINE"
);
}
);
width = 683;
},
{
components = (
{
name = "Shha-cy";
}
);
layerId = "033ADDEA-23CB-49AC-A4FC-FA912A776280";
paths = (
{
closed = 1;
nodes = (
"360 637 LINE",
"360 713 LINE",
"0 713 LINE",
"0 637 LINE"
);
}
);
width = 683;
}
);
leftKerningGroup = V;
rightKerningGroup = B;
rightMetricsKey = "Shha-cy";
unicode = 040B;
},
{
glyphname = "Iu-cy";
lastChange = "2020-03-10 21:49:07 +0000";
layers = (
{
components = (
{
name = O;
transform = "{1, 0, 0, 1, 261, 3}";
}
);
layerId = "1C9972D2-AAA2-4EE5-9F28-188B121D2056";
paths = (
{
closed = 1;
nodes = (
"169 0 LINE",
"169 342 LINE",
"355 342 LINE",
"355 415 LINE",
"169 415 LINE",
"169 713 LINE",
"85 713 LINE",
"85 0 LINE"
);
}
);
width = 1042;
},
{
components = (
{
name = O;
transform = "{1, 0, 0, 1, 234, 3}";
}
);
layerId = "033ADDEA-23CB-49AC-A4FC-FA912A776280";
paths = (
{
closed = 1;
nodes = (
"129 0 LINE",
"186 342 LINE",
"372 342 LINE",
"384 415 LINE",
"198 415 LINE",
"247 713 LINE",
"163 713 LINE",
"45 0 LINE"
);
}
);
width = 1025;
}
);
leftKerningGroup = H;
leftMetricsKey = H;
rightKerningGroup = O;
rightMetricsKey = O;
unicode = 042E;
},
{
glyphname = "Ia-cy";
lastChange = "2020-03-10 21:49:07 +0000";
layers = (
{
components = (
{
name = R;
transform = "{-1, 0, 0, 1, 675, 0}";
}
);
layerId = "1C9972D2-AAA2-4EE5-9F28-188B121D2056";
width = 675;
},
{
layerId = "033ADDEA-23CB-49AC-A4FC-FA912A776280";
paths = (
{
closed = 1;
nodes = (
"668 713 LINE",
"372 713 LINE SMOOTH",
"267 713 OFFCURVE",
"156 634 OFFCURVE",
"137 521 CURVE SMOOTH",
"122 430 OFFCURVE",
"174 348 OFFCURVE",
"258 326 CURVE",
"239 302 LINE",
"2 14 LINE",
"0 0 LINE",
"84 0 LINE",
"341 314 LINE",
"520 314 LINE",
"468 0 LINE",
"550 0 LINE"
);
},
{
closed = 1;
nodes = (
"329 388 LINE SMOOTH",
"278 388 OFFCURVE",
"207 433 OFFCURVE",
"221 521 CURVE SMOOTH",
"231 581 OFFCURVE",
"288 637 OFFCURVE",
"366 637 CURVE SMOOTH",
"573 637 LINE",
"532 388 LINE"
);
}
);
width = 675;
}
);
leftKerningGroup = N;
rightKerningGroup = N;
unicode = 042F;
},
{
glyphname = "Dje-cy";
lastChange = "2020-03-10 21:49:07 +0000";
layers = (
{
layerId = "1C9972D2-AAA2-4EE5-9F28-188B121D2056";
paths = (
{
closed = 1;
nodes = (
"189 0 LINE",
"189 221 LINE SMOOTH",
"189 256 OFFCURVE",
"193 289 OFFCURVE",
"200 311 CURVE SMOOTH",
"221 376 OFFCURVE",
"283 414 OFFCURVE",
"367 414 CURVE SMOOTH",
"475 414 OFFCURVE",
"536 351 OFFCURVE",
"536 240 CURVE SMOOTH",
"536 142 OFFCURVE",
"489 84 OFFCURVE",
"401 74 CURVE",
"401 -10 LINE",
"546 0 OFFCURVE",
"618 84 OFFCURVE",
"618 241 CURVE SMOOTH",
"618 404 OFFCURVE",
"539 491 OFFCURVE",
"387 491 CURVE SMOOTH",
"296 491 OFFCURVE",
"237 457 OFFCURVE",
"196 396 CURVE",
"182 396 LINE",
"182 637 LINE",
"332 637 LINE",
"332 713 LINE",
"28 713 LINE",
"28 637 LINE",
"107 637 LINE",
"107 0 LINE"
);
}
);
width = 668;
},
{
layerId = "033ADDEA-23CB-49AC-A4FC-FA912A776280";
paths = (
{
closed = 1;
nodes = (
"209 0 LINE",
"246 221 LINE SMOOTH",
"251 256 OFFCURVE",
"261 289 OFFCURVE",
"271 311 CURVE SMOOTH",
"303 376 OFFCURVE",
"372 414 OFFCURVE",
"456 414 CURVE SMOOTH",
"564 414 OFFCURVE",
"614 351 OFFCURVE",
"596 240 CURVE SMOOTH",
"580 142 OFFCURVE",
"523 84 OFFCURVE",
"433 74 CURVE",
"419 -10 LINE",
"566 0 OFFCURVE",
"652 84 OFFCURVE",
"678 241 CURVE SMOOTH",
"705 404 OFFCURVE",
"640 491 OFFCURVE",
"488 491 CURVE SMOOTH",
"397 491 OFFCURVE",
"333 457 OFFCURVE",
"282 396 CURVE",
"268 396 LINE",
"307 637 LINE",
"457 637 LINE",
"470 713 LINE",
"166 713 LINE",
"153 637 LINE",
"232 637 LINE",
"127 0 LINE"
);
}
);
width = 728;
}
);
leftKerningGroup = T;
rightKerningGroup = b;
rightMetricsKey = b;
unicode = 0402;
},
{
glyphname = "Obarred-cy";
lastChange = "2020-03-10 21:49:07 +0000";
layers = (
{
components = (
{
name = O;
}
);
layerId = "1C9972D2-AAA2-4EE5-9F28-188B121D2056";
paths = (
{
closed = 1;
nodes = (
"695 311 LINE",
"695 387 LINE",
"85 387 LINE",
"85 311 LINE"
);
}
);
width = 781;
},
{
components = (
{
name = O;
}
);
layerId = "033ADDEA-23CB-49AC-A4FC-FA912A776280";
paths = (
{
closed = 1;
nodes = (
"695 311 LINE",
"695 387 LINE",
"85 387 LINE",
"85 311 LINE"
);
}
);
width = 791;
}
);
leftKerningGroup = O;
leftMetricsKey = O;
rightKerningGroup = O;
rightMetricsKey = O;
unicode = 04E8;
},
{
glyphname = "be-cy";
lastChange = "2020-03-10 21:49:07 +0000";
layers = (
{
layerId = "1C9972D2-AAA2-4EE5-9F28-188B121D2056";
paths = (
{
closed = 1;
nodes = (
"413 -11 OFFCURVE",
"545 78 OFFCURVE",
"545 237 CURVE SMOOTH",
"545 360 OFFCURVE",
"450 482 OFFCURVE",
"303 482 CURVE SMOOTH",
"243 482 OFFCURVE",
"176 458 OFFCURVE",
"128 392 CURVE",
"136 495 OFFCURVE",
"169 533 OFFCURVE",
"209 570 CURVE SMOOTH",
"280 634 OFFCURVE",
"414 627 OFFCURVE",
"514 695 CURVE",
"474 757 LINE",
"385 694 OFFCURVE",
"266 706 OFFCURVE",
"174 638 CURVE SMOOTH",
"136 610 OFFCURVE",
"104 568 OFFCURVE",
"82 522 CURVE SMOOTH",
"48 448 OFFCURVE",
"40 340 OFFCURVE",
"48 255 CURVE SMOOTH",
"64 97 OFFCURVE",
"150 -11 OFFCURVE",
"303 -11 CURVE SMOOTH"
);
},
{
closed = 1;
nodes = (
"189 61 OFFCURVE",
"128 143 OFFCURVE",
"128 240 CURVE SMOOTH",
"128 333 OFFCURVE",
"201 411 OFFCURVE",
"300 410 CURVE SMOOTH",
"401 409 OFFCURVE",
"467 322 OFFCURVE",
"467 238 CURVE SMOOTH",
"467 153 OFFCURVE",
"402 63 OFFCURVE",
"304 62 CURVE SMOOTH"
);
}
);
width = 595;
},
{
layerId = "033ADDEA-23CB-49AC-A4FC-FA912A776280";
paths = (
{
closed = 1;
nodes = (
"371 -11 OFFCURVE",
"518 78 OFFCURVE",
"544 237 CURVE SMOOTH",
"565 360 OFFCURVE",
"490 482 OFFCURVE",
"343 482 CURVE SMOOTH",
"283 482 OFFCURVE",
"212 458 OFFCURVE",
"153 392 CURVE",
"178 495 OFFCURVE",
"217 533 OFFCURVE",
"263 570 CURVE SMOOTH",
"345 634 OFFCURVE",
"478 627 OFFCURVE",
"589 695 CURVE",
"559 757 LINE",
"460 694 OFFCURVE",
"343 706 OFFCURVE",
"240 638 CURVE SMOOTH",
"197 610 OFFCURVE",
"158 568 OFFCURVE",
"128 522 CURVE SMOOTH",
"82 448 OFFCURVE",
"56 340 OFFCURVE",
"50 255 CURVE SMOOTH",
"40 97 OFFCURVE",
"108 -11 OFFCURVE",
"261 -11 CURVE SMOOTH"
);
},
{
closed = 1;
nodes = (
"159 61 OFFCURVE",
"112 143 OFFCURVE",
"128 240 CURVE SMOOTH",
"143 333 OFFCURVE",
"229 411 OFFCURVE",
"328 410 CURVE SMOOTH",
"429 409 OFFCURVE",
"480 322 OFFCURVE",
"466 238 CURVE SMOOTH",
"452 153 OFFCURVE",
"372 63 OFFCURVE",
"274 62 CURVE SMOOTH"
);
}
);
width = 595;
}
);
leftKerningGroup = "be-cy";
leftMetricsKey = o;
rightKerningGroup = o;
rightMetricsKey = b;
unicode = 0431;
},
{
glyphname = "ve-cy";
lastChange = "2020-03-10 21:49:07 +0000";
layers = (
{
layerId = "1C9972D2-AAA2-4EE5-9F28-188B121D2056";
paths = (
{
closed = 1;
nodes = (
"274 0 LINE SMOOTH",
"309 0 OFFCURVE",
"345 -1 OFFCURVE",
"369 6 CURVE SMOOTH",
"439 26 OFFCURVE",
"473 75 OFFCURVE",
"474 137 CURVE SMOOTH",
"475 192 OFFCURVE",
"445 223 OFFCURVE",
"416 239 CURVE SMOOTH",
"405 245 OFFCURVE",
"392 248 OFFCURVE",
"379 250 CURVE",
"391 253 OFFCURVE",
"415 271 OFFCURVE",
"426 285 CURVE SMOOTH",
"449 314 OFFCURVE",
"451 334 OFFCURVE",
"452 355 CURVE SMOOTH",
"455 425 OFFCURVE",
"408 463 OFFCURVE",
"359 478 CURVE SMOOTH",
"339 484 OFFCURVE",
"317 483 OFFCURVE",
"276 483 CURVE SMOOTH",
"75 483 LINE",
"75 0 LINE"
);
},
{
closed = 1;
nodes = (
"153 212 LINE",
"314 212 LINE SMOOTH",
"323 212 OFFCURVE",
"342 211 OFFCURVE",
"355 205 CURVE SMOOTH",
"370 198 OFFCURVE",
"394 182 OFFCURVE",
"394 140 CURVE SMOOTH",
"394 104 OFFCURVE",
"374 91 OFFCURVE",
"363 84 CURVE SMOOTH",
"353 77 OFFCURVE",
"329 70 OFFCURVE",
"314 70 CURVE SMOOTH",
"153 70 LINE"
);
},
{
closed = 1;
nodes = (
"153 413 LINE",
"283 412 LINE SMOOTH",
"289 412 OFFCURVE",
"323 414 OFFCURVE",
"338 407 CURVE SMOOTH",
"359 397 OFFCURVE",
"377 379 OFFCURVE",
"377 352 CURVE SMOOTH",
"377 320 OFFCURVE",
"355 296 OFFCURVE",
"338 288 CURVE SMOOTH",
"325 282 OFFCURVE",
"311 282 OFFCURVE",
"289 282 CURVE SMOOTH",
"153 282 LINE"
);
}
);
width = 539;
},
{
associatedMasterId = "1C9972D2-AAA2-4EE5-9F28-188B121D2056";
layerId = "A2873047-0ED6-4C67-9B4D-3870B51BD5C6";
name = "new Layer";
width = 600;
},
{
layerId = "033ADDEA-23CB-49AC-A4FC-FA912A776280";
paths = (
{
closed = 1;
nodes = (
"234 0 LINE SMOOTH",
"269 0 OFFCURVE",
"305 -1 OFFCURVE",
"330 6 CURVE SMOOTH",
"403 26 OFFCURVE",
"445 75 OFFCURVE",
"457 137 CURVE SMOOTH",
"467 192 OFFCURVE",
"442 223 OFFCURVE",
"416 239 CURVE SMOOTH",
"406 245 OFFCURVE",
"393 248 OFFCURVE",
"380 250 CURVE",
"393 253 OFFCURVE",
"420 271 OFFCURVE",
"433 285 CURVE SMOOTH",
"461 314 OFFCURVE",
"466 334 OFFCURVE",
"471 355 CURVE SMOOTH",
"485 425 OFFCURVE",
"445 463 OFFCURVE",
"398 478 CURVE SMOOTH",
"379 484 OFFCURVE",
"357 483 OFFCURVE",
"316 483 CURVE SMOOTH",
"115 483 LINE",
"35 0 LINE"
);
},
{
closed = 1;
nodes = (
"148 212 LINE",
"309 212 LINE SMOOTH",
"318 212 OFFCURVE",
"337 211 OFFCURVE",
"349 205 CURVE SMOOTH",
"363 198 OFFCURVE",
"384 182 OFFCURVE",
"377 140 CURVE SMOOTH",
"371 104 OFFCURVE",
"349 91 OFFCURVE",
"337 84 CURVE SMOOTH",
"326 77 OFFCURVE",
"301 70 OFFCURVE",
"286 70 CURVE SMOOTH",
"125 70 LINE"
);
},
{
closed = 1;
nodes = (
"181 413 LINE",
"311 412 LINE SMOOTH",
"317 412 OFFCURVE",
"352 414 OFFCURVE",
"365 407 CURVE SMOOTH",
"385 397 OFFCURVE",
"400 379 OFFCURVE",
"395 352 CURVE SMOOTH",
"390 320 OFFCURVE",
"364 296 OFFCURVE",
"346 288 CURVE SMOOTH",
"332 282 OFFCURVE",
"318 282 OFFCURVE",
"296 282 CURVE SMOOTH",
"160 282 LINE"
);
}
);
width = 539;
}
);
leftKerningGroup = n;
rightKerningGroup = ve;
unicode = 0432;
},
{
glyphname = "ge-cy";
lastChange = "2020-03-10 21:49:07 +0000";
layers = (
{
layerId = "1C9972D2-AAA2-4EE5-9F28-188B121D2056";
paths = (
{
closed = 1;
nodes = (
"158 0 LINE",
"158 411 LINE",
"418 411 LINE",
"418 483 LINE",
"80 483 LINE",
"80 0 LINE"
);
}
);
width = 483;
},
{
layerId = "033ADDEA-23CB-49AC-A4FC-FA912A776280";
paths = (
{
closed = 1;
nodes = (
"178 0 LINE",
"246 411 LINE",
"506 411 LINE",
"518 483 LINE",
"180 483 LINE",
"100 0 LINE"
);
}
);
width = 472;
}
);
leftKerningGroup = r;
leftMetricsKey = r;
rightKerningGroup = r;
rightMetricsKey = r;
unicode = 0433;
},
{
glyphname = "gheupturn-cy";
lastChange = "2020-03-10 21:49:07 +0000";
layers = (
{
components = (
{
name = "ge-cy";
}
);
layerId = "1C9972D2-AAA2-4EE5-9F28-188B121D2056";
paths = (
{
closed = 1;
nodes = (
"323 411 LINE",
"401 411 LINE",
"401 591 LINE",
"323 591 LINE"
);
}
);
width = 428;
},
{
components = (
{
name = "ge-cy";
}
);
layerId = "033ADDEA-23CB-49AC-A4FC-FA912A776280";
paths = (
{
closed = 1;
nodes = (
"411 411 LINE",
"489 411 LINE",
"519 591 LINE",
"441 591 LINE"
);
}
);
width = 600;
}
);
leftKerningGroup = r;
rightKerningGroup = r;
unicode = 0491;
},
{
glyphname = "de-cy";
lastChange = "2020-03-10 21:49:07 +0000";
layers = (
{
layerId = "1C9972D2-AAA2-4EE5-9F28-188B121D2056";
paths = (
{
closed = 1;
nodes = (
"90 -156 LINE",
"90 0 LINE",
"486 0 LINE",
"486 -155 LINE",
"558 -155 LINE",
"558 66 LINE",
"492 66 LINE",
"492 483 LINE",
"127 483 LINE",
"122 378 OFFCURVE",
"122 285 OFFCURVE",
"111 199 CURVE SMOOTH",
"98 97 OFFCURVE",
"71 65 OFFCURVE",
"52 65 CURVE",
"15 65 LINE",
"15 -156 LINE"
);
},
{
closed = 1;
nodes = (
"171 113 OFFCURVE",
"177 154 OFFCURVE",
"186 212 CURVE SMOOTH",
"195 271 OFFCURVE",
"193 338 OFFCURVE",
"198 411 CURVE",
"414 411 LINE",
"414 66 LINE",
"141 65 LINE"
);
}
);
width = 597;
},
{
layerId = "033ADDEA-23CB-49AC-A4FC-FA912A776280";
paths = (
{
closed = 1;
nodes = (
"24 -156 LINE",
"50 0 LINE",
"446 0 LINE",
"420 -155 LINE",
"492 -155 LINE",
"529 66 LINE",
"463 66 LINE",
"532 483 LINE",
"167 483 LINE",
"145 378 OFFCURVE",
"129 285 OFFCURVE",
"104 199 CURVE SMOOTH",
"74 97 OFFCURVE",
"42 65 OFFCURVE",
"23 65 CURVE",
"-14 65 LINE",
"-51 -156 LINE"
);
},
{
closed = 1;
nodes = (
"150 113 OFFCURVE",
"162 154 OFFCURVE",
"181 212 CURVE SMOOTH",
"200 271 OFFCURVE",
"209 338 OFFCURVE",
"226 411 CURVE",
"442 411 LINE",
"385 66 LINE",
"112 65 LINE"
);
}
);
width = 598;
}
);
leftKerningGroup = o;
rightKerningGroup = v;
unicode = 0434;
},
{
glyphname = "zhe-cy";
lastChange = "2020-03-10 21:49:07 +0000";
layers = (
{
layerId = "1C9972D2-AAA2-4EE5-9F28-188B121D2056";
paths = (
{
closed = 1;
nodes = (
"103 0 LINE",
"272 234 LINE",
"340 159 LINE",
"340 0 LINE",
"416 0 LINE",
"416 159 LINE",
"483 233 LINE",
"652 0 LINE",
"740 0 LINE",
"533 288 LINE",
"723 490 LINE",
"631 490 LINE",
"465 315 LINE",
"416 258 LINE",
"416 483 LINE",
"340 483 LINE",
"340 258 LINE",
"300 301 LINE",
"125 490 LINE",
"32 490 LINE",
"222 288 LINE",
"14 0 LINE"
);
}
);
width = 755;
},
{
layerId = "033ADDEA-23CB-49AC-A4FC-FA912A776280";
paths = (
{
closed = 1;
nodes = (
"64 0 LINE",
"266 234 LINE",
"323 159 LINE",
"301 0 LINE",
"377 0 LINE",
"399 159 LINE",
"477 233 LINE",
"613 0 LINE",
"701 0 LINE",
"534 288 LINE",
"753 490 LINE",
"661 490 LINE",
"470 315 LINE",
"413 258 LINE",
"445 483 LINE",
"369 483 LINE",
"337 258 LINE",
"303 301 LINE",
"155 490 LINE",
"62 490 LINE",
"223 288 LINE",
"-25 0 LINE"
);
}
);
width = 756;
}
);
leftKerningGroup = x;
leftMetricsKey = x;
rightKerningGroup = x;
rightMetricsKey = x;
unicode = 0436;
},
{
glyphname = "ze-cy";
lastChange = "2020-03-10 21:49:07 +0000";
layers = (
{
background = {
paths = (
{
closed = 1;
nodes = (
"100 377 LINE",
"117 389 OFFCURVE",
"137 401 OFFCURVE",
"153 408 CURVE SMOOTH",
"177 419 OFFCURVE",
"211 429 OFFCURVE",
"241 429 CURVE SMOOTH",
"258 429 OFFCURVE",
"273 426 OFFCURVE",
"284 420 CURVE SMOOTH",
"302 410 OFFCURVE",
"307 395 OFFCURVE",
"307 379 CURVE SMOOTH",
"307 360 OFFCURVE",
"299 339 OFFCURVE",
"261 334 CURVE SMOOTH",
"246 332 OFFCURVE",
"222 331 OFFCURVE",
"206 331 CURVE SMOOTH",
"174 331 LINE",
"174 225 LINE",
"206 225 LINE SMOOTH",
"224 225 OFFCURVE",
"255 226 OFFCURVE",
"271 225 CURVE SMOOTH",
"301 223 OFFCURVE",
"326 205 OFFCURVE",
"326 174 CURVE SMOOTH",
"326 155 OFFCURVE",
"316 136 OFFCURVE",
"295 124 CURVE SMOOTH",
"281 116 OFFCURVE",
"266 112 OFFCURVE",
"244 112 CURVE SMOOTH",
"220 112 OFFCURVE",
"184 117 OFFCURVE",
"155 135 CURVE SMOOTH",
"142 143 OFFCURVE",
"120 161 OFFCURVE",
"107 174 CURVE",
"0 102 LINE",
"18 75 OFFCURVE",
"59 38 OFFCURVE",
"94 19 CURVE SMOOTH",
"131 -1 OFFCURVE",
"181 -15 OFFCURVE",
"241 -15 CURVE SMOOTH",
"283 -15 OFFCURVE",
"338 -8 OFFCURVE",
"386 22 CURVE SMOOTH",
"440 56 OFFCURVE",
"465 105 OFFCURVE",
"465 162 CURVE SMOOTH",
"465 214 OFFCURVE",
"444 256 OFFCURVE",
"409 284 CURVE",
"436 319 OFFCURVE",
"447 355 OFFCURVE",
"447 392 CURVE SMOOTH",
"447 446 OFFCURVE",
"423 490 OFFCURVE",
"382 517 CURVE SMOOTH",
"341 545 OFFCURVE",
"281 555 OFFCURVE",
"240 555 CURVE SMOOTH",
"197 555 OFFCURVE",
"156 544 OFFCURVE",
"121 529 CURVE SMOOTH",
"80 511 OFFCURVE",
"54 494 OFFCURVE",
"25 470 CURVE"
);
}
);
};
layerId = "1C9972D2-AAA2-4EE5-9F28-188B121D2056";
paths = (
{
closed = 1;
nodes = (
"349 -12 OFFCURVE",
"448 33 OFFCURVE",
"448 142 CURVE SMOOTH",
"448 222 OFFCURVE",
"368 261 OFFCURVE",
"305 261 CURVE",
"304 243 LINE",
"401 253 OFFCURVE",
"427 313 OFFCURVE",
"427 360 CURVE SMOOTH",
"427 432 OFFCURVE",
"355 499 OFFCURVE",
"243 499 CURVE SMOOTH",
"155 499 OFFCURVE",
"99 465 OFFCURVE",
"55 426 CURVE",
"115 371 LINE",
"159 415 OFFCURVE",
"204 428 OFFCURVE",
"247 428 CURVE SMOOTH",
"288 428 OFFCURVE",
"343 415 OFFCURVE",
"343 360 CURVE SMOOTH",
"343 315 OFFCURVE",
"297 287 OFFCURVE",
"254 287 CURVE SMOOTH",
"181 287 LINE",
"181 215 LINE",
"254 215 LINE SMOOTH",
"302 215 OFFCURVE",
"365 195 OFFCURVE",
"365 137 CURVE SMOOTH",
"365 72 OFFCURVE",
"295 59 OFFCURVE",
"237 59 CURVE SMOOTH",
"190 59 OFFCURVE",
"137 83 OFFCURVE",
"97 126 CURVE",
"45 77 LINE",
"60 50 OFFCURVE",
"133 -12 OFFCURVE",
"241 -12 CURVE SMOOTH"
);
}
);
width = 493;
},
{
layerId = "033ADDEA-23CB-49AC-A4FC-FA912A776280";
paths = (
{
closed = 1;
nodes = (
"307 -12 OFFCURVE",
"413 33 OFFCURVE",
"432 142 CURVE SMOOTH",
"445 222 OFFCURVE",
"371 261 OFFCURVE",
"308 261 CURVE",
"304 243 LINE",
"403 253 OFFCURVE",
"439 313 OFFCURVE",
"447 360 CURVE SMOOTH",
"459 432 OFFCURVE",
"398 499 OFFCURVE",
"286 499 CURVE SMOOTH",
"198 499 OFFCURVE",
"136 465 OFFCURVE",
"86 426 CURVE",
"136 371 LINE",
"188 415 OFFCURVE",
"235 428 OFFCURVE",
"278 428 CURVE SMOOTH",
"319 428 OFFCURVE",
"372 415 OFFCURVE",
"363 360 CURVE SMOOTH",
"355 315 OFFCURVE",
"305 287 OFFCURVE",
"262 287 CURVE SMOOTH",
"189 287 LINE",
"177 215 LINE",
"250 215 LINE SMOOTH",
"298 215 OFFCURVE",
"357 195 OFFCURVE",
"348 137 CURVE SMOOTH",
"337 72 OFFCURVE",
"265 59 OFFCURVE",
"207 59 CURVE SMOOTH",
"160 59 OFFCURVE",
"111 83 OFFCURVE",
"78 126 CURVE",
"18 77 LINE",
"28 50 OFFCURVE",
"91 -12 OFFCURVE",
"199 -12 CURVE SMOOTH"
);
}
);
width = 493;
}
);
leftKerningGroup = x;
leftMetricsKey = o;
rightKerningGroup = "ze-cy";
rightMetricsKey = o;
unicode = 0437;
},
{
glyphname = "ii-cy";
lastChange = "2020-03-10 21:49:07 +0000";
layers = (
{
layerId = "1C9972D2-AAA2-4EE5-9F28-188B121D2056";
paths = (
{
closed = 1;
nodes = (
"424 483 LINE",
"150 113 LINE",
"150 483 LINE",
"75 483 LINE",
"75 0 LINE",
"149 0 LINE",
"424 377 LINE",
"424 0 LINE",
"499 0 LINE",
"499 483 LINE"
);
}
);
width = 574;
},
{
layerId = "033ADDEA-23CB-49AC-A4FC-FA912A776280";
paths = (
{
closed = 1;
nodes = (
"464 483 LINE",
"138 113 LINE",
"190 483 LINE",
"115 483 LINE",
"47 0 LINE",
"121 0 LINE",
"449 377 LINE",
"396 0 LINE",
"471 0 LINE",
"539 483 LINE"
);
}
);
width = 586;
}
);
leftKerningGroup = n;
leftMetricsKey = n;
rightKerningGroup = u;
rightMetricsKey = u;
unicode = 0438;
},
{
glyphname = "ka-cy";
lastChange = "2020-03-10 21:49:07 +0000";
layers = (
{
layerId = "1C9972D2-AAA2-4EE5-9F28-188B121D2056";
paths = (
{
closed = 1;
nodes = (
"153 0 LINE",
"153 136 LINE",
"247 234 LINE",
"412 0 LINE",
"503 0 LINE",
"295 290 LINE",
"479 483 LINE",
"386 483 LINE",
"153 234 LINE",
"153 294 LINE",
"153 483 LINE",
"75 483 LINE",
"75 0 LINE"
);
}
);
width = 508;
},
{
layerId = "033ADDEA-23CB-49AC-A4FC-FA912A776280";
paths = (
{
closed = 1;
nodes = (
"113 0 LINE",
"136 136 LINE",
"246 234 LINE",
"372 0 LINE",
"463 0 LINE",
"303 290 LINE",
"519 483 LINE",
"426 483 LINE",
"152 234 LINE",
"162 294 LINE",
"193 483 LINE",
"115 483 LINE",
"35 0 LINE"
);
}
);
width = 508;
}
);
leftKerningGroup = k;
leftMetricsKey = k;
rightKerningGroup = k;
rightMetricsKey = k;
unicode = 043A;
},
{
glyphname = "el-cy";
lastChange = "2020-03-10 21:49:07 +0000";
layers = (
{
layerId = "1C9972D2-AAA2-4EE5-9F28-188B121D2056";
paths = (
{
closed = 1;
nodes = (
"130 -32 OFFCURVE",
"173 26 OFFCURVE",
"197 172 CURVE SMOOTH",
"208 239 OFFCURVE",
"210 351 OFFCURVE",
"214 411 CURVE",
"416 411 LINE",
"416 0 LINE",
"494 0 LINE",
"494 483 LINE",
"140 483 LINE",
"134 356 OFFCURVE",
"135 240 OFFCURVE",
"119 154 CURVE SMOOTH",
"107 89 OFFCURVE",
"89 47 OFFCURVE",
"30 58 CURVE",
"20 -9 LINE"
);
}
);
width = 569;
},
{
layerId = "033ADDEA-23CB-49AC-A4FC-FA912A776280";
paths = (
{
closed = 1;
nodes = (
"85 -32 OFFCURVE",
"137 26 OFFCURVE",
"185 172 CURVE SMOOTH",
"208 239 OFFCURVE",
"228 351 OFFCURVE",
"242 411 CURVE",
"444 411 LINE",
"376 0 LINE",
"454 0 LINE",
"534 483 LINE",
"180 483 LINE",
"153 356 OFFCURVE",
"135 240 OFFCURVE",
"104 154 CURVE SMOOTH",
"82 89 OFFCURVE",
"57 47 OFFCURVE",
"0 58 CURVE",
"-21 -9 LINE"
);
}
);
width = 569;
}
);
leftKerningGroup = o;
rightKerningGroup = u;
rightMetricsKey = u;
unicode = 043B;
},
{
glyphname = "em-cy";
lastChange = "2020-03-10 21:49:07 +0000";
layers = (
{
layerId = "1C9972D2-AAA2-4EE5-9F28-188B121D2056";
paths = (
{
closed = 1;
nodes = (
"151 0 LINE",
"151 377 LINE",
"318 162 LINE",
"348 162 LINE",
"516 380 LINE",
"516 0 LINE",
"592 0 LINE",
"592 483 LINE",
"509 483 LINE",
"333 250 LINE",
"159 483 LINE",
"75 483 LINE",
"75 0 LINE"
);
}
);
width = 667;
},
{
layerId = "033ADDEA-23CB-49AC-A4FC-FA912A776280";
paths = (
{
closed = 1;
nodes = (
"111 0 LINE",
"173 377 LINE",
"305 162 LINE",
"335 162 LINE",
"539 380 LINE",
"476 0 LINE",
"552 0 LINE",
"632 483 LINE",
"549 483 LINE",
"334 250 LINE",
"199 483 LINE",
"115 483 LINE",
"35 0 LINE"
);
}
);
width = 667;
}
);
leftKerningGroup = m;
leftMetricsKey = m;
rightKerningGroup = u;
rightMetricsKey = u;
unicode = 043C;
},
{
glyphname = "en-cy";
lastChange = "2020-03-10 21:49:07 +0000";
layers = (
{
layerId = "1C9972D2-AAA2-4EE5-9F28-188B121D2056";
paths = (
{
closed = 1;
nodes = (
"153 0 LINE",
"153 216 LINE",
"412 216 LINE",
"412 0 LINE",
"490 0 LINE",
"490 483 LINE",
"413 483 LINE",
"412 288 LINE",
"153 288 LINE",
"153 483 LINE",
"75 483 LINE",
"75 0 LINE"
);
}
);
width = 565;
},
{
layerId = "033ADDEA-23CB-49AC-A4FC-FA912A776280";
paths = (
{
closed = 1;
nodes = (
"113 0 LINE",
"149 216 LINE",
"408 216 LINE",
"372 0 LINE",
"450 0 LINE",
"530 483 LINE",
"453 483 LINE",
"420 288 LINE",
"161 288 LINE",
"193 483 LINE",
"115 483 LINE",
"35 0 LINE"
);
}
);
width = 565;
}
);
leftKerningGroup = n;
leftMetricsKey = m;
rightKerningGroup = u;
rightMetricsKey = u;
unicode = 043D;
},
{
glyphname = "pe-cy";
lastChange = "2020-03-10 21:49:07 +0000";
layers = (
{
layerId = "1C9972D2-AAA2-4EE5-9F28-188B121D2056";
paths = (
{
closed = 1;
nodes = (
"153 0 LINE",
"153 411 LINE",
"411 411 LINE",
"411 0 LINE",
"489 0 LINE",
"489 483 LINE",
"75 483 LINE",
"75 0 LINE"
);
}
);
width = 564;
},
{
layerId = "033ADDEA-23CB-49AC-A4FC-FA912A776280";
paths = (
{
closed = 1;
nodes = (
"113 0 LINE",
"181 411 LINE",
"439 411 LINE",
"371 0 LINE",
"449 0 LINE",
"529 483 LINE",
"115 483 LINE",
"35 0 LINE"
);
}
);
width = 564;
}
);
leftKerningGroup = n;
leftMetricsKey = n;
rightKerningGroup = u;
rightMetricsKey = u;
unicode = 043F;
},
{
glyphname = "te-cy";
lastChange = "2020-03-10 21:49:07 +0000";
layers = (
{
layerId = "1C9972D2-AAA2-4EE5-9F28-188B121D2056";
paths = (
{
closed = 1;
nodes = (
"268 0 LINE",
"268 412 LINE",
"440 411 LINE",
"440 483 LINE",
"20 483 LINE",
"20 411 LINE",
"190 411 LINE",
"190 0 LINE"
);
}
);
width = 460;
},
{
layerId = "033ADDEA-23CB-49AC-A4FC-FA912A776280";
paths = (
{
closed = 1;
nodes = (
"228 0 LINE",
"296 412 LINE",
"468 411 LINE",
"480 483 LINE",
"60 483 LINE",
"48 411 LINE",
"218 411 LINE",
"150 0 LINE"
);
}
);
width = 460;
}
);
leftKerningGroup = te;
rightKerningGroup = r;
unicode = 0442;
},
{
glyphname = "ef-cy";
lastChange = "2020-03-10 21:49:07 +0000";
layers = (
{
layerId = "1C9972D2-AAA2-4EE5-9F28-188B121D2056";
paths = (
{
closed = 1;
nodes = (
"383 -230 LINE",
"383 -9 LINE",
"528 -5 OFFCURVE",
"639 82 OFFCURVE",
"639 239 CURVE SMOOTH",
"639 343 OFFCURVE",
"580 473 OFFCURVE",
"384 483 CURVE",
"384 713 LINE",
"307 713 LINE",
"307 483 LINE",
"128 483 OFFCURVE",
"45 355 OFFCURVE",
"45 243 CURVE SMOOTH",
"45 43 OFFCURVE",
"199 0 OFFCURVE",
"305 -9 CURVE",
"305 -230 LINE"
);
},
{
closed = 1;
nodes = (
"195 52 OFFCURVE",
"123 136 OFFCURVE",
"123 239 CURVE SMOOTH",
"123 342 OFFCURVE",
"186 417 OFFCURVE",
"307 417 CURVE",
"307 60 LINE"
);
},
{
closed = 1;
nodes = (
"383 417 LINE",
"491 417 OFFCURVE",
"561 345 OFFCURVE",
"561 239 CURVE SMOOTH",
"561 133 OFFCURVE",
"495 55 OFFCURVE",
"383 60 CURVE"
);
}
);
width = 684;
},
{
layerId = "033ADDEA-23CB-49AC-A4FC-FA912A776280";
paths = (
{
closed = 1;
nodes = (
"305 -230 LINE",
"342 -9 LINE",
"487 -5 OFFCURVE",
"613 82 OFFCURVE",
"639 239 CURVE SMOOTH",
"656 343 OFFCURVE",
"618 473 OFFCURVE",
"424 483 CURVE",
"462 713 LINE",
"385 713 LINE",
"347 483 LINE",
"168 483 OFFCURVE",
"64 355 OFFCURVE",
"45 243 CURVE SMOOTH",
"12 43 OFFCURVE",
"159 0 OFFCURVE",
"264 -9 CURVE",
"227 -230 LINE"
);
},
{
closed = 1;
nodes = (
"164 52 OFFCURVE",
"106 136 OFFCURVE",
"123 239 CURVE SMOOTH",
"140 342 OFFCURVE",
"215 417 OFFCURVE",
"336 417 CURVE",
"277 60 LINE"
);
},
{
closed = 1;
nodes = (
"412 417 LINE",
"520 417 OFFCURVE",
"578 345 OFFCURVE",
"561 239 CURVE SMOOTH",
"543 133 OFFCURVE",
"464 55 OFFCURVE",
"353 60 CURVE"
);
}
);
width = 684;
}
);
leftKerningGroup = o;
leftMetricsKey = o;
rightKerningGroup = o;
rightMetricsKey = o;
unicode = 0444;
},
{
glyphname = "che-cy";
lastChange = "2020-03-10 21:49:07 +0000";
layers = (
{
layerId = "1C9972D2-AAA2-4EE5-9F28-188B121D2056";
paths = (
{
closed = 1;
nodes = (
"366 0 LINE",
"444 0 LINE",
"444 483 LINE",
"366 483 LINE",
"366 274 LINE",
"355 265 OFFCURVE",
"344 258 OFFCURVE",
"331 251 CURVE SMOOTH",
"309 239 OFFCURVE",
"275 228 OFFCURVE",
"235 228 CURVE SMOOTH",
"164 228 OFFCURVE",
"126 278 OFFCURVE",
"126 349 CURVE SMOOTH",
"126 483 LINE",
"50 483 LINE",
"50 342 LINE SMOOTH",
"50 232 OFFCURVE",
"120 156 OFFCURVE",
"230 156 CURVE SMOOTH",
"270 156 OFFCURVE",
"304 166 OFFCURVE",
"328 176 CURVE SMOOTH",
"342 182 OFFCURVE",
"355 189 OFFCURVE",
"366 196 CURVE"
);
}
);
width = 519;
},
{
layerId = "033ADDEA-23CB-49AC-A4FC-FA912A776280";
paths = (
{
closed = 1;
nodes = (
"326 0 LINE",
"404 0 LINE",
"484 483 LINE",
"406 483 LINE",
"371 274 LINE",
"359 265 OFFCURVE",
"347 258 OFFCURVE",
"333 251 CURVE SMOOTH",
"309 239 OFFCURVE",
"273 228 OFFCURVE",
"233 228 CURVE SMOOTH",
"162 228 OFFCURVE",
"132 278 OFFCURVE",
"144 349 CURVE SMOOTH",
"166 483 LINE",
"90 483 LINE",
"67 342 LINE SMOOTH",
"48 232 OFFCURVE",
"106 156 OFFCURVE",
"216 156 CURVE SMOOTH",
"256 156 OFFCURVE",
"291 166 OFFCURVE",
"317 176 CURVE SMOOTH",
"332 182 OFFCURVE",
"346 189 OFFCURVE",
"358 196 CURVE"
);
}
);
width = 519;
}
);
leftKerningGroup = n;
leftMetricsKey = d;
rightKerningGroup = u;
rightMetricsKey = u;
unicode = 0447;
},
{
glyphname = "tse-cy";
lastChange = "2020-03-10 21:49:07 +0000";
layers = (
{
layerId = "1C9972D2-AAA2-4EE5-9F28-188B121D2056";
paths = (
{
closed = 1;
nodes = (
"546 -153 LINE",
"546 72 LINE",
"479 72 LINE",
"479 483 LINE",
"401 483 LINE",
"401 71 LINE",
"153 71 LINE",
"153 483 LINE",
"75 483 LINE",
"75 0 LINE",
"475 0 LINE",
"475 -154 LINE"
);
}
);
width = 581;
},
{
layerId = "033ADDEA-23CB-49AC-A4FC-FA912A776280";
paths = (
{
closed = 1;
nodes = (
"481 -153 LINE",
"518 72 LINE",
"451 72 LINE",
"519 483 LINE",
"441 483 LINE",
"373 71 LINE",
"125 71 LINE",
"193 483 LINE",
"115 483 LINE",
"35 0 LINE",
"435 0 LINE",
"410 -154 LINE"
);
}
);
width = 581;
}
);
leftKerningGroup = n;
leftMetricsKey = n;
rightKerningGroup = "tse-cy";
unicode = 0446;
},
{
glyphname = "sha-cy";
lastChange = "2020-03-10 21:49:07 +0000";
layers = (
{
layerId = "1C9972D2-AAA2-4EE5-9F28-188B121D2056";
paths = (
{
closed = 1;
nodes = (
"701 0 LINE",
"701 483 LINE",
"623 483 LINE",
"623 72 LINE",
"426 72 LINE",
"426 483 LINE",
"347 483 LINE",
"347 72 LINE",
"153 72 LINE",
"152 483 LINE",
"75 483 LINE",
"75 0 LINE"
);
}
);
width = 776;
},
{
layerId = "033ADDEA-23CB-49AC-A4FC-FA912A776280";
paths = (
{
closed = 1;
nodes = (
"661 0 LINE",
"741 483 LINE",
"663 483 LINE",
"595 72 LINE",
"398 72 LINE",
"466 483 LINE",
"387 483 LINE",
"319 72 LINE",
"125 72 LINE",
"192 483 LINE",
"115 483 LINE",
"35 0 LINE"
);
}
);
width = 776;
}
);
leftKerningGroup = n;
leftMetricsKey = m;
rightKerningGroup = u;
rightMetricsKey = u;
unicode = 0448;
},
{
glyphname = "shcha-cy";
lastChange = "2020-03-10 21:49:07 +0000";
layers = (
{
components = (
{
name = "sha-cy";
}
);
layerId = "1C9972D2-AAA2-4EE5-9F28-188B121D2056";
paths = (
{
closed = 1;
nodes = (
"783 -154 LINE",
"783 72 LINE",
"639 72 LINE",
"638 0 LINE",
"711 0 LINE",
"710 -154 LINE"
);
}
);
width = 818;
},
{
components = (
{
name = "sha-cy";
}
);
layerId = "033ADDEA-23CB-49AC-A4FC-FA912A776280";
paths = (
{
closed = 1;
nodes = (
"708 -154 LINE",
"745 72 LINE",
"601 72 LINE",
"588 0 LINE",
"661 0 LINE",
"635 -154 LINE"
);
}
);
width = 808;
}
);
leftKerningGroup = n;
leftMetricsKey = n;
rightKerningGroup = "tse-cy";
rightMetricsKey = "tse-cy";
unicode = 0449;
},
{
glyphname = "dzhe-cy";
lastChange = "2020-03-10 21:49:07 +0000";
layers = (
{
layerId = "1C9972D2-AAA2-4EE5-9F28-188B121D2056";
paths = (
{
closed = 1;
nodes = (
"332 -120 LINE",
"332 0 LINE",
"499 0 LINE",
"499 540 LINE",
"421 540 LINE",
"421 72 LINE",
"153 72 LINE",
"153 540 LINE",
"75 540 LINE",
"75 0 LINE",
"254 0 LINE",
"254 -120 LINE"
);
}
);
width = 574;
},
{
layerId = "033ADDEA-23CB-49AC-A4FC-FA912A776280";
paths = (
{
closed = 1;
nodes = (
"272 -120 LINE",
"292 0 LINE",
"459 0 LINE",
"548 540 LINE",
"470 540 LINE",
"393 72 LINE",
"125 72 LINE",
"202 540 LINE",
"124 540 LINE",
"35 0 LINE",
"214 0 LINE",
"194 -120 LINE"
);
}
);
width = 574;
}
);
leftKerningGroup = "sha-cy";
leftMetricsKey = "sha-cy";
rightKerningGroup = "sha-cy";
rightMetricsKey = "sha-cy";
unicode = 045F;
},
{
glyphname = "softsign-cy";
lastChange = "2020-03-10 21:49:07 +0000";
layers = (
{
layerId = "1C9972D2-AAA2-4EE5-9F28-188B121D2056";
paths = (
{
closed = 1;
nodes = (
"222 0 LINE SMOOTH",
"252 0 OFFCURVE",
"288 2 OFFCURVE",
"314 2 CURVE SMOOTH",
"387 2 OFFCURVE",
"470 59 OFFCURVE",
"470 166 CURVE SMOOTH",
"470 242 OFFCURVE",
"424 315 OFFCURVE",
"335 329 CURVE SMOOTH",
"309 333 OFFCURVE",
"289 333 OFFCURVE",
"258 333 CURVE SMOOTH",
"155 333 LINE",
"155 483 LINE",
"75 483 LINE",
"75 0 LINE"
);
},
{
closed = 1;
nodes = (
"155 261 LINE",
"267 261 LINE SMOOTH",
"278 261 OFFCURVE",
"302 260 OFFCURVE",
"316 256 CURVE SMOOTH",
"345 248 OFFCURVE",
"389 238 OFFCURVE",
"389 166 CURVE SMOOTH",
"389 128 OFFCURVE",
"378 94 OFFCURVE",
"332 78 CURVE SMOOTH",
"318 73 OFFCURVE",
"292 72 OFFCURVE",
"279 72 CURVE SMOOTH",
"155 72 LINE"
);
}
);
width = 520;
},
{
layerId = "033ADDEA-23CB-49AC-A4FC-FA912A776280";
paths = (
{
closed = 1;
nodes = (
"182 0 LINE SMOOTH",
"212 0 OFFCURVE",
"248 2 OFFCURVE",
"274 2 CURVE SMOOTH",
"347 2 OFFCURVE",
"440 59 OFFCURVE",
"457 166 CURVE SMOOTH",
"470 242 OFFCURVE",
"436 315 OFFCURVE",
"349 329 CURVE SMOOTH",
"324 333 OFFCURVE",
"304 333 OFFCURVE",
"273 333 CURVE SMOOTH",
"170 333 LINE",
"195 483 LINE",
"115 483 LINE",
"35 0 LINE"
);
},
{
closed = 1;
nodes = (
"158 261 LINE",
"270 261 LINE SMOOTH",
"281 261 OFFCURVE",
"305 260 OFFCURVE",
"318 256 CURVE SMOOTH",
"346 248 OFFCURVE",
"388 238 OFFCURVE",
"376 166 CURVE SMOOTH",
"370 128 OFFCURVE",
"354 94 OFFCURVE",
"305 78 CURVE SMOOTH",
"290 73 OFFCURVE",
"264 72 OFFCURVE",
"251 72 CURVE SMOOTH",
"127 72 LINE"
);
}
);
width = 520;
}
);
leftKerningGroup = n;
leftMetricsKey = n;
rightKerningGroup = b;
rightMetricsKey = b;
unicode = 044C;
},
{
glyphname = "hardsign-cy";
lastChange = "2020-03-10 21:49:07 +0000";
layers = (
{
layerId = "1C9972D2-AAA2-4EE5-9F28-188B121D2056";
paths = (
{
closed = 1;
nodes = (
"221 0 LINE SMOOTH",
"251 0 OFFCURVE",
"350 2 OFFCURVE",
"376 2 CURVE SMOOTH",
"449 2 OFFCURVE",
"532 59 OFFCURVE",
"532 166 CURVE SMOOTH",
"532 242 OFFCURVE",
"486 315 OFFCURVE",
"397 329 CURVE SMOOTH",
"371 333 OFFCURVE",
"351 333 OFFCURVE",
"320 333 CURVE SMOOTH",
"217 333 LINE",
"217 483 LINE",
"10 483 LINE",
"10 411 LINE",
"139 411 LINE",
"139 0 LINE"
);
},
{
closed = 1;
nodes = (
"217 261 LINE",
"329 261 LINE SMOOTH",
"340 261 OFFCURVE",
"364 262 OFFCURVE",
"378 258 CURVE SMOOTH",
"407 250 OFFCURVE",
"451 238 OFFCURVE",
"451 166 CURVE SMOOTH",
"451 128 OFFCURVE",
"440 96 OFFCURVE",
"394 80 CURVE SMOOTH",
"380 75 OFFCURVE",
"354 72 OFFCURVE",
"341 72 CURVE SMOOTH",
"217 72 LINE"
);
}
);
width = 582;
},
{
layerId = "033ADDEA-23CB-49AC-A4FC-FA912A776280";
paths = (
{
closed = 1;
nodes = (
"181 0 LINE SMOOTH",
"211 0 OFFCURVE",
"310 2 OFFCURVE",
"336 2 CURVE SMOOTH",
"409 2 OFFCURVE",
"502 59 OFFCURVE",
"519 166 CURVE SMOOTH",
"532 242 OFFCURVE",
"498 315 OFFCURVE",
"411 329 CURVE SMOOTH",
"386 333 OFFCURVE",
"366 333 OFFCURVE",
"335 333 CURVE SMOOTH",
"232 333 LINE",
"257 483 LINE",
"50 483 LINE",
"38 411 LINE",
"167 411 LINE",
"99 0 LINE"
);
},
{
closed = 1;
nodes = (
"220 261 LINE",
"332 261 LINE SMOOTH",
"343 261 OFFCURVE",
"367 262 OFFCURVE",
"381 258 CURVE SMOOTH",
"408 250 OFFCURVE",
"450 238 OFFCURVE",
"438 166 CURVE SMOOTH",
"432 128 OFFCURVE",
"416 96 OFFCURVE",
"367 80 CURVE SMOOTH",
"352 75 OFFCURVE",
"326 72 OFFCURVE",
"313 72 CURVE SMOOTH",
"189 72 LINE"
);
}
);
width = 582;
}
);
rightKerningGroup = b;
rightMetricsKey = b;
unicode = 044A;
},
{
glyphname = "ereversed-cy";
lastChange = "2020-03-10 21:49:07 +0000";
layers = (
{
layerId = "1C9972D2-AAA2-4EE5-9F28-188B121D2056";
paths = (
{
closed = 1;
nodes = (
"369 -12 OFFCURVE",
"496 82 OFFCURVE",
"496 243 CURVE SMOOTH",
"496 375 OFFCURVE",
"398 500 OFFCURVE",
"254 500 CURVE SMOOTH",
"127 500 OFFCURVE",
"68 419 OFFCURVE",
"49 401 CURVE",
"105 345 LINE",
"139 399 OFFCURVE",
"197 429 OFFCURVE",
"251 429 CURVE SMOOTH",
"316 429 OFFCURVE",
"398 382 OFFCURVE",
"416 287 CURVE",
"177 287 LINE",
"177 217 LINE",
"420 216 LINE",
"402 110 OFFCURVE",
"315 60 OFFCURVE",
"249 60 CURVE SMOOTH",
"188 60 OFFCURVE",
"139 93 OFFCURVE",
"100 143 CURVE",
"45 93 LINE",
"67 68 OFFCURVE",
"139 -12 OFFCURVE",
"250 -12 CURVE SMOOTH"
);
}
);
width = 541;
},
{
layerId = "033ADDEA-23CB-49AC-A4FC-FA912A776280";
paths = (
{
closed = 1;
nodes = (
"327 -12 OFFCURVE",
"470 82 OFFCURVE",
"496 243 CURVE SMOOTH",
"518 375 OFFCURVE",
"441 500 OFFCURVE",
"297 500 CURVE SMOOTH",
"170 500 OFFCURVE",
"97 419 OFFCURVE",
"75 401 CURVE",
"122 345 LINE",
"165 399 OFFCURVE",
"228 429 OFFCURVE",
"282 429 CURVE SMOOTH",
"347 429 OFFCURVE",
"421 382 OFFCURVE",
"424 287 CURVE",
"185 287 LINE",
"173 217 LINE",
"416 216 LINE",
"380 110 OFFCURVE",
"285 60 OFFCURVE",
"219 60 CURVE SMOOTH",
"158 60 OFFCURVE",
"114 93 OFFCURVE",
"84 143 CURVE",
"20 93 LINE",
"38 68 OFFCURVE",
"97 -12 OFFCURVE",
"208 -12 CURVE SMOOTH"
);
}
);
width = 541;
}
);
leftKerningGroup = o;
leftMetricsKey = o;
rightKerningGroup = o;
rightMetricsKey = o;
unicode = 044D;
},
{
glyphname = "iu-cy";
lastChange = "2020-03-10 21:49:07 +0000";
layers = (
{
components = (
{
name = o;
transform = "{1, 0, 0, 1, 194, 0}";
}
);
layerId = "1C9972D2-AAA2-4EE5-9F28-188B121D2056";
paths = (
{
closed = 1;
nodes = (
"281 289 LINE",
"154 289 LINE",
"154 483 LINE",
"75 483 LINE",
"76 0 LINE",
"154 0 LINE",
"154 217 LINE",
"281 217 LINE"
);
}
);
width = 791;
},
{
components = (
{
name = o;
transform = "{1, 0, 0, 1, 160, 0}";
}
);
layerId = "033ADDEA-23CB-49AC-A4FC-FA912A776280";
paths = (
{
closed = 1;
nodes = (
"289 289 LINE",
"162 289 LINE",
"194 483 LINE",
"115 483 LINE",
"36 0 LINE",
"114 0 LINE",
"150 217 LINE",
"277 217 LINE"
);
}
);
width = 757;
}
);
leftKerningGroup = n;
leftMetricsKey = n;
rightKerningGroup = o;
rightMetricsKey = o;
unicode = 044E;
},
{
glyphname = "ia-cy";
lastChange = "2020-03-10 21:49:07 +0000";
layers = (
{
layerId = "1C9972D2-AAA2-4EE5-9F28-188B121D2056";
paths = (
{
closed = 1;
nodes = (
"423 0 LINE",
"423 483 LINE",
"213 483 LINE SMOOTH",
"189 483 OFFCURVE",
"159 482 OFFCURVE",
"138 476 CURVE SMOOTH",
"50 451 OFFCURVE",
"28 377 OFFCURVE",
"28 322 CURVE SMOOTH",
"28 269 OFFCURVE",
"59 206 OFFCURVE",
"132 186 CURVE SMOOTH",
"165 177 OFFCURVE",
"181 176 OFFCURVE",
"204 176 CURVE SMOOTH",
"345 175 LINE",
"345 0 LINE"
);
},
{
closed = 1;
nodes = (
"101 0 LINE",
"260 205 LINE",
"177 206 LINE",
"15 0 LINE"
);
},
{
closed = 1;
nodes = (
"209 246 OFFCURVE",
"180 246 OFFCURVE",
"166 249 CURVE SMOOTH",
"129 257 OFFCURVE",
"106 284 OFFCURVE",
"106 322 CURVE SMOOTH",
"106 364 OFFCURVE",
"123 387 OFFCURVE",
"148 399 CURVE SMOOTH",
"172 411 OFFCURVE",
"199 411 OFFCURVE",
"211 411 CURVE SMOOTH",
"345 411 LINE",
"345 247 LINE",
"220 246 LINE SMOOTH"
);
}
);
width = 498;
},
{
layerId = "033ADDEA-23CB-49AC-A4FC-FA912A776280";
paths = (
{
closed = 1;
nodes = (
"443 0 LINE",
"523 483 LINE",
"313 483 LINE SMOOTH",
"289 483 OFFCURVE",
"259 482 OFFCURVE",
"237 476 CURVE SMOOTH",
"145 451 OFFCURVE",
"110 377 OFFCURVE",
"101 322 CURVE SMOOTH",
"93 269 OFFCURVE",
"113 206 OFFCURVE",
"183 186 CURVE SMOOTH",
"214 177 OFFCURVE",
"230 176 OFFCURVE",
"253 176 CURVE SMOOTH",
"394 175 LINE",
"365 0 LINE"
);
},
{
closed = 1;
nodes = (
"121 0 LINE",
"314 205 LINE",
"231 206 LINE",
"35 0 LINE"
);
},
{
closed = 1;
nodes = (
"270 246 OFFCURVE",
"241 246 OFFCURVE",
"227 249 CURVE SMOOTH",
"192 257 OFFCURVE",
"173 284 OFFCURVE",
"179 322 CURVE SMOOTH",
"186 364 OFFCURVE",
"207 387 OFFCURVE",
"234 399 CURVE SMOOTH",
"260 411 OFFCURVE",
"287 411 OFFCURVE",
"299 411 CURVE SMOOTH",
"433 411 LINE",
"406 247 LINE",
"281 246 LINE SMOOTH"
);
}
);
width = 558;
}
);
leftKerningGroup = a;
rightKerningGroup = u;
rightMetricsKey = u;
unicode = 044F;
},
{
glyphname = "dje-cy";
lastChange = "2020-03-10 21:49:07 +0000";
layers = (
{
components = (
{
name = hbar;
transform = "{1, 0, 0, 1, 23, 0}";
}
);
layerId = "1C9972D2-AAA2-4EE5-9F28-188B121D2056";
paths = (
{
closed = 1;
nodes = (
"507 -221 OFFCURVE",
"534 -181 OFFCURVE",
"534 -116 CURVE SMOOTH",
"534 275 LINE SMOOTH",
"534 422 OFFCURVE",
"454 276 OFFCURVE",
"454 227 CURVE SMOOTH",
"454 -94 LINE SMOOTH",
"454 -181 OFFCURVE",
"403 -194 OFFCURVE",
"364 -194 CURVE",
"364 -233 LINE",
"395 -238 OFFCURVE",
"427 -239 OFFCURVE",
"453 -233 CURVE SMOOTH"
);
}
);
width = 606;
},
{
components = (
{
name = hbar;
transform = "{1, 0, 0, 1, 23, 0}";
}
);
layerId = "033ADDEA-23CB-49AC-A4FC-FA912A776280";
paths = (
{
closed = 1;
nodes = (
"490 -221 OFFCURVE",
"524 -181 OFFCURVE",
"535 -116 CURVE SMOOTH",
"600 275 LINE SMOOTH",
"624 422 OFFCURVE",
"520 276 OFFCURVE",
"512 227 CURVE SMOOTH",
"458 -94 LINE SMOOTH",
"444 -181 OFFCURVE",
"391 -194 OFFCURVE",
"352 -194 CURVE",
"345 -233 LINE",
"376 -238 OFFCURVE",
"407 -239 OFFCURVE",
"434 -233 CURVE SMOOTH"
);
}
);
width = 606;
}
);
leftKerningGroup = h;
rightKerningGroup = h;
rightMetricsKey = h;
unicode = 0452;
},
{
glyphname = "ustrait-cy";
lastChange = "2020-03-10 21:49:07 +0000";
layers = (
{
layerId = "1C9972D2-AAA2-4EE5-9F28-188B121D2056";
paths = (
{
closed = 1;
nodes = (
"267 -155 LINE",
"267 5 LINE",
"456 484 LINE",
"374 484 LINE",
"228 108 LINE",
"82 484 LINE",
"0 484 LINE",
"185 5 LINE",
"185 -155 LINE"
);
}
);
width = 456;
},
{
associatedMasterId = "1C9972D2-AAA2-4EE5-9F28-188B121D2056";
layerId = "A2873047-0ED6-4C67-9B4D-3870B51BD5C6";
name = "new Layer";
width = 600;
},
{
layerId = "033ADDEA-23CB-49AC-A4FC-FA912A776280";
paths = (
{
closed = 1;
nodes = (
"201 -155 LINE",
"228 5 LINE",
"496 484 LINE",
"414 484 LINE",
"206 108 LINE",
"122 484 LINE",
"40 484 LINE",
"146 5 LINE",
"119 -155 LINE"
);
}
);
width = 456;
}
);
leftKerningGroup = v;
leftMetricsKey = v;
rightKerningGroup = v;
rightMetricsKey = v;
unicode = 04AF;
},
{
glyphname = "obarred-cy";
lastChange = "2020-03-10 21:49:07 +0000";
layers = (
{
components = (
{
name = o;
}
);
layerId = "1C9972D2-AAA2-4EE5-9F28-188B121D2056";
paths = (
{
closed = 1;
nodes = (
"518 207 LINE",
"518 279 LINE",
"92 279 LINE",
"92 207 LINE"
);
}
);
width = 627;
},
{
components = (
{
name = o;
}
);
layerId = "033ADDEA-23CB-49AC-A4FC-FA912A776280";
paths = (
{
closed = 1;
nodes = (
"518 207 LINE",
"518 279 LINE",
"92 279 LINE",
"92 207 LINE"
);
}
);
width = 600;
}
);
leftKerningGroup = o;
rightKerningGroup = o;
unicode = 04E9;
},
{
glyphname = "ve-cy.loclBGR";
lastChange = "2020-03-10 21:49:07 +0000";
layers = (
{
layerId = "1C9972D2-AAA2-4EE5-9F28-188B121D2056";
paths = (
{
closed = 1;
nodes = (
"431 -12 OFFCURVE",
"520 62 OFFCURVE",
"520 186 CURVE SMOOTH",
"520 287 OFFCURVE",
"480 331 OFFCURVE",
"376 365 CURVE",
"432 391 OFFCURVE",
"462 439 OFFCURVE",
"462 500 CURVE SMOOTH",
"462 604 OFFCURVE",
"376 683 OFFCURVE",
"257 683 CURVE SMOOTH",
"162 683 OFFCURVE",
"90 634 OFFCURVE",
"68 560 CURVE SMOOTH",
"61 537 OFFCURVE",
"61 519 OFFCURVE",
"61 504 CURVE SMOOTH",
"61 209 LINE SMOOTH",
"61 179 OFFCURVE",
"61 151 OFFCURVE",
"70 118 CURVE SMOOTH",
"93 32 OFFCURVE",
"166 -12 OFFCURVE",
"282 -12 CURVE SMOOTH"
);
},
{
closed = 1;
nodes = (
"219 60 OFFCURVE",
"167 84 OFFCURVE",
"148 130 CURVE SMOOTH",
"138 154 OFFCURVE",
"139 189 OFFCURVE",
"139 199 CURVE SMOOTH",
"140 467 LINE SMOOTH",
"140 480 OFFCURVE",
"140 521 OFFCURVE",
"157 553 CURVE SMOOTH",
"176 589 OFFCURVE",
"213 611 OFFCURVE",
"260 611 CURVE SMOOTH",
"332 611 OFFCURVE",
"384 563 OFFCURVE",
"384 497 CURVE SMOOTH",
"384 441 OFFCURVE",
"350 401 OFFCURVE",
"291 389 CURVE",
"291 325 LINE",
"387 316 OFFCURVE",
"442 268 OFFCURVE",
"442 192 CURVE SMOOTH",
"442 111 OFFCURVE",
"380 60 OFFCURVE",
"288 60 CURVE SMOOTH"
);
}
);
width = 565;
},
{
layerId = "033ADDEA-23CB-49AC-A4FC-FA912A776280";
paths = (
{
closed = 1;
nodes = (
"388 -12 OFFCURVE",
"489 62 OFFCURVE",
"510 186 CURVE SMOOTH",
"527 287 OFFCURVE",
"494 331 OFFCURVE",
"395 365 CURVE",
"456 391 OFFCURVE",
"494 439 OFFCURVE",
"504 500 CURVE SMOOTH",
"521 604 OFFCURVE",
"448 683 OFFCURVE",
"329 683 CURVE SMOOTH",
"234 683 OFFCURVE",
"154 634 OFFCURVE",
"120 560 CURVE SMOOTH",
"109 537 OFFCURVE",
"106 519 OFFCURVE",
"103 504 CURVE SMOOTH",
"55 209 LINE SMOOTH",
"50 179 OFFCURVE",
"45 151 OFFCURVE",
"49 118 CURVE SMOOTH",
"57 32 OFFCURVE",
"123 -12 OFFCURVE",
"239 -12 CURVE SMOOTH"
);
},
{
closed = 1;
nodes = (
"188 60 OFFCURVE",
"140 84 OFFCURVE",
"129 130 CURVE SMOOTH",
"122 154 OFFCURVE",
"129 189 OFFCURVE",
"131 199 CURVE SMOOTH",
"176 467 LINE SMOOTH",
"178 480 OFFCURVE",
"185 521 OFFCURVE",
"208 553 CURVE SMOOTH",
"233 589 OFFCURVE",
"273 611 OFFCURVE",
"320 611 CURVE SMOOTH",
"392 611 OFFCURVE",
"436 563 OFFCURVE",
"425 497 CURVE SMOOTH",
"416 441 OFFCURVE",
"375 401 OFFCURVE",
"314 389 CURVE",
"304 325 LINE",
"398 316 OFFCURVE",
"445 268 OFFCURVE",
"433 192 CURVE SMOOTH",
"419 111 OFFCURVE",
"349 60 OFFCURVE",
"257 60 CURVE SMOOTH"
);
}
);
width = 564;
}
);
leftKerningGroup = b;
leftMetricsKey = b;
rightKerningGroup = B;
rightMetricsKey = B;
},
{
glyphname = "zhe-cy.loclBGR";
lastChange = "2020-03-10 21:49:07 +0000";
layers = (
{
components = (
{
name = "zhe-cy";
}
);
layerId = "1C9972D2-AAA2-4EE5-9F28-188B121D2056";
paths = (
{
closed = 1;
nodes = (
"339 323 LINE",
"417 323 LINE",
"417 589 LINE",
"339 589 LINE"
);
}
);
width = 756;
},
{
components = (
{
name = "zhe-cy";
}
);
layerId = "033ADDEA-23CB-49AC-A4FC-FA912A776280";
paths = (
{
closed = 1;
nodes = (
"342 323 LINE",
"420 323 LINE",
"465 589 LINE",
"387 589 LINE"
);
}
);
width = 600;
}
);
leftKerningGroup = x;
rightKerningGroup = x;
},
{
glyphname = "tse-cy.loclBGR";
lastChange = "2020-03-10 21:49:07 +0000";
layers = (
{
components = (
{
name = u;
}
);
layerId = "1C9972D2-AAA2-4EE5-9F28-188B121D2056";
paths = (
{
closed = 1;
nodes = (
"494 0 LINE",
"494 -90 LINE",
"572 -90 LINE",
"572 78 LINE",
"424 78 LINE",
"424 0 LINE"
);
}
);
width = 607;
},
{
components = (
{
name = u;
}
);
layerId = "033ADDEA-23CB-49AC-A4FC-FA912A776280";
paths = (
{
closed = 1;
nodes = (
"494 0 LINE",
"494 -90 LINE",
"572 -90 LINE",
"572 78 LINE",
"424 78 LINE",
"424 0 LINE"
);
}
);
width = 662;
}
);
leftKerningGroup = u;
rightKerningGroup = "tse-cy";
rightMetricsKey = "tse-cy";
},
{
glyphname = "shcha-cy.loclBGR";
lastChange = "2020-03-10 21:49:07 +0000";
layers = (
{
components = (
{
name = m;
transform = "{-1, 0, 0, -1, 873, 483}";
}
);
layerId = "1C9972D2-AAA2-4EE5-9F28-188B121D2056";
paths = (
{
closed = 1;
nodes = (
"790 0 LINE",
"790 -90 LINE",
"868 -90 LINE",
"868 78 LINE",
"720 78 LINE",
"720 0 LINE"
);
}
);
width = 903;
},
{
components = (
{
name = m;
transform = "{-1, 0, 0, -1, 873, 483}";
}
);
layerId = "033ADDEA-23CB-49AC-A4FC-FA912A776280";
paths = (
{
closed = 1;
nodes = (
"790 0 LINE",
"790 -90 LINE",
"868 -90 LINE",
"868 78 LINE",
"720 78 LINE",
"720 0 LINE"
);
}
);
width = 958;
}
);
leftKerningGroup = u;
leftMetricsKey = u;
rightKerningGroup = "tse-cy";
rightMetricsKey = "tse-cy";
},
{
glyphname = "iu-cy.loclBGR";
lastChange = "2020-03-10 21:49:07 +0000";
layers = (
{
components = (
{
name = "iu-cy";
}
);
layerId = "1C9972D2-AAA2-4EE5-9F28-188B121D2056";
paths = (
{
closed = 1;
nodes = (
"154 0 LINE",
"154 720 LINE",
"76 720 LINE",
"76 0 LINE"
);
}
);
width = 867;
},
{
components = (
{
name = "iu-cy";
}
);
layerId = "033ADDEA-23CB-49AC-A4FC-FA912A776280";
paths = (
{
closed = 1;
nodes = (
"154 0 LINE",
"154 720 LINE",
"76 720 LINE",
"76 0 LINE"
);
}
);
width = 600;
}
);
leftKerningGroup = n;
rightKerningGroup = u;
},
{
glyphname = uni03A9;
lastChange = "2020-03-10 21:49:07 +0000";
layers = (
{
layerId = "1C9972D2-AAA2-4EE5-9F28-188B121D2056";
paths = (
{
closed = 1;
nodes = (
"162 363 LINE SMOOTH",
"162 510 OFFCURVE",
"246 649 OFFCURVE",
"429 649 CURVE SMOOTH",
"610 649 OFFCURVE",
"704 518 OFFCURVE",
"704 366 CURVE SMOOTH",
"704 358 LINE SMOOTH",
"704 183 OFFCURVE",
"603 100 OFFCURVE",
"494 40 CURVE",
"494 0 LINE",
"781 0 LINE",
"782 76 LINE",
"638 76 LINE",
"711 119 OFFCURVE",
"786 207 OFFCURVE",
"786 358 CURVE SMOOTH",
"786 366 LINE SMOOTH",
"786 586 OFFCURVE",
"634 725 OFFCURVE",
"429 725 CURVE SMOOTH",
"222 725 OFFCURVE",
"80 564 OFFCURVE",
"80 363 CURVE SMOOTH",
"80 355 LINE SMOOTH",
"80 230 OFFCURVE",
"145 127 OFFCURVE",
"215 76 CURVE",
"76 76 LINE",
"78 0 LINE",
"371 0 LINE",
"371 40 LINE",
"302 72 OFFCURVE",
"162 179 OFFCURVE",
"162 355 CURVE SMOOTH"
);
}
);
width = 866;
},
{
layerId = "033ADDEA-23CB-49AC-A4FC-FA912A776280";
width = 600;
}
);
note = uni03A9;
unicode = 03A9;
},
{
glyphname = zero;
lastChange = "2020-03-10 21:49:07 +0000";
layers = (
{
layerId = "1C9972D2-AAA2-4EE5-9F28-188B121D2056";
paths = (
{
closed = 1;
nodes = (
"546 -12 OFFCURVE",
"652 154 OFFCURVE",
"652 356 CURVE SMOOTH",
"652 560 OFFCURVE",
"546 725 OFFCURVE",
"356 725 CURVE SMOOTH",
"169 725 OFFCURVE",
"60 560 OFFCURVE",
"60 356 CURVE SMOOTH",
"60 154 OFFCURVE",
"169 -12 OFFCURVE",
"356 -12 CURVE SMOOTH"
);
},
{
closed = 1;
nodes = (
"218 67 OFFCURVE",
"143 197 OFFCURVE",
"143 356 CURVE SMOOTH",
"143 517 OFFCURVE",
"218 647 OFFCURVE",
"356 647 CURVE SMOOTH",
"495 647 OFFCURVE",
"569 517 OFFCURVE",
"569 356 CURVE SMOOTH",
"569 197 OFFCURVE",
"495 67 OFFCURVE",
"356 67 CURVE SMOOTH"
);
}
);
width = 712;
},
{
layerId = "033ADDEA-23CB-49AC-A4FC-FA912A776280";
width = 600;
}
);
unicode = 0030;
},
{
glyphname = one;
lastChange = "2020-03-10 21:49:07 +0000";
layers = (
{
layerId = "1C9972D2-AAA2-4EE5-9F28-188B121D2056";
paths = (
{
closed = 1;
nodes = (
"337 0 LINE",
"255 0 LINE",
"255 627 LINE",
"100 566 LINE",
"100 652 LINE",
"255 713 LINE",
"337 713 LINE"
);
}
);
width = 437;
},
{
layerId = "033ADDEA-23CB-49AC-A4FC-FA912A776280";
paths = (
{
closed = 1;
nodes = (
"357 0 LINE",
"275 0 LINE",
"379 627 LINE",
"214 566 LINE",
"228 652 LINE",
"393 713 LINE",
"475 713 LINE"
);
}
);
width = 600;
}
);
note = one;
unicode = 0031;
},
{
glyphname = two;
lastChange = "2020-03-10 21:49:07 +0000";
layers = (
{
layerId = "1C9972D2-AAA2-4EE5-9F28-188B121D2056";
paths = (
{
closed = 1;
nodes = (
"401 720 OFFCURVE",
"501 643 OFFCURVE",
"501 513 CURVE SMOOTH",
"501 422 OFFCURVE",
"451 358 OFFCURVE",
"403 309 CURVE SMOOTH",
"178 76 LINE",
"516 76 LINE",
"516 0 LINE",
"50 0 LINE",
"49 56 LINE",
"318 335 LINE SMOOTH",
"384 404 OFFCURVE",
"418 431 OFFCURVE",
"419 513 CURVE SMOOTH",
"420 581 OFFCURVE",
"375 645 OFFCURVE",
"272 645 CURVE SMOOTH",
"191 645 OFFCURVE",
"139 606 OFFCURVE",
"115 586 CURVE SMOOTH",
"85 560 LINE",
"40 624 LINE",
"68 649 LINE SMOOTH",
"111 687 OFFCURVE",
"193 722 OFFCURVE",
"279 721 CURVE SMOOTH"
);
}
);
width = 566;
},
{
layerId = "033ADDEA-23CB-49AC-A4FC-FA912A776280";
paths = (
{
closed = 1;
nodes = (
"540 720 OFFCURVE",
"627 643 OFFCURVE",
"606 513 CURVE SMOOTH",
"591 422 OFFCURVE",
"530 358 OFFCURVE",
"474 309 CURVE SMOOTH",
"211 76 LINE",
"549 76 LINE",
"536 0 LINE",
"70 0 LINE",
"78 56 LINE",
"393 335 LINE SMOOTH",
"471 404 OFFCURVE",
"509 431 OFFCURVE",
"524 513 CURVE SMOOTH",
"536 581 OFFCURVE",
"502 645 OFFCURVE",
"399 645 CURVE SMOOTH",
"318 645 OFFCURVE",
"259 606 OFFCURVE",
"232 586 CURVE SMOOTH",
"198 560 LINE",
"163 624 LINE",
"195 649 LINE SMOOTH",
"245 687 OFFCURVE",
"333 722 OFFCURVE",
"418 721 CURVE SMOOTH"
);
}
);
width = 600;
}
);
note = two;
unicode = 0032;
},
{
glyphname = three;
lastChange = "2020-03-10 21:49:07 +0000";
layers = (
{
layerId = "1C9972D2-AAA2-4EE5-9F28-188B121D2056";
paths = (
{
closed = 1;
nodes = (
"261 350 LINE SMOOTH",
"374 350 OFFCURVE",
"430 298 OFFCURVE",
"430 208 CURVE SMOOTH",
"430 113 OFFCURVE",
"368 62 OFFCURVE",
"265 62 CURVE SMOOTH",
"149 62 OFFCURVE",
"89 145 OFFCURVE",
"90 146 CURVE",
"40 85 LINE",
"40 85 OFFCURVE",
"110 -14 OFFCURVE",
"267 -14 CURVE SMOOTH",
"426 -14 OFFCURVE",
"512 85 OFFCURVE",
"512 208 CURVE SMOOTH",
"512 324 OFFCURVE",
"434 419 OFFCURVE",
"286 421 CURVE",
"503 644 LINE",
"503 712 LINE",
"55 712 LINE",
"55 636 LINE",
"390 636 LINE",
"183 420 LINE",
"183 350 LINE"
);
}
);
width = 572;
},
{
layerId = "033ADDEA-23CB-49AC-A4FC-FA912A776280";
paths = (
{
closed = 1;
nodes = (
"339 350 LINE SMOOTH",
"452 350 OFFCURVE",
"499 298 OFFCURVE",
"484 208 CURVE SMOOTH",
"469 113 OFFCURVE",
"398 62 OFFCURVE",
"295 62 CURVE SMOOTH",
"179 62 OFFCURVE",
"133 145 OFFCURVE",
"134 146 CURVE",
"74 85 LINE",
"74 85 OFFCURVE",
"128 -14 OFFCURVE",
"285 -14 CURVE SMOOTH",
"444 -14 OFFCURVE",
"546 85 OFFCURVE",
"566 208 CURVE SMOOTH",
"586 324 OFFCURVE",
"523 419 OFFCURVE",
"376 421 CURVE",
"630 644 LINE",
"641 712 LINE",
"193 712 LINE",
"180 636 LINE",
"515 636 LINE",
"273 420 LINE",
"261 350 LINE"
);
}
);
width = 600;
}
);
note = three;
unicode = 0033;
},
{
glyphname = four;
lastChange = "2020-03-10 21:49:07 +0000";
layers = (
{
layerId = "1C9972D2-AAA2-4EE5-9F28-188B121D2056";
paths = (
{
closed = 1;
nodes = (
"399 708 LINE",
"460 708 LINE",
"459 243 LINE",
"588 243 LINE",
"588 167 LINE",
"459 167 LINE",
"459 0 LINE",
"377 0 LINE",
"377 167 LINE",
"20 167 LINE",
"20 228 LINE",
"399 708 LINE",
"445 647 LINE",
"131 242 LINE",
"378 242 LINE",
"380 668 LINE"
);
}
);
width = 598;
},
{
layerId = "033ADDEA-23CB-49AC-A4FC-FA912A776280";
paths = (
{
closed = 1;
nodes = (
"536 708 LINE",
"597 708 LINE",
"519 243 LINE",
"648 243 LINE",
"636 167 LINE",
"507 167 LINE",
"479 0 LINE",
"397 0 LINE",
"425 167 LINE",
"68 167 LINE",
"78 228 LINE",
"536 708 LINE",
"572 647 LINE",
"191 242 LINE",
"438 242 LINE",
"511 668 LINE"
);
}
);
width = 600;
}
);
leftKerningGroup = A;
note = four;
rightKerningGroup = o;
unicode = 0034;
},
{
glyphname = five;
lastChange = "2020-03-10 21:49:07 +0000";
layers = (
{
layerId = "1C9972D2-AAA2-4EE5-9F28-188B121D2056";
paths = (
{
closed = 1;
nodes = (
"80 343 LINE",
"99 328 LINE",
"154 350 OFFCURVE",
"198 358 OFFCURVE",
"250 358 CURVE SMOOTH",
"378 358 OFFCURVE",
"430 307 OFFCURVE",
"430 224 CURVE SMOOTH",
"430 132 OFFCURVE",
"369 64 OFFCURVE",
"264 64 CURVE SMOOTH",
"185 64 OFFCURVE",
"127 102 OFFCURVE",
"90 147 CURVE",
"40 89 LINE",
"67 48 OFFCURVE",
"142 -12 OFFCURVE",
"263 -12 CURVE SMOOTH",
"399 -12 OFFCURVE",
"512 64 OFFCURVE",
"512 218 CURVE SMOOTH",
"512 360 OFFCURVE",
"417 435 OFFCURVE",
"246 435 CURVE SMOOTH",
"216 435 OFFCURVE",
"193 429 OFFCURVE",
"159 419 CURVE",
"165 639 LINE",
"480 637 LINE",
"480 713 LINE",
"90 713 LINE"
);
}
);
width = 564;
},
{
layerId = "033ADDEA-23CB-49AC-A4FC-FA912A776280";
paths = (
{
closed = 1;
nodes = (
"157 343 LINE",
"173 328 LINE",
"232 350 OFFCURVE",
"277 358 OFFCURVE",
"329 358 CURVE SMOOTH",
"457 358 OFFCURVE",
"501 307 OFFCURVE",
"487 224 CURVE SMOOTH",
"472 132 OFFCURVE",
"400 64 OFFCURVE",
"295 64 CURVE SMOOTH",
"216 64 OFFCURVE",
"164 102 OFFCURVE",
"134 147 CURVE",
"75 89 LINE",
"95 48 OFFCURVE",
"160 -12 OFFCURVE",
"281 -12 CURVE SMOOTH",
"417 -12 OFFCURVE",
"543 64 OFFCURVE",
"568 218 CURVE SMOOTH",
"592 360 OFFCURVE",
"509 435 OFFCURVE",
"338 435 CURVE SMOOTH",
"308 435 OFFCURVE",
"284 429 OFFCURVE",
"248 419 CURVE",
"291 639 LINE",
"605 637 LINE",
"618 713 LINE",
"228 713 LINE"
);
}
);
width = 600;
}
);
note = five;
rightKerningGroup = fove;
unicode = 0035;
},
{
glyphname = six;
lastChange = "2020-03-10 21:49:07 +0000";
layers = (
{
layerId = "1C9972D2-AAA2-4EE5-9F28-188B121D2056";
paths = (
{
closed = 1;
nodes = (
"162 350 LINE SMOOTH",
"162 563 OFFCURVE",
"245 642 OFFCURVE",
"360 642 CURVE SMOOTH",
"460 642 OFFCURVE",
"511 561 OFFCURVE",
"511 561 CURVE",
"560 621 LINE",
"560 621 OFFCURVE",
"506 719 OFFCURVE",
"360 719 CURVE SMOOTH",
"199 719 OFFCURVE",
"80 597 OFFCURVE",
"80 350 CURVE SMOOTH",
"80 85 OFFCURVE",
"198 -10 OFFCURVE",
"343 -10 CURVE SMOOTH",
"485 -10 OFFCURVE",
"582 95 OFFCURVE",
"582 220 CURVE SMOOTH",
"582 339 OFFCURVE",
"488 438 OFFCURVE",
"349 438 CURVE SMOOTH",
"266 438 OFFCURVE",
"201 403 OFFCURVE",
"162 347 CURVE"
);
},
{
closed = 1;
nodes = (
"439 361 OFFCURVE",
"500 302 OFFCURVE",
"500 220 CURVE SMOOTH",
"500 136 OFFCURVE",
"434 67 OFFCURVE",
"343 67 CURVE SMOOTH",
"267 67 OFFCURVE",
"199 108 OFFCURVE",
"174 218 CURVE",
"189 305 OFFCURVE",
"255 361 OFFCURVE",
"348 361 CURVE SMOOTH"
);
}
);
width = 617;
},
{
layerId = "033ADDEA-23CB-49AC-A4FC-FA912A776280";
paths = (
{
closed = 1;
nodes = (
"240 350 LINE SMOOTH",
"275 563 OFFCURVE",
"371 642 OFFCURVE",
"486 642 CURVE SMOOTH",
"586 642 OFFCURVE",
"624 561 OFFCURVE",
"624 561 CURVE",
"683 621 LINE",
"683 621 OFFCURVE",
"645 719 OFFCURVE",
"499 719 CURVE SMOOTH",
"338 719 OFFCURVE",
"199 597 OFFCURVE",
"158 350 CURVE SMOOTH",
"114 85 OFFCURVE",
"216 -10 OFFCURVE",
"361 -10 CURVE SMOOTH",
"503 -10 OFFCURVE",
"618 95 OFFCURVE",
"638 220 CURVE SMOOTH",
"658 339 OFFCURVE",
"581 438 OFFCURVE",
"442 438 CURVE SMOOTH",
"359 438 OFFCURVE",
"288 403 OFFCURVE",
"239 347 CURVE"
);
},
{
closed = 1;
nodes = (
"519 361 OFFCURVE",
"570 302 OFFCURVE",
"556 220 CURVE SMOOTH",
"543 136 OFFCURVE",
"465 67 OFFCURVE",
"374 67 CURVE SMOOTH",
"298 67 OFFCURVE",
"237 108 OFFCURVE",
"230 218 CURVE",
"259 305 OFFCURVE",
"335 361 OFFCURVE",
"428 361 CURVE SMOOTH"
);
}
);
width = 600;
}
);
note = six;
unicode = 0036;
},
{
glyphname = seven;
lastChange = "2020-03-10 21:49:07 +0000";
layers = (
{
layerId = "1C9972D2-AAA2-4EE5-9F28-188B121D2056";
paths = (
{
closed = 1;
nodes = (
"541 651 LINE",
"189 0 LINE",
"103 0 LINE",
"444 637 LINE",
"40 637 LINE",
"40 713 LINE",
"541 713 LINE"
);
}
);
width = 571;
},
{
layerId = "033ADDEA-23CB-49AC-A4FC-FA912A776280";
paths = (
{
closed = 1;
nodes = (
"669 651 LINE",
"209 0 LINE",
"123 0 LINE",
"569 637 LINE",
"165 637 LINE",
"178 713 LINE",
"679 713 LINE"
);
}
);
width = 600;
}
);
leftKerningGroup = seven;
note = seven;
unicode = 0037;
},
{
glyphname = eight;
lastChange = "2020-03-10 21:49:07 +0000";
layers = (
{
layerId = "1C9972D2-AAA2-4EE5-9F28-188B121D2056";
paths = (
{
closed = 1;
nodes = (
"454 -14 OFFCURVE",
"542 85 OFFCURVE",
"542 200 CURVE SMOOTH",
"542 278 OFFCURVE",
"504 341 OFFCURVE",
"437 375 CURVE",
"494 408 OFFCURVE",
"524 465 OFFCURVE",
"524 529 CURVE SMOOTH",
"524 641 OFFCURVE",
"442 725 OFFCURVE",
"298 725 CURVE SMOOTH",
"154 725 OFFCURVE",
"68 641 OFFCURVE",
"68 529 CURVE SMOOTH",
"68 465 OFFCURVE",
"100 408 OFFCURVE",
"158 375 CURVE",
"90 341 OFFCURVE",
"50 278 OFFCURVE",
"50 200 CURVE SMOOTH",
"50 85 OFFCURVE",
"140 -14 OFFCURVE",
"298 -14 CURVE SMOOTH"
);
},
{
closed = 1;
nodes = (
"460 123 OFFCURVE",
"396 62 OFFCURVE",
"298 62 CURVE SMOOTH",
"198 62 OFFCURVE",
"132 123 OFFCURVE",
"132 200 CURVE SMOOTH",
"132 277 OFFCURVE",
"198 336 OFFCURVE",
"298 336 CURVE SMOOTH",
"396 336 OFFCURVE",
"460 277 OFFCURVE",
"460 200 CURVE SMOOTH"
);
},
{
closed = 1;
nodes = (
"200 408 OFFCURVE",
"150 462 OFFCURVE",
"150 530 CURVE SMOOTH",
"150 594 OFFCURVE",
"200 649 OFFCURVE",
"298 649 CURVE SMOOTH",
"394 649 OFFCURVE",
"442 594 OFFCURVE",
"442 530 CURVE SMOOTH",
"442 462 OFFCURVE",
"394 408 OFFCURVE",
"298 408 CURVE SMOOTH"
);
}
);
width = 594;
},
{
layerId = "033ADDEA-23CB-49AC-A4FC-FA912A776280";
paths = (
{
closed = 1;
nodes = (
"472 -14 OFFCURVE",
"576 85 OFFCURVE",
"595 200 CURVE SMOOTH",
"608 278 OFFCURVE",
"580 341 OFFCURVE",
"519 375 CURVE",
"582 408 OFFCURVE",
"621 465 OFFCURVE",
"632 529 CURVE SMOOTH",
"650 641 OFFCURVE",
"582 725 OFFCURVE",
"438 725 CURVE SMOOTH",
"294 725 OFFCURVE",
"194 641 OFFCURVE",
"176 529 CURVE SMOOTH",
"165 465 OFFCURVE",
"188 408 OFFCURVE",
"240 375 CURVE",
"166 341 OFFCURVE",
"116 278 OFFCURVE",
"103 200 CURVE SMOOTH",
"84 85 OFFCURVE",
"158 -14 OFFCURVE",
"316 -14 CURVE SMOOTH"
);
},
{
closed = 1;
nodes = (
"500 123 OFFCURVE",
"426 62 OFFCURVE",
"328 62 CURVE SMOOTH",
"228 62 OFFCURVE",
"172 123 OFFCURVE",
"185 200 CURVE SMOOTH",
"198 277 OFFCURVE",
"274 336 OFFCURVE",
"374 336 CURVE SMOOTH",
"472 336 OFFCURVE",
"526 277 OFFCURVE",
"513 200 CURVE SMOOTH"
);
},
{
closed = 1;
nodes = (
"288 408 OFFCURVE",
"246 462 OFFCURVE",
"258 530 CURVE SMOOTH",
"268 594 OFFCURVE",
"327 649 OFFCURVE",
"425 649 CURVE SMOOTH",
"521 649 OFFCURVE",
"560 594 OFFCURVE",
"550 530 CURVE SMOOTH",
"538 462 OFFCURVE",
"482 408 OFFCURVE",
"386 408 CURVE SMOOTH"
);
}
);
width = 600;
}
);
note = eight;
unicode = 0038;
},
{
glyphname = uni2776;
lastChange = "2020-03-10 21:49:07 +0000";
layers = (
{
components = (
{
name = onesuperior;
transform = "{1, 0, 0, 1, 266, -303}";
}
);
guideLines = (
{
angle = 180;
position = "{-99, 181}";
},
{
angle = 180;
position = "{-45, 538}";
}
);
layerId = "1C9972D2-AAA2-4EE5-9F28-188B121D2056";
paths = (
{
closed = 1;
nodes = (
"611 724 OFFCURVE",
"774 560 OFFCURVE",
"774 355 CURVE",
"774 155 OFFCURVE",
"611 -12 OFFCURVE",
"406 -12 CURVE",
"205 -12 OFFCURVE",
"40 155 OFFCURVE",
"40 355 CURVE",
"40 560 OFFCURVE",
"205 724 OFFCURVE",
"406 724 CURVE"
);
}
);
width = 814;
},
{
components = (
{
name = onesuperior;
transform = "{1, 0, 0, 1, 216, -303}";
}
);
layerId = "033ADDEA-23CB-49AC-A4FC-FA912A776280";
paths = (
{
closed = 1;
nodes = (
"751 724 OFFCURVE",
"887 560 OFFCURVE",
"853 355 CURVE",
"820 155 OFFCURVE",
"629 -12 OFFCURVE",
"424 -12 CURVE",
"223 -12 OFFCURVE",
"86 155 OFFCURVE",
"119 355 CURVE",
"153 560 OFFCURVE",
"345 724 OFFCURVE",
"546 724 CURVE"
);
}
);
width = 600;
}
);
leftKerningGroup = at;
note = uni2776;
rightKerningGroup = at;
unicode = 2776;
},
{
glyphname = uni2777;
lastChange = "2020-03-10 21:49:07 +0000";
layers = (
{
components = (
{
name = twosuperior;
transform = "{1, 0, 0, 1, 245, -301}";
}
);
guideLines = (
{
angle = 180;
position = "{-6, 181}";
},
{
angle = 180;
position = "{-3, 538}";
}
);
layerId = "1C9972D2-AAA2-4EE5-9F28-188B121D2056";
paths = (
{
closed = 1;
nodes = (
"40 153 OFFCURVE",
"205 -12 OFFCURVE",
"409 -12 CURVE SMOOTH",
"612 -12 OFFCURVE",
"777 153 OFFCURVE",
"777 357 CURVE SMOOTH",
"777 560 OFFCURVE",
"612 725 OFFCURVE",
"409 725 CURVE SMOOTH",
"205 725 OFFCURVE",
"40 560 OFFCURVE",
"40 357 CURVE SMOOTH"
);
}
);
width = 816;
},
{
layerId = "033ADDEA-23CB-49AC-A4FC-FA912A776280";
width = 600;
}
);
leftKerningGroup = at;
note = uni2777;
rightKerningGroup = at;
unicode = 2777;
},
{
glyphname = uni2778;
lastChange = "2020-03-10 21:49:07 +0000";
layers = (
{
components = (
{
name = threesuperior;
transform = "{1, 0, 0, 1, 231, -308}";
}
);
guideLines = (
{
angle = 180;
position = "{-6, 181}";
},
{
angle = 180;
position = "{-3, 538}";
}
);
layerId = "1C9972D2-AAA2-4EE5-9F28-188B121D2056";
paths = (
{
closed = 1;
nodes = (
"611 724 OFFCURVE",
"774 560 OFFCURVE",
"774 355 CURVE SMOOTH",
"774 155 OFFCURVE",
"611 -12 OFFCURVE",
"406 -12 CURVE SMOOTH",
"205 -12 OFFCURVE",
"40 155 OFFCURVE",
"40 355 CURVE SMOOTH",
"40 560 OFFCURVE",
"205 724 OFFCURVE",
"406 724 CURVE SMOOTH"
);
}
);
width = 814;
},
{
layerId = "033ADDEA-23CB-49AC-A4FC-FA912A776280";
width = 600;
}
);
leftKerningGroup = at;
note = uni2778;
rightKerningGroup = at;
unicode = 2778;
},
{
glyphname = uni2779;
lastChange = "2020-03-10 21:49:07 +0000";
layers = (
{
components = (
{
name = foursuperior;
transform = "{1, 0, 0, 1, 210, -301}";
}
);
guideLines = (
{
angle = 180;
position = "{-6, 181}";
},
{
angle = 180;
position = "{-3, 538}";
}
);
layerId = "1C9972D2-AAA2-4EE5-9F28-188B121D2056";
paths = (
{
closed = 1;
nodes = (
"611 724 OFFCURVE",
"774 560 OFFCURVE",
"774 355 CURVE SMOOTH",
"774 155 OFFCURVE",
"611 -12 OFFCURVE",
"406 -12 CURVE SMOOTH",
"205 -12 OFFCURVE",
"40 155 OFFCURVE",
"40 355 CURVE SMOOTH",
"40 560 OFFCURVE",
"205 724 OFFCURVE",
"406 724 CURVE SMOOTH"
);
}
);
width = 814;
},
{
layerId = "033ADDEA-23CB-49AC-A4FC-FA912A776280";
width = 600;
}
);
leftKerningGroup = at;
note = uni2779;
rightKerningGroup = at;
unicode = 2779;
},
{
glyphname = uni277A;
lastChange = "2020-03-10 21:49:07 +0000";
layers = (
{
components = (
{
name = fivesuperior;
transform = "{1, 0, 0, 1, 230, -302}";
}
);
guideLines = (
{
angle = 180;
position = "{-6, 181}";
},
{
angle = 180;
position = "{-3, 538}";
}
);
layerId = "1C9972D2-AAA2-4EE5-9F28-188B121D2056";
paths = (
{
closed = 1;
nodes = (
"611 724 OFFCURVE",
"774 560 OFFCURVE",
"774 355 CURVE SMOOTH",
"774 155 OFFCURVE",
"611 -12 OFFCURVE",
"406 -12 CURVE SMOOTH",
"205 -12 OFFCURVE",
"40 155 OFFCURVE",
"40 355 CURVE SMOOTH",
"40 560 OFFCURVE",
"205 724 OFFCURVE",
"406 724 CURVE SMOOTH"
);
}
);
width = 814;
},
{
layerId = "033ADDEA-23CB-49AC-A4FC-FA912A776280";
width = 600;
}
);
leftKerningGroup = at;
note = uni277A;
rightKerningGroup = at;
unicode = 277A;
},
{
glyphname = uni277B;
lastChange = "2020-03-10 21:49:07 +0000";
layers = (
{
components = (
{
name = sixsuperior;
transform = "{1, 0, 0, 1, 219, -304}";
}
);
guideLines = (
{
angle = 180;
position = "{-6, 181}";
},
{
angle = 180;
position = "{-3, 538}";
}
);
layerId = "1C9972D2-AAA2-4EE5-9F28-188B121D2056";
paths = (
{
closed = 1;
nodes = (
"611 724 OFFCURVE",
"774 560 OFFCURVE",
"774 355 CURVE SMOOTH",
"774 155 OFFCURVE",
"611 -12 OFFCURVE",
"406 -12 CURVE SMOOTH",
"205 -12 OFFCURVE",
"40 155 OFFCURVE",
"40 355 CURVE SMOOTH",
"40 560 OFFCURVE",
"205 724 OFFCURVE",
"406 724 CURVE SMOOTH"
);
}
);
width = 814;
},
{
layerId = "033ADDEA-23CB-49AC-A4FC-FA912A776280";
width = 600;
}
);
leftKerningGroup = at;
note = uni277B;
rightKerningGroup = at;
unicode = 277B;
},
{
glyphname = uni277C;
lastChange = "2020-03-10 21:49:07 +0000";
layers = (
{
components = (
{
name = sevensuperior;
transform = "{1, 0, 0, 1, 260, -306}";
}
);
guideLines = (
{
angle = 180;
position = "{-6, 181}";
},
{
angle = 180;
position = "{-3, 538}";
}
);
layerId = "1C9972D2-AAA2-4EE5-9F28-188B121D2056";
paths = (
{
closed = 1;
nodes = (
"611 -12 OFFCURVE",
"774 155 OFFCURVE",
"774 355 CURVE SMOOTH",
"774 560 OFFCURVE",
"611 724 OFFCURVE",
"406 724 CURVE SMOOTH",
"205 724 OFFCURVE",
"40 560 OFFCURVE",
"40 355 CURVE SMOOTH",
"40 155 OFFCURVE",
"205 -12 OFFCURVE",
"406 -12 CURVE SMOOTH"
);
}
);
width = 814;
},
{
layerId = "033ADDEA-23CB-49AC-A4FC-FA912A776280";
width = 600;
}
);
leftKerningGroup = at;
note = uni277C;
rightKerningGroup = at;
unicode = 277C;
},
{
glyphname = uni277D;
lastChange = "2020-03-10 21:49:07 +0000";
layers = (
{
components = (
{
name = eightsuperior;
transform = "{1, 0, 0, 1, 244, -302}";
}
);
guideLines = (
{
angle = 180;
position = "{-6, 181}";
},
{
angle = 180;
position = "{-3, 538}";
}
);
layerId = "1C9972D2-AAA2-4EE5-9F28-188B121D2056";
paths = (
{
closed = 1;
nodes = (
"611 724 OFFCURVE",
"774 560 OFFCURVE",
"774 355 CURVE SMOOTH",
"774 155 OFFCURVE",
"611 -12 OFFCURVE",
"406 -12 CURVE SMOOTH",
"205 -12 OFFCURVE",
"40 155 OFFCURVE",
"40 355 CURVE SMOOTH",
"40 560 OFFCURVE",
"205 724 OFFCURVE",
"406 724 CURVE SMOOTH"
);
}
);
width = 814;
},
{
layerId = "033ADDEA-23CB-49AC-A4FC-FA912A776280";
width = 600;
}
);
leftKerningGroup = at;
note = uni277D;
rightKerningGroup = at;
unicode = 277D;
},
{
glyphname = uni277E;
lastChange = "2020-03-10 21:49:07 +0000";
layers = (
{
components = (
{
name = sixsuperior;
transform = "{-1, 0, 0, -1, 583, 1018}";
}
);
guideLines = (
{
angle = 180;
position = "{-6, 181}";
},
{
angle = 180;
position = "{-3, 538}";
}
);
layerId = "1C9972D2-AAA2-4EE5-9F28-188B121D2056";
paths = (
{
closed = 1;
nodes = (
"611 724 OFFCURVE",
"774 560 OFFCURVE",
"774 355 CURVE SMOOTH",
"774 155 OFFCURVE",
"611 -12 OFFCURVE",
"406 -12 CURVE SMOOTH",
"205 -12 OFFCURVE",
"40 155 OFFCURVE",
"40 355 CURVE SMOOTH",
"40 560 OFFCURVE",
"205 724 OFFCURVE",
"406 724 CURVE SMOOTH"
);
}
);
width = 814;
},
{
layerId = "033ADDEA-23CB-49AC-A4FC-FA912A776280";
width = 600;
}
);
leftKerningGroup = at;
note = uni277E;
rightKerningGroup = at;
unicode = 277E;
},
{
glyphname = uni2460;
lastChange = "2020-03-10 21:49:07 +0000";
layers = (
{
components = (
{
name = onesuperior;
transform = "{1, 0, 0, 1, 270, -303}";
}
);
layerId = "1C9972D2-AAA2-4EE5-9F28-188B121D2056";
paths = (
{
closed = 1;
nodes = (
"40 560 OFFCURVE",
"205 724 OFFCURVE",
"406 724 CURVE SMOOTH",
"611 724 OFFCURVE",
"774 560 OFFCURVE",
"774 355 CURVE SMOOTH",
"774 155 OFFCURVE",
"611 -12 OFFCURVE",
"406 -12 CURVE SMOOTH",
"205 -12 OFFCURVE",
"40 155 OFFCURVE",
"40 355 CURVE SMOOTH"
);
},
{
closed = 1;
nodes = (
"99 188 OFFCURVE",
"237 48 OFFCURVE",
"404 48 CURVE SMOOTH",
"575 48 OFFCURVE",
"712 188 OFFCURVE",
"712 354 CURVE SMOOTH",
"712 525 OFFCURVE",
"575 663 OFFCURVE",
"404 663 CURVE SMOOTH",
"237 663 OFFCURVE",
"99 525 OFFCURVE",
"99 354 CURVE SMOOTH"
);
}
);
width = 781;
},
{
layerId = "033ADDEA-23CB-49AC-A4FC-FA912A776280";
width = 600;
}
);
leftKerningGroup = at;
note = uni2460;
rightKerningGroup = at;
unicode = 2460;
},
{
glyphname = uni2461;
lastChange = "2020-03-10 21:49:07 +0000";
layers = (
{
components = (
{
name = twosuperior;
transform = "{1, 0, 0, 1, 240, -301}";
}
);
layerId = "1C9972D2-AAA2-4EE5-9F28-188B121D2056";
paths = (
{
closed = 1;
nodes = (
"40 560 OFFCURVE",
"205 724 OFFCURVE",
"406 724 CURVE SMOOTH",
"611 724 OFFCURVE",
"774 560 OFFCURVE",
"774 355 CURVE SMOOTH",
"774 155 OFFCURVE",
"611 -12 OFFCURVE",
"406 -12 CURVE SMOOTH",
"205 -12 OFFCURVE",
"40 155 OFFCURVE",
"40 355 CURVE SMOOTH"
);
},
{
closed = 1;
nodes = (
"99 188 OFFCURVE",
"237 48 OFFCURVE",
"404 48 CURVE SMOOTH",
"575 48 OFFCURVE",
"712 188 OFFCURVE",
"712 354 CURVE SMOOTH",
"712 525 OFFCURVE",
"575 663 OFFCURVE",
"404 663 CURVE SMOOTH",
"237 663 OFFCURVE",
"99 525 OFFCURVE",
"99 354 CURVE SMOOTH"
);
}
);
width = 814;
},
{
layerId = "033ADDEA-23CB-49AC-A4FC-FA912A776280";
width = 600;
}
);
leftKerningGroup = at;
note = uni2461;
rightKerningGroup = at;
unicode = 2461;
},
{
glyphname = uni2462;
lastChange = "2020-03-10 21:49:07 +0000";
layers = (
{
components = (
{
name = threesuperior;
transform = "{1, 0, 0, 1, 228, -308}";
}
);
layerId = "1C9972D2-AAA2-4EE5-9F28-188B121D2056";
paths = (
{
closed = 1;
nodes = (
"40 560 OFFCURVE",
"205 724 OFFCURVE",
"406 724 CURVE SMOOTH",
"611 724 OFFCURVE",
"774 560 OFFCURVE",
"774 355 CURVE SMOOTH",
"774 155 OFFCURVE",
"611 -12 OFFCURVE",
"406 -12 CURVE SMOOTH",
"205 -12 OFFCURVE",
"40 155 OFFCURVE",
"40 355 CURVE SMOOTH"
);
},
{
closed = 1;
nodes = (
"99 188 OFFCURVE",
"237 48 OFFCURVE",
"404 48 CURVE SMOOTH",
"575 48 OFFCURVE",
"712 188 OFFCURVE",
"712 354 CURVE SMOOTH",
"712 525 OFFCURVE",
"575 663 OFFCURVE",
"404 663 CURVE SMOOTH",
"237 663 OFFCURVE",
"99 525 OFFCURVE",
"99 354 CURVE SMOOTH"
);
}
);
width = 814;
},
{
layerId = "033ADDEA-23CB-49AC-A4FC-FA912A776280";
width = 600;
}
);
leftKerningGroup = at;
note = uni2462;
rightKerningGroup = at;
unicode = 2462;
},
{
glyphname = uni2463;
lastChange = "2020-03-10 21:49:07 +0000";
layers = (
{
components = (
{
name = foursuperior;
transform = "{1, 0, 0, 1, 201, -301}";
}
);
layerId = "1C9972D2-AAA2-4EE5-9F28-188B121D2056";
paths = (
{
closed = 1;
nodes = (
"40 560 OFFCURVE",
"205 724 OFFCURVE",
"406 724 CURVE SMOOTH",
"611 724 OFFCURVE",
"774 560 OFFCURVE",
"774 355 CURVE SMOOTH",
"774 155 OFFCURVE",
"611 -12 OFFCURVE",
"406 -12 CURVE SMOOTH",
"205 -12 OFFCURVE",
"40 155 OFFCURVE",
"40 355 CURVE SMOOTH"
);
},
{
closed = 1;
nodes = (
"99 188 OFFCURVE",
"237 48 OFFCURVE",
"404 48 CURVE SMOOTH",
"575 48 OFFCURVE",
"712 188 OFFCURVE",
"712 354 CURVE SMOOTH",
"712 525 OFFCURVE",
"575 663 OFFCURVE",
"404 663 CURVE SMOOTH",
"237 663 OFFCURVE",
"99 525 OFFCURVE",
"99 354 CURVE SMOOTH"
);
}
);
width = 814;
},
{
layerId = "033ADDEA-23CB-49AC-A4FC-FA912A776280";
width = 600;
}
);
leftKerningGroup = at;
note = uni2463;
rightKerningGroup = at;
unicode = 2463;
},
{
glyphname = uni2464;
lastChange = "2020-03-10 21:49:07 +0000";
layers = (
{
components = (
{
name = fivesuperior;
transform = "{1, 0, 0, 1, 239, -302}";
}
);
layerId = "1C9972D2-AAA2-4EE5-9F28-188B121D2056";
paths = (
{
closed = 1;
nodes = (
"40 560 OFFCURVE",
"205 724 OFFCURVE",
"406 724 CURVE SMOOTH",
"611 724 OFFCURVE",
"774 560 OFFCURVE",
"774 355 CURVE SMOOTH",
"774 155 OFFCURVE",
"611 -12 OFFCURVE",
"406 -12 CURVE SMOOTH",
"205 -12 OFFCURVE",
"40 155 OFFCURVE",
"40 355 CURVE SMOOTH"
);
},
{
closed = 1;
nodes = (
"99 188 OFFCURVE",
"237 48 OFFCURVE",
"404 48 CURVE SMOOTH",
"575 48 OFFCURVE",
"712 188 OFFCURVE",
"712 354 CURVE SMOOTH",
"712 525 OFFCURVE",
"575 663 OFFCURVE",
"404 663 CURVE SMOOTH",
"237 663 OFFCURVE",
"99 525 OFFCURVE",
"99 354 CURVE SMOOTH"
);
}
);
width = 814;
},
{
layerId = "033ADDEA-23CB-49AC-A4FC-FA912A776280";
width = 600;
}
);
leftKerningGroup = at;
note = uni2464;
rightKerningGroup = at;
unicode = 2464;
},
{
glyphname = uni2465;
lastChange = "2020-03-10 21:49:07 +0000";
layers = (
{
components = (
{
name = sixsuperior;
transform = "{1, 0, 0, 1, 227, -304}";
}
);
layerId = "1C9972D2-AAA2-4EE5-9F28-188B121D2056";
paths = (
{
closed = 1;
nodes = (
"40 560 OFFCURVE",
"205 724 OFFCURVE",
"406 724 CURVE SMOOTH",
"611 724 OFFCURVE",
"774 560 OFFCURVE",
"774 355 CURVE SMOOTH",
"774 155 OFFCURVE",
"611 -12 OFFCURVE",
"406 -12 CURVE SMOOTH",
"205 -12 OFFCURVE",
"40 155 OFFCURVE",
"40 355 CURVE SMOOTH"
);
},
{
closed = 1;
nodes = (
"99 188 OFFCURVE",
"237 48 OFFCURVE",
"404 48 CURVE SMOOTH",
"575 48 OFFCURVE",
"712 188 OFFCURVE",
"712 354 CURVE SMOOTH",
"712 525 OFFCURVE",
"575 663 OFFCURVE",
"404 663 CURVE SMOOTH",
"237 663 OFFCURVE",
"99 525 OFFCURVE",
"99 354 CURVE SMOOTH"
);
}
);
width = 814;
},
{
layerId = "033ADDEA-23CB-49AC-A4FC-FA912A776280";
width = 600;
}
);
leftKerningGroup = at;
note = uni2465;
rightKerningGroup = at;
unicode = 2465;
},
{
glyphname = uni2466;
lastChange = "2020-03-10 21:49:07 +0000";
layers = (
{
components = (
{
name = sevensuperior;
transform = "{1, 0, 0, 1, 259, -306}";
}
);
layerId = "1C9972D2-AAA2-4EE5-9F28-188B121D2056";
paths = (
{
closed = 1;
nodes = (
"40 560 OFFCURVE",
"205 724 OFFCURVE",
"406 724 CURVE SMOOTH",
"611 724 OFFCURVE",
"774 560 OFFCURVE",
"774 355 CURVE SMOOTH",
"774 155 OFFCURVE",
"611 -12 OFFCURVE",
"406 -12 CURVE SMOOTH",
"205 -12 OFFCURVE",
"40 155 OFFCURVE",
"40 355 CURVE SMOOTH"
);
},
{
closed = 1;
nodes = (
"99 188 OFFCURVE",
"237 48 OFFCURVE",
"404 48 CURVE SMOOTH",
"575 48 OFFCURVE",
"712 188 OFFCURVE",
"712 354 CURVE SMOOTH",
"712 525 OFFCURVE",
"575 663 OFFCURVE",
"404 663 CURVE SMOOTH",
"237 663 OFFCURVE",
"99 525 OFFCURVE",
"99 354 CURVE SMOOTH"
);
}
);
width = 814;
},
{
layerId = "033ADDEA-23CB-49AC-A4FC-FA912A776280";
width = 600;
}
);
leftKerningGroup = at;
note = uni2466;
rightKerningGroup = at;
unicode = 2466;
},
{
glyphname = uni2467;
lastChange = "2020-03-10 21:49:07 +0000";
layers = (
{
components = (
{
name = eightsuperior;
transform = "{1, 0, 0, 1, 231, -302}";
}
);
layerId = "1C9972D2-AAA2-4EE5-9F28-188B121D2056";
paths = (
{
closed = 1;
nodes = (
"40 560 OFFCURVE",
"205 724 OFFCURVE",
"406 724 CURVE SMOOTH",
"611 724 OFFCURVE",
"774 560 OFFCURVE",
"774 355 CURVE SMOOTH",
"774 155 OFFCURVE",
"611 -12 OFFCURVE",
"406 -12 CURVE SMOOTH",
"205 -12 OFFCURVE",
"40 155 OFFCURVE",
"40 355 CURVE SMOOTH"
);
},
{
closed = 1;
nodes = (
"99 188 OFFCURVE",
"237 48 OFFCURVE",
"404 48 CURVE SMOOTH",
"575 48 OFFCURVE",
"712 188 OFFCURVE",
"712 354 CURVE SMOOTH",
"712 525 OFFCURVE",
"575 663 OFFCURVE",
"404 663 CURVE SMOOTH",
"237 663 OFFCURVE",
"99 525 OFFCURVE",
"99 354 CURVE SMOOTH"
);
}
);
width = 814;
},
{
layerId = "033ADDEA-23CB-49AC-A4FC-FA912A776280";
width = 600;
}
);
leftKerningGroup = at;
note = uni2467;
rightKerningGroup = at;
unicode = 2467;
},
{
glyphname = uni2468;
lastChange = "2020-03-10 21:49:07 +0000";
layers = (
{
components = (
{
name = sixsuperior;
transform = "{-1, 0, 0, -1, 588, 1018}";
}
);
layerId = "1C9972D2-AAA2-4EE5-9F28-188B121D2056";
paths = (
{
closed = 1;
nodes = (
"40 560 OFFCURVE",
"205 724 OFFCURVE",
"406 724 CURVE SMOOTH",
"611 724 OFFCURVE",
"774 560 OFFCURVE",
"774 355 CURVE SMOOTH",
"774 155 OFFCURVE",
"611 -12 OFFCURVE",
"406 -12 CURVE SMOOTH",
"205 -12 OFFCURVE",
"40 155 OFFCURVE",
"40 355 CURVE SMOOTH"
);
},
{
closed = 1;
nodes = (
"99 188 OFFCURVE",
"237 48 OFFCURVE",
"404 48 CURVE SMOOTH",
"575 48 OFFCURVE",
"712 188 OFFCURVE",
"712 354 CURVE SMOOTH",
"712 525 OFFCURVE",
"575 663 OFFCURVE",
"404 663 CURVE SMOOTH",
"237 663 OFFCURVE",
"99 525 OFFCURVE",
"99 354 CURVE SMOOTH"
);
}
);
width = 814;
},
{
layerId = "033ADDEA-23CB-49AC-A4FC-FA912A776280";
width = 600;
}
);
leftKerningGroup = at;
note = uni2468;
rightKerningGroup = at;
unicode = 2468;
},
{
glyphname = three.ss03;
lastChange = "2020-03-10 21:49:07 +0000";
layers = (
{
layerId = "1C9972D2-AAA2-4EE5-9F28-188B121D2056";
paths = (
{
closed = 1;
nodes = (
"438 -4 OFFCURVE",
"530 73 OFFCURVE",
"530 205 CURVE SMOOTH",
"530 307 OFFCURVE",
"475 386 OFFCURVE",
"383 391 CURVE",
"380 378 LINE",
"468 396 OFFCURVE",
"518 460 OFFCURVE",
"518 546 CURVE SMOOTH",
"518 659 OFFCURVE",
"433 725 OFFCURVE",
"306 725 CURVE SMOOTH",
"181 725 OFFCURVE",
"91 660 OFFCURVE",
"55 550 CURVE",
"116 521 LINE",
"136 585 OFFCURVE",
"209 649 OFFCURVE",
"303 649 CURVE SMOOTH",
"382 649 OFFCURVE",
"446 602 OFFCURVE",
"446 535 CURVE SMOOTH",
"446 462 OFFCURVE",
"369 410 OFFCURVE",
"284 410 CURVE SMOOTH",
"233 410 LINE",
"233 334 LINE",
"281 334 LINE SMOOTH",
"328 334 OFFCURVE",
"464 334 OFFCURVE",
"456 198 CURVE SMOOTH",
"451 113 OFFCURVE",
"397 71 OFFCURVE",
"305 71 CURVE SMOOTH",
"210 71 OFFCURVE",
"146 118 OFFCURVE",
"103 212 CURVE",
"40 181 LINE",
"68 73 OFFCURVE",
"167 -4 OFFCURVE",
"303 -4 CURVE SMOOTH"
);
}
);
width = 590;
},
{
layerId = "033ADDEA-23CB-49AC-A4FC-FA912A776280";
paths = (
{
closed = 1;
nodes = (
"457 -4 OFFCURVE",
"562 73 OFFCURVE",
"584 205 CURVE SMOOTH",
"601 307 OFFCURVE",
"559 386 OFFCURVE",
"468 391 CURVE",
"463 378 LINE",
"554 396 OFFCURVE",
"614 460 OFFCURVE",
"628 546 CURVE SMOOTH",
"647 659 OFFCURVE",
"573 725 OFFCURVE",
"446 725 CURVE SMOOTH",
"321 725 OFFCURVE",
"220 660 OFFCURVE",
"166 550 CURVE",
"222 521 LINE",
"253 585 OFFCURVE",
"336 649 OFFCURVE",
"430 649 CURVE SMOOTH",
"509 649 OFFCURVE",
"566 602 OFFCURVE",
"555 535 CURVE SMOOTH",
"542 462 OFFCURVE",
"457 410 OFFCURVE",
"372 410 CURVE SMOOTH",
"321 410 LINE",
"308 334 LINE",
"356 334 LINE SMOOTH",
"403 334 OFFCURVE",
"539 334 OFFCURVE",
"509 198 CURVE SMOOTH",
"490 113 OFFCURVE",
"429 71 OFFCURVE",
"337 71 CURVE SMOOTH",
"242 71 OFFCURVE",
"186 118 OFFCURVE",
"158 212 CURVE",
"90 181 LINE",
"100 73 OFFCURVE",
"186 -4 OFFCURVE",
"322 -4 CURVE SMOOTH"
);
}
);
width = 618;
}
);
leftMetricsKey = three;
rightMetricsKey = three;
},
{
glyphname = zerosuperior;
lastChange = "2020-03-10 21:49:07 +0000";
layers = (
{
guideLines = (
{
angle = 180;
position = "{-10, 483}";
},
{
angle = 180;
position = "{-8, 840}";
},
{
position = "{-8, 844}";
},
{
angle = 180;
position = "{-8, 479}";
}
);
layerId = "1C9972D2-AAA2-4EE5-9F28-188B121D2056";
paths = (
{
closed = 1;
nodes = (
"277 479 OFFCURVE",
"337 554 OFFCURVE",
"337 662 CURVE SMOOTH",
"337 770 OFFCURVE",
"278 844 OFFCURVE",
"189 844 CURVE SMOOTH",
"101 844 OFFCURVE",
"40 769 OFFCURVE",
"40 662 CURVE SMOOTH",
"40 555 OFFCURVE",
"101 479 OFFCURVE",
"189 479 CURVE SMOOTH"
);
},
{
closed = 1;
nodes = (
"136 538 OFFCURVE",
"101 586 OFFCURVE",
"101 662 CURVE SMOOTH",
"101 738 OFFCURVE",
"136 786 OFFCURVE",
"189 786 CURVE SMOOTH",
"242 786 OFFCURVE",
"277 738 OFFCURVE",
"277 662 CURVE SMOOTH",
"277 586 OFFCURVE",
"242 538 OFFCURVE",
"189 538 CURVE SMOOTH"
);
}
);
width = 377;
},
{
layerId = "033ADDEA-23CB-49AC-A4FC-FA912A776280";
paths = (
{
closed = 1;
nodes = (
"376 479 OFFCURVE",
"449 554 OFFCURVE",
"467 662 CURVE SMOOTH",
"484 770 OFFCURVE",
"438 844 OFFCURVE",
"349 844 CURVE SMOOTH",
"261 844 OFFCURVE",
"187 769 OFFCURVE",
"170 662 CURVE SMOOTH",
"152 555 OFFCURVE",
"200 479 OFFCURVE",
"288 479 CURVE SMOOTH"
);
},
{
closed = 1;
nodes = (
"245 538 OFFCURVE",
"218 586 OFFCURVE",
"231 662 CURVE SMOOTH",
"243 738 OFFCURVE",
"286 786 OFFCURVE",
"339 786 CURVE SMOOTH",
"392 786 OFFCURVE",
"419 738 OFFCURVE",
"407 662 CURVE SMOOTH",
"394 586 OFFCURVE",
"351 538 OFFCURVE",
"298 538 CURVE SMOOTH"
);
}
);
width = 600;
}
);
unicode = 2070;
},
{
glyphname = onesuperior;
lastChange = "2020-03-10 21:49:07 +0000";
layers = (
{
guideLines = (
{
angle = 180;
position = "{-48, 483}";
},
{
angle = 180;
position = "{-60, 840}";
}
);
layerId = "1C9972D2-AAA2-4EE5-9F28-188B121D2056";
paths = (
{
closed = 1;
nodes = (
"120 840 LINE",
"40 793 LINE",
"40 735 LINE",
"126 781 LINE",
"126 483 LINE",
"184 483 LINE",
"184 840 LINE"
);
}
);
width = 224;
},
{
layerId = "033ADDEA-23CB-49AC-A4FC-FA912A776280";
paths = (
{
closed = 1;
nodes = (
"279 840 LINE",
"191 793 LINE",
"182 735 LINE",
"275 781 LINE",
"226 483 LINE",
"284 483 LINE",
"343 840 LINE"
);
}
);
width = 600;
}
);
leftKerningGroup = uni00B9;
note = uni00B9;
unicode = 00B9;
},
{
glyphname = twosuperior;
lastChange = "2020-03-10 21:49:07 +0000";
layers = (
{
guideLines = (
{
angle = 180;
position = "{30, 483}";
},
{
angle = 180;
position = "{32, 840}";
},
{
position = "{32, 844}";
},
{
angle = 180;
position = "{32, 479}";
}
);
layerId = "1C9972D2-AAA2-4EE5-9F28-188B121D2056";
paths = (
{
closed = 1;
nodes = (
"228 843 OFFCURVE",
"280 798 OFFCURVE",
"280 738 CURVE SMOOTH",
"280 686 OFFCURVE",
"240 645 OFFCURVE",
"227 632 CURVE SMOOTH",
"135 538 LINE",
"285 538 LINE",
"285 484 LINE",
"47 484 LINE",
"47 524 LINE",
"175 658 LINE SMOOTH",
"206 690 OFFCURVE",
"222 705 OFFCURVE",
"222 733 CURVE SMOOTH",
"222 769 OFFCURVE",
"197 789 OFFCURVE",
"163 789 CURVE SMOOTH",
"132 789 OFFCURVE",
"105 772 OFFCURVE",
"95 765 CURVE SMOOTH",
"69 746 LINE",
"40 787 LINE",
"64 807 LINE SMOOTH",
"94 832 OFFCURVE",
"128 844 OFFCURVE",
"165 844 CURVE SMOOTH"
);
}
);
width = 325;
},
{
layerId = "033ADDEA-23CB-49AC-A4FC-FA912A776280";
paths = (
{
closed = 1;
nodes = (
"388 843 OFFCURVE",
"432 798 OFFCURVE",
"422 738 CURVE SMOOTH",
"414 686 OFFCURVE",
"367 645 OFFCURVE",
"352 632 CURVE SMOOTH",
"244 538 LINE",
"394 538 LINE",
"385 484 LINE",
"147 484 LINE",
"154 524 LINE",
"304 658 LINE SMOOTH",
"340 690 OFFCURVE",
"359 705 OFFCURVE",
"363 733 CURVE SMOOTH",
"369 769 OFFCURVE",
"348 789 OFFCURVE",
"314 789 CURVE SMOOTH",
"283 789 OFFCURVE",
"253 772 OFFCURVE",
"242 765 CURVE SMOOTH",
"212 746 LINE",
"190 787 LINE",
"218 807 LINE SMOOTH",
"252 832 OFFCURVE",
"288 844 OFFCURVE",
"325 844 CURVE SMOOTH"
);
}
);
width = 600;
}
);
leftKerningGroup = uni00B2;
note = uni00B2;
unicode = 00B2;
},
